<?xml version="1.0" encoding="iso-8859-1"?>
<!-- Generator: Adobe Illustrator 16.0.0, SVG Export Plug-In . SVG Version: 6.00 Build 0)  -->
<!DOCTYPE svg PUBLIC "-//W3C//DTD SVG 1.1//EN" "http://www.w3.org/Graphics/SVG/1.1/DTD/svg11.dtd">
<svg version="1.1" id="Capa_1" xmlns="http://www.w3.org/2000/svg" xmlns:xlink="http://www.w3.org/1999/xlink" x="0px" y="0px"
	 width="90.666px" height="90.666px" viewBox="0 0 90.666 90.666" style="enable-background:new 0 0 90.666 90.666;"
	 xml:space="preserve">
<g>
	<g>
		<path d="M72.166,0H18.5c-1.657,0-3,1.343-3,3v84.666c0,1.657,1.343,3,3,3h53.666c1.657,0,3-1.343,3-3V3
			C75.166,1.343,73.823,0,72.166,0z M45.333,81.833c-8.837,0-16-7.164-16-16s7.163-16,16-16s16,7.164,16,16
			S54.17,81.833,45.333,81.833z M69.111,41.5H21.555V4.666h47.556V41.5L69.111,41.5z"/>
		<path d="M45.333,57.333c-4.687,0-8.5,3.813-8.5,8.5s3.813,8.5,8.5,8.5c4.687,0,8.5-3.813,8.5-8.5S50.02,57.333,45.333,57.333z
			 M45.333,72.333c-3.584,0-6.5-2.916-6.5-6.5s2.916-6.5,6.5-6.5s6.5,2.916,6.5,6.5S48.917,72.333,45.333,72.333z"/>
	</g>
</g>
<g>
</g>
<g>
</g>
<g>
</g>
<g>
</g>
<g>
</g>
<g>
</g>
<g>
</g>
<g>
</g>
<g>
</g>
<g>
</g>
<g>
</g>
<g>
</g>
<g>
</g>
<g>
</g>
<g>
</g>
</svg>
