G04 #@! TF.GenerationSoftware,KiCad,Pcbnew,5.1.3-ffb9f22~84~ubuntu18.10.1*
G04 #@! TF.CreationDate,2019-09-01T17:36:10+10:00*
G04 #@! TF.ProjectId,openpod-1,6f70656e-706f-4642-9d31-2e6b69636164,1.0*
G04 #@! TF.SameCoordinates,Original*
G04 #@! TF.FileFunction,Soldermask,Bot*
G04 #@! TF.FilePolarity,Negative*
%FSLAX46Y46*%
G04 Gerber Fmt 4.6, Leading zero omitted, Abs format (unit mm)*
G04 Created by KiCad (PCBNEW 5.1.3-ffb9f22~84~ubuntu18.10.1) date 2019-09-01 17:36:10*
%MOMM*%
%LPD*%
G04 APERTURE LIST*
%ADD10C,0.100000*%
G04 APERTURE END LIST*
D10*
G36*
X104201085Y-119535975D02*
G01*
X104556143Y-119683045D01*
X104556145Y-119683046D01*
X104875690Y-119896559D01*
X105147441Y-120168310D01*
X105360954Y-120487855D01*
X105360955Y-120487857D01*
X105508025Y-120842915D01*
X105583000Y-121219842D01*
X105583000Y-121604158D01*
X105508025Y-121981085D01*
X105360955Y-122336143D01*
X105360954Y-122336145D01*
X105147441Y-122655690D01*
X104875690Y-122927441D01*
X104556145Y-123140954D01*
X104556144Y-123140955D01*
X104556143Y-123140955D01*
X104201085Y-123288025D01*
X103824158Y-123363000D01*
X103439842Y-123363000D01*
X103062915Y-123288025D01*
X102707857Y-123140955D01*
X102707856Y-123140955D01*
X102707855Y-123140954D01*
X102388310Y-122927441D01*
X102116559Y-122655690D01*
X101903046Y-122336145D01*
X101903045Y-122336143D01*
X101755975Y-121981085D01*
X101681000Y-121604158D01*
X101681000Y-121219842D01*
X101755975Y-120842915D01*
X101903045Y-120487857D01*
X101903046Y-120487855D01*
X102116559Y-120168310D01*
X102388310Y-119896559D01*
X102707855Y-119683046D01*
X102707857Y-119683045D01*
X103062915Y-119535975D01*
X103439842Y-119461000D01*
X103824158Y-119461000D01*
X104201085Y-119535975D01*
X104201085Y-119535975D01*
G37*
G36*
X87173000Y-108509000D02*
G01*
X79451000Y-108509000D01*
X79451000Y-100787000D01*
X87173000Y-100787000D01*
X87173000Y-108509000D01*
X87173000Y-108509000D01*
G37*
G36*
X90221000Y-100381000D02*
G01*
X82499000Y-100381000D01*
X82499000Y-92659000D01*
X90221000Y-92659000D01*
X90221000Y-100381000D01*
X90221000Y-100381000D01*
G37*
G36*
X112491009Y-100371005D02*
G01*
X105948991Y-100371005D01*
X105948991Y-92668995D01*
X112491009Y-92668995D01*
X112491009Y-100371005D01*
X112491009Y-100371005D01*
G37*
G36*
X129083000Y-87109500D02*
G01*
X123901000Y-87109500D01*
X123901000Y-77482500D01*
X129083000Y-77482500D01*
X129083000Y-87109500D01*
X129083000Y-87109500D01*
G37*
G36*
X118425085Y-77371975D02*
G01*
X118780143Y-77519045D01*
X118780145Y-77519046D01*
X119099690Y-77732559D01*
X119371441Y-78004310D01*
X119584954Y-78323855D01*
X119584955Y-78323857D01*
X119732025Y-78678915D01*
X119807000Y-79055842D01*
X119807000Y-79440158D01*
X119732025Y-79817085D01*
X119584955Y-80172143D01*
X119584954Y-80172145D01*
X119371441Y-80491690D01*
X119099690Y-80763441D01*
X118780145Y-80976954D01*
X118780144Y-80976955D01*
X118780143Y-80976955D01*
X118425085Y-81124025D01*
X118048158Y-81199000D01*
X117663842Y-81199000D01*
X117286915Y-81124025D01*
X116931857Y-80976955D01*
X116931856Y-80976955D01*
X116931855Y-80976954D01*
X116612310Y-80763441D01*
X116340559Y-80491690D01*
X116127046Y-80172145D01*
X116127045Y-80172143D01*
X115979975Y-79817085D01*
X115905000Y-79440158D01*
X115905000Y-79055842D01*
X115979975Y-78678915D01*
X116127045Y-78323857D01*
X116127046Y-78323855D01*
X116340559Y-78004310D01*
X116612310Y-77732559D01*
X116931855Y-77519046D01*
X116931857Y-77519045D01*
X117286915Y-77371975D01*
X117663842Y-77297000D01*
X118048158Y-77297000D01*
X118425085Y-77371975D01*
X118425085Y-77371975D01*
G37*
G36*
X88453085Y-77371975D02*
G01*
X88808143Y-77519045D01*
X88808145Y-77519046D01*
X89127690Y-77732559D01*
X89399441Y-78004310D01*
X89612954Y-78323855D01*
X89612955Y-78323857D01*
X89760025Y-78678915D01*
X89835000Y-79055842D01*
X89835000Y-79440158D01*
X89760025Y-79817085D01*
X89612955Y-80172143D01*
X89612954Y-80172145D01*
X89399441Y-80491690D01*
X89127690Y-80763441D01*
X88808145Y-80976954D01*
X88808144Y-80976955D01*
X88808143Y-80976955D01*
X88453085Y-81124025D01*
X88076158Y-81199000D01*
X87691842Y-81199000D01*
X87314915Y-81124025D01*
X86959857Y-80976955D01*
X86959856Y-80976955D01*
X86959855Y-80976954D01*
X86640310Y-80763441D01*
X86368559Y-80491690D01*
X86155046Y-80172145D01*
X86155045Y-80172143D01*
X86007975Y-79817085D01*
X85933000Y-79440158D01*
X85933000Y-79055842D01*
X86007975Y-78678915D01*
X86155045Y-78323857D01*
X86155046Y-78323855D01*
X86368559Y-78004310D01*
X86640310Y-77732559D01*
X86959855Y-77519046D01*
X86959857Y-77519045D01*
X87314915Y-77371975D01*
X87691842Y-77297000D01*
X88076158Y-77297000D01*
X88453085Y-77371975D01*
X88453085Y-77371975D01*
G37*
G36*
X126602142Y-65893242D02*
G01*
X126750101Y-65954529D01*
X126883255Y-66043499D01*
X126996501Y-66156745D01*
X127085471Y-66289899D01*
X127146758Y-66437858D01*
X127178000Y-66594925D01*
X127178000Y-66755075D01*
X127146758Y-66912142D01*
X127085471Y-67060101D01*
X126996501Y-67193255D01*
X126883255Y-67306501D01*
X126750101Y-67395471D01*
X126602142Y-67456758D01*
X126445075Y-67488000D01*
X126284925Y-67488000D01*
X126127858Y-67456758D01*
X125979899Y-67395471D01*
X125846745Y-67306501D01*
X125733499Y-67193255D01*
X125644529Y-67060101D01*
X125583242Y-66912142D01*
X125552000Y-66755075D01*
X125552000Y-66594925D01*
X125583242Y-66437858D01*
X125644529Y-66289899D01*
X125733499Y-66156745D01*
X125846745Y-66043499D01*
X125979899Y-65954529D01*
X126127858Y-65893242D01*
X126284925Y-65862000D01*
X126445075Y-65862000D01*
X126602142Y-65893242D01*
X126602142Y-65893242D01*
G37*
G36*
X126602142Y-63353242D02*
G01*
X126750101Y-63414529D01*
X126883255Y-63503499D01*
X126996501Y-63616745D01*
X127085471Y-63749899D01*
X127146758Y-63897858D01*
X127178000Y-64054925D01*
X127178000Y-64215075D01*
X127146758Y-64372142D01*
X127085471Y-64520101D01*
X126996501Y-64653255D01*
X126883255Y-64766501D01*
X126750101Y-64855471D01*
X126602142Y-64916758D01*
X126445075Y-64948000D01*
X126284925Y-64948000D01*
X126127858Y-64916758D01*
X125979899Y-64855471D01*
X125846745Y-64766501D01*
X125733499Y-64653255D01*
X125644529Y-64520101D01*
X125583242Y-64372142D01*
X125552000Y-64215075D01*
X125552000Y-64054925D01*
X125583242Y-63897858D01*
X125644529Y-63749899D01*
X125733499Y-63616745D01*
X125846745Y-63503499D01*
X125979899Y-63414529D01*
X126127858Y-63353242D01*
X126284925Y-63322000D01*
X126445075Y-63322000D01*
X126602142Y-63353242D01*
X126602142Y-63353242D01*
G37*
G36*
X126602142Y-60813242D02*
G01*
X126750101Y-60874529D01*
X126883255Y-60963499D01*
X126996501Y-61076745D01*
X127085471Y-61209899D01*
X127146758Y-61357858D01*
X127178000Y-61514925D01*
X127178000Y-61675075D01*
X127146758Y-61832142D01*
X127085471Y-61980101D01*
X126996501Y-62113255D01*
X126883255Y-62226501D01*
X126750101Y-62315471D01*
X126602142Y-62376758D01*
X126445075Y-62408000D01*
X126284925Y-62408000D01*
X126127858Y-62376758D01*
X125979899Y-62315471D01*
X125846745Y-62226501D01*
X125733499Y-62113255D01*
X125644529Y-61980101D01*
X125583242Y-61832142D01*
X125552000Y-61675075D01*
X125552000Y-61514925D01*
X125583242Y-61357858D01*
X125644529Y-61209899D01*
X125733499Y-61076745D01*
X125846745Y-60963499D01*
X125979899Y-60874529D01*
X126127858Y-60813242D01*
X126284925Y-60782000D01*
X126445075Y-60782000D01*
X126602142Y-60813242D01*
X126602142Y-60813242D01*
G37*
G36*
X100797607Y-54456277D02*
G01*
X100858129Y-54468316D01*
X101029162Y-54539160D01*
X101183087Y-54642010D01*
X101313990Y-54772913D01*
X101416840Y-54926838D01*
X101487684Y-55097871D01*
X101523800Y-55279438D01*
X101523800Y-55464562D01*
X101487684Y-55646129D01*
X101416840Y-55817162D01*
X101313990Y-55971087D01*
X101183087Y-56101990D01*
X101029162Y-56204840D01*
X100858129Y-56275684D01*
X100797607Y-56287723D01*
X100676564Y-56311800D01*
X100491436Y-56311800D01*
X100370393Y-56287723D01*
X100309871Y-56275684D01*
X100138838Y-56204840D01*
X99984913Y-56101990D01*
X99854010Y-55971087D01*
X99751160Y-55817162D01*
X99680316Y-55646129D01*
X99644200Y-55464562D01*
X99644200Y-55279438D01*
X99680316Y-55097871D01*
X99751160Y-54926838D01*
X99854010Y-54772913D01*
X99984913Y-54642010D01*
X100138838Y-54539160D01*
X100309871Y-54468316D01*
X100370393Y-54456277D01*
X100491436Y-54432200D01*
X100676564Y-54432200D01*
X100797607Y-54456277D01*
X100797607Y-54456277D01*
G37*
G36*
X89113607Y-53694277D02*
G01*
X89174129Y-53706316D01*
X89345162Y-53777160D01*
X89499087Y-53880010D01*
X89629990Y-54010913D01*
X89732840Y-54164838D01*
X89803684Y-54335871D01*
X89839800Y-54517438D01*
X89839800Y-54702562D01*
X89803684Y-54884129D01*
X89732840Y-55055162D01*
X89629990Y-55209087D01*
X89499087Y-55339990D01*
X89345162Y-55442840D01*
X89174129Y-55513684D01*
X89113607Y-55525723D01*
X88992564Y-55549800D01*
X88807436Y-55549800D01*
X88686393Y-55525723D01*
X88625871Y-55513684D01*
X88454838Y-55442840D01*
X88300913Y-55339990D01*
X88170010Y-55209087D01*
X88067160Y-55055162D01*
X87996316Y-54884129D01*
X87960200Y-54702562D01*
X87960200Y-54517438D01*
X87996316Y-54335871D01*
X88067160Y-54164838D01*
X88170010Y-54010913D01*
X88300913Y-53880010D01*
X88454838Y-53777160D01*
X88625871Y-53706316D01*
X88686393Y-53694277D01*
X88807436Y-53670200D01*
X88992564Y-53670200D01*
X89113607Y-53694277D01*
X89113607Y-53694277D01*
G37*
G36*
X100797607Y-51916277D02*
G01*
X100858129Y-51928316D01*
X101029162Y-51999160D01*
X101183087Y-52102010D01*
X101313990Y-52232913D01*
X101416840Y-52386838D01*
X101487684Y-52557871D01*
X101523800Y-52739438D01*
X101523800Y-52924562D01*
X101487684Y-53106129D01*
X101416840Y-53277162D01*
X101313990Y-53431087D01*
X101183087Y-53561990D01*
X101029162Y-53664840D01*
X100858129Y-53735684D01*
X100797607Y-53747723D01*
X100676564Y-53771800D01*
X100491436Y-53771800D01*
X100370393Y-53747723D01*
X100309871Y-53735684D01*
X100138838Y-53664840D01*
X99984913Y-53561990D01*
X99854010Y-53431087D01*
X99751160Y-53277162D01*
X99680316Y-53106129D01*
X99644200Y-52924562D01*
X99644200Y-52739438D01*
X99680316Y-52557871D01*
X99751160Y-52386838D01*
X99854010Y-52232913D01*
X99984913Y-52102010D01*
X100138838Y-51999160D01*
X100309871Y-51928316D01*
X100370393Y-51916277D01*
X100491436Y-51892200D01*
X100676564Y-51892200D01*
X100797607Y-51916277D01*
X100797607Y-51916277D01*
G37*
G36*
X89113607Y-51154277D02*
G01*
X89174129Y-51166316D01*
X89345162Y-51237160D01*
X89499087Y-51340010D01*
X89629990Y-51470913D01*
X89732840Y-51624838D01*
X89803684Y-51795871D01*
X89839800Y-51977438D01*
X89839800Y-52162562D01*
X89803684Y-52344129D01*
X89732840Y-52515162D01*
X89629990Y-52669087D01*
X89499087Y-52799990D01*
X89345162Y-52902840D01*
X89174129Y-52973684D01*
X89113607Y-52985723D01*
X88992564Y-53009800D01*
X88807436Y-53009800D01*
X88686393Y-52985723D01*
X88625871Y-52973684D01*
X88454838Y-52902840D01*
X88300913Y-52799990D01*
X88170010Y-52669087D01*
X88067160Y-52515162D01*
X87996316Y-52344129D01*
X87960200Y-52162562D01*
X87960200Y-51977438D01*
X87996316Y-51795871D01*
X88067160Y-51624838D01*
X88170010Y-51470913D01*
X88300913Y-51340010D01*
X88454838Y-51237160D01*
X88625871Y-51166316D01*
X88686393Y-51154277D01*
X88807436Y-51130200D01*
X88992564Y-51130200D01*
X89113607Y-51154277D01*
X89113607Y-51154277D01*
G37*
G36*
X95883512Y-48667927D02*
G01*
X96032812Y-48697624D01*
X96196784Y-48765544D01*
X96344354Y-48864147D01*
X96469853Y-48989646D01*
X96568456Y-49137216D01*
X96636376Y-49301188D01*
X96671000Y-49475259D01*
X96671000Y-49652741D01*
X96636376Y-49826812D01*
X96568456Y-49990784D01*
X96469853Y-50138354D01*
X96344354Y-50263853D01*
X96196784Y-50362456D01*
X96032812Y-50430376D01*
X95883512Y-50460073D01*
X95858742Y-50465000D01*
X95681258Y-50465000D01*
X95656488Y-50460073D01*
X95507188Y-50430376D01*
X95343216Y-50362456D01*
X95195646Y-50263853D01*
X95070147Y-50138354D01*
X94971544Y-49990784D01*
X94903624Y-49826812D01*
X94869000Y-49652741D01*
X94869000Y-49475259D01*
X94903624Y-49301188D01*
X94971544Y-49137216D01*
X95070147Y-48989646D01*
X95195646Y-48864147D01*
X95343216Y-48765544D01*
X95507188Y-48697624D01*
X95656488Y-48667927D01*
X95681258Y-48663000D01*
X95858742Y-48663000D01*
X95883512Y-48667927D01*
X95883512Y-48667927D01*
G37*
G36*
X95883512Y-41667927D02*
G01*
X96032812Y-41697624D01*
X96196784Y-41765544D01*
X96344354Y-41864147D01*
X96469853Y-41989646D01*
X96568456Y-42137216D01*
X96636376Y-42301188D01*
X96671000Y-42475259D01*
X96671000Y-42652741D01*
X96636376Y-42826812D01*
X96568456Y-42990784D01*
X96469853Y-43138354D01*
X96344354Y-43263853D01*
X96196784Y-43362456D01*
X96032812Y-43430376D01*
X95883512Y-43460073D01*
X95858742Y-43465000D01*
X95681258Y-43465000D01*
X95656488Y-43460073D01*
X95507188Y-43430376D01*
X95343216Y-43362456D01*
X95195646Y-43263853D01*
X95070147Y-43138354D01*
X94971544Y-42990784D01*
X94903624Y-42826812D01*
X94869000Y-42652741D01*
X94869000Y-42475259D01*
X94903624Y-42301188D01*
X94971544Y-42137216D01*
X95070147Y-41989646D01*
X95195646Y-41864147D01*
X95343216Y-41765544D01*
X95507188Y-41697624D01*
X95656488Y-41667927D01*
X95681258Y-41663000D01*
X95858742Y-41663000D01*
X95883512Y-41667927D01*
X95883512Y-41667927D01*
G37*
M02*
