M48
; DRILL file {KiCad 5.1.3-ffb9f22~84~ubuntu18.10.1} date Sun 01 Sep 2019 17:36:13 AEST
; FORMAT={-:-/ absolute / inch / decimal}
; #@! TF.CreationDate,2019-09-01T17:36:13+10:00
; #@! TF.GenerationSoftware,Kicad,Pcbnew,5.1.3-ffb9f22~84~ubuntu18.10.1
; #@! TF.FileFunction,Plated,1,4,PTH
FMAT,2
INCH
T1C0.0157
T2C0.0315
T3C0.0394
T4C0.0866
%
G90
G05
T1
X3.125Y-4.375
X3.125Y-4.65
X3.175Y-4.02
X3.175Y-4.75
X3.18Y-4.22
X3.22Y-4.06
X3.275Y-4.025
X3.28Y-4.12
X3.28Y-4.22
X3.2904Y-4.3596
X3.3Y-3.72
X3.3Y-3.9
X3.3626Y-4.3055
X3.4Y-4.05
X3.4Y-4.22
X3.44Y-3.78
X3.45Y-2.55
X3.45Y-3.9
X3.5Y-2.4
X3.525Y-3.72
X3.525Y-3.9
X3.525Y-4.375
X3.525Y-4.5
X3.55Y-2.675
X3.55Y-4.4215
X3.575Y-4.4785
X3.625Y-4.125
X3.65Y-2.6
X3.675Y-4.075
X3.6869Y-4.3
X3.75Y-4.15
X3.825Y-4.05
X3.9Y-3.15
X3.9Y-3.95
X3.9Y-4.2
X3.9Y-4.25
X3.9048Y-2.6048
X3.9048Y-2.9452
X3.9078Y-2.3
X3.975Y-3.775
X4.0035Y-3.9
X4.025Y-3.05
X4.05Y-4.125
X4.05Y-2.75
X4.0673Y-4.0173
X4.1Y-3.2
X4.125Y-4.3
X4.15Y-2.9
X4.15Y-3.4744
X4.175Y-2.3
X4.175Y-4.05
X4.2Y-4.825
X4.2125Y-2.9875
X4.225Y-3.05
X4.225Y-3.725
X4.225Y-3.8
X4.225Y-3.875
X4.25Y-4.825
X4.2992Y-3.1654
X4.3Y-4.825
X4.3209Y-3.8959
X4.325Y-2.775
X4.325Y-3.35
X4.325Y-3.725
X4.325Y-4.175
X4.35Y-2.625
X4.35Y-4.75
X4.3604Y-3.7854
X4.3631Y-4.1
X4.375Y-4.425
X4.375Y-4.5
X4.3785Y-2.5965
X4.3984Y-3.5216
X4.4Y-4.75
X4.4028Y-4.4722
X4.45Y-2.7
X4.45Y-4.75
X4.4715Y-3.075
X4.475Y-1.7
X4.475Y-4.05
X4.5Y-2.35
X4.5Y-3.825
X4.5Y-4.275
X4.5Y-4.475
X4.5215Y-3.9
X4.525Y-1.675
X4.525Y-3.95
X4.525Y-3.9913
X4.5285Y-3.55
X4.55Y-4.475
X4.575Y-4.2
X4.6Y-4.275
X4.6Y-4.4093
X4.6Y-4.85
X4.625Y-3.55
X4.6311Y-4.5061
X4.6404Y-2.8
X4.65Y-2.45
X4.675Y-2.375
X4.675Y-3.7
X4.7Y-1.9014
X4.725Y-2.75
X4.7684Y-2.8035
X4.8Y-1.6
X4.8Y-2.375
X4.8Y-2.95
X4.9077Y-4.1642
X4.9186Y-4.7686
X4.92Y-3.24
X4.92Y-3.3
X4.92Y-3.38
X4.925Y-3.075
X5.0Y-2.8
X5.0018Y-3.15
X5.0337Y-4.1642
X5.04Y-3.24
X5.04Y-3.3
X5.04Y-3.38
X5.05Y-3.08
T2
X4.975Y-2.425
X4.975Y-2.525
X4.975Y-2.625
T3
X3.96Y-2.08
X3.96Y-2.18
X3.5Y-2.05
X3.5Y-2.15
T4
X4.64Y-3.12
X4.08Y-4.78
X3.46Y-3.12
T0
M30
