G04 #@! TF.GenerationSoftware,KiCad,Pcbnew,5.1.3-ffb9f22~84~ubuntu18.10.1*
G04 #@! TF.CreationDate,2019-09-01T17:36:10+10:00*
G04 #@! TF.ProjectId,openpod-1,6f70656e-706f-4642-9d31-2e6b69636164,1.0*
G04 #@! TF.SameCoordinates,Original*
G04 #@! TF.FileFunction,Soldermask,Top*
G04 #@! TF.FilePolarity,Negative*
%FSLAX46Y46*%
G04 Gerber Fmt 4.6, Leading zero omitted, Abs format (unit mm)*
G04 Created by KiCad (PCBNEW 5.1.3-ffb9f22~84~ubuntu18.10.1) date 2019-09-01 17:36:10*
%MOMM*%
%LPD*%
G04 APERTURE LIST*
%ADD10C,0.100000*%
G04 APERTURE END LIST*
D10*
G36*
X108886500Y-111515500D02*
G01*
X106886500Y-111515500D01*
X106886500Y-113715500D01*
X108886500Y-113715500D01*
X108886500Y-111515500D01*
G37*
G36*
X99396500Y-111510500D02*
G01*
X97396500Y-111510500D01*
X97396500Y-113710500D01*
X99396500Y-113710500D01*
X99396500Y-111510500D01*
G37*
G36*
X112750000Y-73650000D02*
G01*
X112750000Y-73250000D01*
X111550000Y-73250000D01*
X111550000Y-73650000D01*
X112750000Y-73650000D01*
G37*
G36*
X112750000Y-74150000D02*
G01*
X112750000Y-73750000D01*
X111550000Y-73750000D01*
X111550000Y-74150000D01*
X112750000Y-74150000D01*
G37*
G36*
X112750000Y-74650000D02*
G01*
X112750000Y-74250000D01*
X111550000Y-74250000D01*
X111550000Y-74650000D01*
X112750000Y-74650000D01*
G37*
G36*
X112750000Y-75150000D02*
G01*
X112750000Y-74750000D01*
X111550000Y-74750000D01*
X111550000Y-75150000D01*
X112750000Y-75150000D01*
G37*
G36*
X112750000Y-75650000D02*
G01*
X112750000Y-75250000D01*
X111550000Y-75250000D01*
X111550000Y-75650000D01*
X112750000Y-75650000D01*
G37*
G36*
X112750000Y-76150000D02*
G01*
X112750000Y-75750000D01*
X111550000Y-75750000D01*
X111550000Y-76150000D01*
X112750000Y-76150000D01*
G37*
G36*
X112750000Y-76650000D02*
G01*
X112750000Y-76250000D01*
X111550000Y-76250000D01*
X111550000Y-76650000D01*
X112750000Y-76650000D01*
G37*
G36*
X112750000Y-77150000D02*
G01*
X112750000Y-76750000D01*
X111550000Y-76750000D01*
X111550000Y-77150000D01*
X112750000Y-77150000D01*
G37*
G36*
X112750000Y-77650000D02*
G01*
X112750000Y-77250000D01*
X111550000Y-77250000D01*
X111550000Y-77650000D01*
X112750000Y-77650000D01*
G37*
G36*
X112750000Y-78150000D02*
G01*
X112750000Y-77750000D01*
X111550000Y-77750000D01*
X111550000Y-78150000D01*
X112750000Y-78150000D01*
G37*
G36*
X112750000Y-78650000D02*
G01*
X112750000Y-78250000D01*
X111550000Y-78250000D01*
X111550000Y-78650000D01*
X112750000Y-78650000D01*
G37*
G36*
X112750000Y-79150000D02*
G01*
X112750000Y-78750000D01*
X111550000Y-78750000D01*
X111550000Y-79150000D01*
X112750000Y-79150000D01*
G37*
G36*
X104350000Y-73650000D02*
G01*
X104350000Y-73250000D01*
X103150000Y-73250000D01*
X103150000Y-73650000D01*
X104350000Y-73650000D01*
G37*
G36*
X104350000Y-74150000D02*
G01*
X104350000Y-73750000D01*
X103150000Y-73750000D01*
X103150000Y-74150000D01*
X104350000Y-74150000D01*
G37*
G36*
X104350000Y-74650000D02*
G01*
X104350000Y-74250000D01*
X103150000Y-74250000D01*
X103150000Y-74650000D01*
X104350000Y-74650000D01*
G37*
G36*
X104350000Y-75150000D02*
G01*
X104350000Y-74750000D01*
X103150000Y-74750000D01*
X103150000Y-75150000D01*
X104350000Y-75150000D01*
G37*
G36*
X104350000Y-75650000D02*
G01*
X104350000Y-75250000D01*
X103150000Y-75250000D01*
X103150000Y-75650000D01*
X104350000Y-75650000D01*
G37*
G36*
X104350000Y-76150000D02*
G01*
X104350000Y-75750000D01*
X103150000Y-75750000D01*
X103150000Y-76150000D01*
X104350000Y-76150000D01*
G37*
G36*
X104350000Y-76650000D02*
G01*
X104350000Y-76250000D01*
X103150000Y-76250000D01*
X103150000Y-76650000D01*
X104350000Y-76650000D01*
G37*
G36*
X104350000Y-77150000D02*
G01*
X104350000Y-76750000D01*
X103150000Y-76750000D01*
X103150000Y-77150000D01*
X104350000Y-77150000D01*
G37*
G36*
X104350000Y-77650000D02*
G01*
X104350000Y-77250000D01*
X103150000Y-77250000D01*
X103150000Y-77650000D01*
X104350000Y-77650000D01*
G37*
G36*
X104350000Y-78150000D02*
G01*
X104350000Y-77750000D01*
X103150000Y-77750000D01*
X103150000Y-78150000D01*
X104350000Y-78150000D01*
G37*
G36*
X104350000Y-78650000D02*
G01*
X104350000Y-78250000D01*
X103150000Y-78250000D01*
X103150000Y-78650000D01*
X104350000Y-78650000D01*
G37*
G36*
X104350000Y-79150000D02*
G01*
X104350000Y-78750000D01*
X103150000Y-78750000D01*
X103150000Y-79150000D01*
X104350000Y-79150000D01*
G37*
G36*
X110500000Y-81000000D02*
G01*
X110900000Y-81000000D01*
X110900000Y-79800000D01*
X110500000Y-79800000D01*
X110500000Y-81000000D01*
G37*
G36*
X110000000Y-81000000D02*
G01*
X110400000Y-81000000D01*
X110400000Y-79800000D01*
X110000000Y-79800000D01*
X110000000Y-81000000D01*
G37*
G36*
X109500000Y-81000000D02*
G01*
X109900000Y-81000000D01*
X109900000Y-79800000D01*
X109500000Y-79800000D01*
X109500000Y-81000000D01*
G37*
G36*
X109000000Y-81000000D02*
G01*
X109400000Y-81000000D01*
X109400000Y-79800000D01*
X109000000Y-79800000D01*
X109000000Y-81000000D01*
G37*
G36*
X108500000Y-81000000D02*
G01*
X108900000Y-81000000D01*
X108900000Y-79800000D01*
X108500000Y-79800000D01*
X108500000Y-81000000D01*
G37*
G36*
X108000000Y-81000000D02*
G01*
X108400000Y-81000000D01*
X108400000Y-79800000D01*
X108000000Y-79800000D01*
X108000000Y-81000000D01*
G37*
G36*
X107500000Y-81000000D02*
G01*
X107900000Y-81000000D01*
X107900000Y-79800000D01*
X107500000Y-79800000D01*
X107500000Y-81000000D01*
G37*
G36*
X107000000Y-81000000D02*
G01*
X107400000Y-81000000D01*
X107400000Y-79800000D01*
X107000000Y-79800000D01*
X107000000Y-81000000D01*
G37*
G36*
X106500000Y-81000000D02*
G01*
X106900000Y-81000000D01*
X106900000Y-79800000D01*
X106500000Y-79800000D01*
X106500000Y-81000000D01*
G37*
G36*
X106000000Y-81000000D02*
G01*
X106400000Y-81000000D01*
X106400000Y-79800000D01*
X106000000Y-79800000D01*
X106000000Y-81000000D01*
G37*
G36*
X105500000Y-81000000D02*
G01*
X105900000Y-81000000D01*
X105900000Y-79800000D01*
X105500000Y-79800000D01*
X105500000Y-81000000D01*
G37*
G36*
X105000000Y-81000000D02*
G01*
X105400000Y-81000000D01*
X105400000Y-79800000D01*
X105000000Y-79800000D01*
X105000000Y-81000000D01*
G37*
G36*
X110500000Y-72600000D02*
G01*
X110900000Y-72600000D01*
X110900000Y-71400000D01*
X110500000Y-71400000D01*
X110500000Y-72600000D01*
G37*
G36*
X110000000Y-72600000D02*
G01*
X110400000Y-72600000D01*
X110400000Y-71400000D01*
X110000000Y-71400000D01*
X110000000Y-72600000D01*
G37*
G36*
X109500000Y-72600000D02*
G01*
X109900000Y-72600000D01*
X109900000Y-71400000D01*
X109500000Y-71400000D01*
X109500000Y-72600000D01*
G37*
G36*
X109000000Y-72600000D02*
G01*
X109400000Y-72600000D01*
X109400000Y-71400000D01*
X109000000Y-71400000D01*
X109000000Y-72600000D01*
G37*
G36*
X108500000Y-72600000D02*
G01*
X108900000Y-72600000D01*
X108900000Y-71400000D01*
X108500000Y-71400000D01*
X108500000Y-72600000D01*
G37*
G36*
X108000000Y-72600000D02*
G01*
X108400000Y-72600000D01*
X108400000Y-71400000D01*
X108000000Y-71400000D01*
X108000000Y-72600000D01*
G37*
G36*
X107500000Y-72600000D02*
G01*
X107900000Y-72600000D01*
X107900000Y-71400000D01*
X107500000Y-71400000D01*
X107500000Y-72600000D01*
G37*
G36*
X107000000Y-72600000D02*
G01*
X107400000Y-72600000D01*
X107400000Y-71400000D01*
X107000000Y-71400000D01*
X107000000Y-72600000D01*
G37*
G36*
X106500000Y-72600000D02*
G01*
X106900000Y-72600000D01*
X106900000Y-71400000D01*
X106500000Y-71400000D01*
X106500000Y-72600000D01*
G37*
G36*
X106000000Y-72600000D02*
G01*
X106400000Y-72600000D01*
X106400000Y-71400000D01*
X106000000Y-71400000D01*
X106000000Y-72600000D01*
G37*
G36*
X105500000Y-72600000D02*
G01*
X105900000Y-72600000D01*
X105900000Y-71400000D01*
X105500000Y-71400000D01*
X105500000Y-72600000D01*
G37*
G36*
X105000000Y-72600000D02*
G01*
X105400000Y-72600000D01*
X105400000Y-71400000D01*
X105000000Y-71400000D01*
X105000000Y-72600000D01*
G37*
G36*
X120490000Y-45480000D02*
G01*
X120490000Y-43480000D01*
X118290000Y-43480000D01*
X118290000Y-45480000D01*
X120490000Y-45480000D01*
G37*
G36*
X120490000Y-68280000D02*
G01*
X120490000Y-66280000D01*
X118290000Y-66280000D01*
X118290000Y-68280000D01*
X120490000Y-68280000D01*
G37*
G36*
X126811000Y-125239001D02*
G01*
X126813402Y-125263387D01*
X126820515Y-125286836D01*
X126832066Y-125308447D01*
X126847611Y-125327389D01*
X126866553Y-125342934D01*
X126888164Y-125354485D01*
X126911613Y-125361598D01*
X126935999Y-125364000D01*
X127708500Y-125364000D01*
X127708500Y-127366000D01*
X123761500Y-127366000D01*
X123761500Y-125364000D01*
X125109001Y-125364000D01*
X125133387Y-125361598D01*
X125156836Y-125354485D01*
X125178447Y-125342934D01*
X125197389Y-125327389D01*
X125212934Y-125308447D01*
X125224485Y-125286836D01*
X125231598Y-125263387D01*
X125234000Y-125239001D01*
X125234000Y-124570999D01*
X125231598Y-124546613D01*
X125224485Y-124523164D01*
X125212934Y-124501553D01*
X125197389Y-124482611D01*
X125178447Y-124467066D01*
X125156836Y-124455515D01*
X125133387Y-124448402D01*
X125109001Y-124446000D01*
X122010999Y-124446000D01*
X121986613Y-124448402D01*
X121963164Y-124455515D01*
X121941553Y-124467066D01*
X121922611Y-124482611D01*
X121907066Y-124501553D01*
X121895515Y-124523164D01*
X121888402Y-124546613D01*
X121886000Y-124570999D01*
X121886000Y-125239001D01*
X121888402Y-125263387D01*
X121895515Y-125286836D01*
X121907066Y-125308447D01*
X121922611Y-125327389D01*
X121941553Y-125342934D01*
X121963164Y-125354485D01*
X121986613Y-125361598D01*
X122010999Y-125364000D01*
X123358500Y-125364000D01*
X123358500Y-127366000D01*
X119411500Y-127366000D01*
X119411500Y-125364000D01*
X120184001Y-125364000D01*
X120208387Y-125361598D01*
X120231836Y-125354485D01*
X120253447Y-125342934D01*
X120272389Y-125327389D01*
X120287934Y-125308447D01*
X120299485Y-125286836D01*
X120306598Y-125263387D01*
X120309000Y-125239001D01*
X120309000Y-122964000D01*
X126811000Y-122964000D01*
X126811000Y-125239001D01*
X126811000Y-125239001D01*
G37*
G36*
X78126000Y-127076000D02*
G01*
X76524000Y-127076000D01*
X76524000Y-125474000D01*
X78126000Y-125474000D01*
X78126000Y-127076000D01*
X78126000Y-127076000D01*
G37*
G36*
X86326000Y-127076000D02*
G01*
X84824000Y-127076000D01*
X84824000Y-126174000D01*
X86326000Y-126174000D01*
X86326000Y-127076000D01*
X86326000Y-127076000D01*
G37*
G36*
X88826000Y-126776000D02*
G01*
X87174000Y-126776000D01*
X87174000Y-125674000D01*
X88826000Y-125674000D01*
X88826000Y-126776000D01*
X88826000Y-126776000D01*
G37*
G36*
X78126000Y-124226000D02*
G01*
X76274000Y-124226000D01*
X76274000Y-123424000D01*
X78126000Y-123424000D01*
X78126000Y-124226000D01*
X78126000Y-124226000D01*
G37*
G36*
X104201085Y-119535975D02*
G01*
X104556143Y-119683045D01*
X104556145Y-119683046D01*
X104875690Y-119896559D01*
X105147441Y-120168310D01*
X105316042Y-120420640D01*
X105360955Y-120487857D01*
X105508025Y-120842915D01*
X105583000Y-121219842D01*
X105583000Y-121604158D01*
X105508025Y-121981085D01*
X105369383Y-122315796D01*
X105360954Y-122336145D01*
X105147441Y-122655690D01*
X104875690Y-122927441D01*
X104556145Y-123140954D01*
X104556144Y-123140955D01*
X104556143Y-123140955D01*
X104201085Y-123288025D01*
X103824158Y-123363000D01*
X103439842Y-123363000D01*
X103062915Y-123288025D01*
X102707857Y-123140955D01*
X102707856Y-123140955D01*
X102707855Y-123140954D01*
X102388310Y-122927441D01*
X102116559Y-122655690D01*
X101903046Y-122336145D01*
X101894617Y-122315796D01*
X101755975Y-121981085D01*
X101681000Y-121604158D01*
X101681000Y-121219842D01*
X101755975Y-120842915D01*
X101903045Y-120487857D01*
X101947958Y-120420640D01*
X102116559Y-120168310D01*
X102388310Y-119896559D01*
X102707855Y-119683046D01*
X102707857Y-119683045D01*
X103062915Y-119535975D01*
X103439842Y-119461000D01*
X103824158Y-119461000D01*
X104201085Y-119535975D01*
X104201085Y-119535975D01*
G37*
G36*
X78126000Y-123126000D02*
G01*
X76274000Y-123126000D01*
X76274000Y-122324000D01*
X78126000Y-122324000D01*
X78126000Y-123126000D01*
X78126000Y-123126000D01*
G37*
G36*
X108231938Y-122211716D02*
G01*
X108252557Y-122217971D01*
X108271553Y-122228124D01*
X108288208Y-122241792D01*
X108301876Y-122258447D01*
X108312029Y-122277443D01*
X108318284Y-122298062D01*
X108321000Y-122325640D01*
X108321000Y-122784360D01*
X108318284Y-122811938D01*
X108312029Y-122832557D01*
X108301876Y-122851553D01*
X108288208Y-122868208D01*
X108271553Y-122881876D01*
X108252557Y-122892029D01*
X108231938Y-122898284D01*
X108204360Y-122901000D01*
X107695640Y-122901000D01*
X107668062Y-122898284D01*
X107647443Y-122892029D01*
X107628447Y-122881876D01*
X107611792Y-122868208D01*
X107598124Y-122851553D01*
X107587971Y-122832557D01*
X107581716Y-122811938D01*
X107579000Y-122784360D01*
X107579000Y-122325640D01*
X107581716Y-122298062D01*
X107587971Y-122277443D01*
X107598124Y-122258447D01*
X107611792Y-122241792D01*
X107628447Y-122228124D01*
X107647443Y-122217971D01*
X107668062Y-122211716D01*
X107695640Y-122209000D01*
X108204360Y-122209000D01*
X108231938Y-122211716D01*
X108231938Y-122211716D01*
G37*
G36*
X109501938Y-122211716D02*
G01*
X109522557Y-122217971D01*
X109541553Y-122228124D01*
X109558208Y-122241792D01*
X109571876Y-122258447D01*
X109582029Y-122277443D01*
X109588284Y-122298062D01*
X109591000Y-122325640D01*
X109591000Y-122784360D01*
X109588284Y-122811938D01*
X109582029Y-122832557D01*
X109571876Y-122851553D01*
X109558208Y-122868208D01*
X109541553Y-122881876D01*
X109522557Y-122892029D01*
X109501938Y-122898284D01*
X109474360Y-122901000D01*
X108965640Y-122901000D01*
X108938062Y-122898284D01*
X108917443Y-122892029D01*
X108898447Y-122881876D01*
X108881792Y-122868208D01*
X108868124Y-122851553D01*
X108857971Y-122832557D01*
X108851716Y-122811938D01*
X108849000Y-122784360D01*
X108849000Y-122325640D01*
X108851716Y-122298062D01*
X108857971Y-122277443D01*
X108868124Y-122258447D01*
X108881792Y-122241792D01*
X108898447Y-122228124D01*
X108917443Y-122217971D01*
X108938062Y-122211716D01*
X108965640Y-122209000D01*
X109474360Y-122209000D01*
X109501938Y-122211716D01*
X109501938Y-122211716D01*
G37*
G36*
X106961938Y-122211716D02*
G01*
X106982557Y-122217971D01*
X107001553Y-122228124D01*
X107018208Y-122241792D01*
X107031876Y-122258447D01*
X107042029Y-122277443D01*
X107048284Y-122298062D01*
X107051000Y-122325640D01*
X107051000Y-122784360D01*
X107048284Y-122811938D01*
X107042029Y-122832557D01*
X107031876Y-122851553D01*
X107018208Y-122868208D01*
X107001553Y-122881876D01*
X106982557Y-122892029D01*
X106961938Y-122898284D01*
X106934360Y-122901000D01*
X106425640Y-122901000D01*
X106398062Y-122898284D01*
X106377443Y-122892029D01*
X106358447Y-122881876D01*
X106341792Y-122868208D01*
X106328124Y-122851553D01*
X106317971Y-122832557D01*
X106311716Y-122811938D01*
X106309000Y-122784360D01*
X106309000Y-122325640D01*
X106311716Y-122298062D01*
X106317971Y-122277443D01*
X106328124Y-122258447D01*
X106341792Y-122241792D01*
X106358447Y-122228124D01*
X106377443Y-122217971D01*
X106398062Y-122211716D01*
X106425640Y-122209000D01*
X106934360Y-122209000D01*
X106961938Y-122211716D01*
X106961938Y-122211716D01*
G37*
G36*
X94261938Y-121576716D02*
G01*
X94282557Y-121582971D01*
X94301553Y-121593124D01*
X94318208Y-121606792D01*
X94331876Y-121623447D01*
X94342029Y-121642443D01*
X94348284Y-121663062D01*
X94351000Y-121690640D01*
X94351000Y-122149360D01*
X94348284Y-122176938D01*
X94342029Y-122197557D01*
X94331876Y-122216553D01*
X94318208Y-122233208D01*
X94301553Y-122246876D01*
X94282557Y-122257029D01*
X94261938Y-122263284D01*
X94234360Y-122266000D01*
X93725640Y-122266000D01*
X93698062Y-122263284D01*
X93677443Y-122257029D01*
X93658447Y-122246876D01*
X93641792Y-122233208D01*
X93628124Y-122216553D01*
X93617971Y-122197557D01*
X93611716Y-122176938D01*
X93609000Y-122149360D01*
X93609000Y-121690640D01*
X93611716Y-121663062D01*
X93617971Y-121642443D01*
X93628124Y-121623447D01*
X93641792Y-121606792D01*
X93658447Y-121593124D01*
X93677443Y-121582971D01*
X93698062Y-121576716D01*
X93725640Y-121574000D01*
X94234360Y-121574000D01*
X94261938Y-121576716D01*
X94261938Y-121576716D01*
G37*
G36*
X96801938Y-121576716D02*
G01*
X96822557Y-121582971D01*
X96841553Y-121593124D01*
X96858208Y-121606792D01*
X96871876Y-121623447D01*
X96882029Y-121642443D01*
X96888284Y-121663062D01*
X96891000Y-121690640D01*
X96891000Y-122149360D01*
X96888284Y-122176938D01*
X96882029Y-122197557D01*
X96871876Y-122216553D01*
X96858208Y-122233208D01*
X96841553Y-122246876D01*
X96822557Y-122257029D01*
X96801938Y-122263284D01*
X96774360Y-122266000D01*
X96265640Y-122266000D01*
X96238062Y-122263284D01*
X96217443Y-122257029D01*
X96198447Y-122246876D01*
X96181792Y-122233208D01*
X96168124Y-122216553D01*
X96157971Y-122197557D01*
X96151716Y-122176938D01*
X96149000Y-122149360D01*
X96149000Y-121690640D01*
X96151716Y-121663062D01*
X96157971Y-121642443D01*
X96168124Y-121623447D01*
X96181792Y-121606792D01*
X96198447Y-121593124D01*
X96217443Y-121582971D01*
X96238062Y-121576716D01*
X96265640Y-121574000D01*
X96774360Y-121574000D01*
X96801938Y-121576716D01*
X96801938Y-121576716D01*
G37*
G36*
X95531938Y-121576716D02*
G01*
X95552557Y-121582971D01*
X95571553Y-121593124D01*
X95588208Y-121606792D01*
X95601876Y-121623447D01*
X95612029Y-121642443D01*
X95618284Y-121663062D01*
X95621000Y-121690640D01*
X95621000Y-122149360D01*
X95618284Y-122176938D01*
X95612029Y-122197557D01*
X95601876Y-122216553D01*
X95588208Y-122233208D01*
X95571553Y-122246876D01*
X95552557Y-122257029D01*
X95531938Y-122263284D01*
X95504360Y-122266000D01*
X94995640Y-122266000D01*
X94968062Y-122263284D01*
X94947443Y-122257029D01*
X94928447Y-122246876D01*
X94911792Y-122233208D01*
X94898124Y-122216553D01*
X94887971Y-122197557D01*
X94881716Y-122176938D01*
X94879000Y-122149360D01*
X94879000Y-121690640D01*
X94881716Y-121663062D01*
X94887971Y-121642443D01*
X94898124Y-121623447D01*
X94911792Y-121606792D01*
X94928447Y-121593124D01*
X94947443Y-121582971D01*
X94968062Y-121576716D01*
X94995640Y-121574000D01*
X95504360Y-121574000D01*
X95531938Y-121576716D01*
X95531938Y-121576716D01*
G37*
G36*
X98071938Y-121576716D02*
G01*
X98092557Y-121582971D01*
X98111553Y-121593124D01*
X98128208Y-121606792D01*
X98141876Y-121623447D01*
X98152029Y-121642443D01*
X98158284Y-121663062D01*
X98161000Y-121690640D01*
X98161000Y-122149360D01*
X98158284Y-122176938D01*
X98152029Y-122197557D01*
X98141876Y-122216553D01*
X98128208Y-122233208D01*
X98111553Y-122246876D01*
X98092557Y-122257029D01*
X98071938Y-122263284D01*
X98044360Y-122266000D01*
X97535640Y-122266000D01*
X97508062Y-122263284D01*
X97487443Y-122257029D01*
X97468447Y-122246876D01*
X97451792Y-122233208D01*
X97438124Y-122216553D01*
X97427971Y-122197557D01*
X97421716Y-122176938D01*
X97419000Y-122149360D01*
X97419000Y-121690640D01*
X97421716Y-121663062D01*
X97427971Y-121642443D01*
X97438124Y-121623447D01*
X97451792Y-121606792D01*
X97468447Y-121593124D01*
X97487443Y-121582971D01*
X97508062Y-121576716D01*
X97535640Y-121574000D01*
X98044360Y-121574000D01*
X98071938Y-121576716D01*
X98071938Y-121576716D01*
G37*
G36*
X92991938Y-121576716D02*
G01*
X93012557Y-121582971D01*
X93031553Y-121593124D01*
X93048208Y-121606792D01*
X93061876Y-121623447D01*
X93072029Y-121642443D01*
X93078284Y-121663062D01*
X93081000Y-121690640D01*
X93081000Y-122149360D01*
X93078284Y-122176938D01*
X93072029Y-122197557D01*
X93061876Y-122216553D01*
X93048208Y-122233208D01*
X93031553Y-122246876D01*
X93012557Y-122257029D01*
X92991938Y-122263284D01*
X92964360Y-122266000D01*
X92455640Y-122266000D01*
X92428062Y-122263284D01*
X92407443Y-122257029D01*
X92388447Y-122246876D01*
X92371792Y-122233208D01*
X92358124Y-122216553D01*
X92347971Y-122197557D01*
X92341716Y-122176938D01*
X92339000Y-122149360D01*
X92339000Y-121690640D01*
X92341716Y-121663062D01*
X92347971Y-121642443D01*
X92358124Y-121623447D01*
X92371792Y-121606792D01*
X92388447Y-121593124D01*
X92407443Y-121582971D01*
X92428062Y-121576716D01*
X92455640Y-121574000D01*
X92964360Y-121574000D01*
X92991938Y-121576716D01*
X92991938Y-121576716D01*
G37*
G36*
X99341938Y-121576716D02*
G01*
X99362557Y-121582971D01*
X99381553Y-121593124D01*
X99398208Y-121606792D01*
X99411876Y-121623447D01*
X99422029Y-121642443D01*
X99428284Y-121663062D01*
X99431000Y-121690640D01*
X99431000Y-122149360D01*
X99428284Y-122176938D01*
X99422029Y-122197557D01*
X99411876Y-122216553D01*
X99398208Y-122233208D01*
X99381553Y-122246876D01*
X99362557Y-122257029D01*
X99341938Y-122263284D01*
X99314360Y-122266000D01*
X98805640Y-122266000D01*
X98778062Y-122263284D01*
X98757443Y-122257029D01*
X98738447Y-122246876D01*
X98721792Y-122233208D01*
X98708124Y-122216553D01*
X98697971Y-122197557D01*
X98691716Y-122176938D01*
X98689000Y-122149360D01*
X98689000Y-121690640D01*
X98691716Y-121663062D01*
X98697971Y-121642443D01*
X98708124Y-121623447D01*
X98721792Y-121606792D01*
X98738447Y-121593124D01*
X98757443Y-121582971D01*
X98778062Y-121576716D01*
X98805640Y-121574000D01*
X99314360Y-121574000D01*
X99341938Y-121576716D01*
X99341938Y-121576716D01*
G37*
G36*
X78126000Y-122026000D02*
G01*
X76274000Y-122026000D01*
X76274000Y-121224000D01*
X78126000Y-121224000D01*
X78126000Y-122026000D01*
X78126000Y-122026000D01*
G37*
G36*
X109501938Y-121241716D02*
G01*
X109522557Y-121247971D01*
X109541553Y-121258124D01*
X109558208Y-121271792D01*
X109571876Y-121288447D01*
X109582029Y-121307443D01*
X109588284Y-121328062D01*
X109591000Y-121355640D01*
X109591000Y-121814360D01*
X109588284Y-121841938D01*
X109582029Y-121862557D01*
X109571876Y-121881553D01*
X109558208Y-121898208D01*
X109541553Y-121911876D01*
X109522557Y-121922029D01*
X109501938Y-121928284D01*
X109474360Y-121931000D01*
X108965640Y-121931000D01*
X108938062Y-121928284D01*
X108917443Y-121922029D01*
X108898447Y-121911876D01*
X108881792Y-121898208D01*
X108868124Y-121881553D01*
X108857971Y-121862557D01*
X108851716Y-121841938D01*
X108849000Y-121814360D01*
X108849000Y-121355640D01*
X108851716Y-121328062D01*
X108857971Y-121307443D01*
X108868124Y-121288447D01*
X108881792Y-121271792D01*
X108898447Y-121258124D01*
X108917443Y-121247971D01*
X108938062Y-121241716D01*
X108965640Y-121239000D01*
X109474360Y-121239000D01*
X109501938Y-121241716D01*
X109501938Y-121241716D01*
G37*
G36*
X108231938Y-121241716D02*
G01*
X108252557Y-121247971D01*
X108271553Y-121258124D01*
X108288208Y-121271792D01*
X108301876Y-121288447D01*
X108312029Y-121307443D01*
X108318284Y-121328062D01*
X108321000Y-121355640D01*
X108321000Y-121814360D01*
X108318284Y-121841938D01*
X108312029Y-121862557D01*
X108301876Y-121881553D01*
X108288208Y-121898208D01*
X108271553Y-121911876D01*
X108252557Y-121922029D01*
X108231938Y-121928284D01*
X108204360Y-121931000D01*
X107695640Y-121931000D01*
X107668062Y-121928284D01*
X107647443Y-121922029D01*
X107628447Y-121911876D01*
X107611792Y-121898208D01*
X107598124Y-121881553D01*
X107587971Y-121862557D01*
X107581716Y-121841938D01*
X107579000Y-121814360D01*
X107579000Y-121355640D01*
X107581716Y-121328062D01*
X107587971Y-121307443D01*
X107598124Y-121288447D01*
X107611792Y-121271792D01*
X107628447Y-121258124D01*
X107647443Y-121247971D01*
X107668062Y-121241716D01*
X107695640Y-121239000D01*
X108204360Y-121239000D01*
X108231938Y-121241716D01*
X108231938Y-121241716D01*
G37*
G36*
X106961938Y-121241716D02*
G01*
X106982557Y-121247971D01*
X107001553Y-121258124D01*
X107018208Y-121271792D01*
X107031876Y-121288447D01*
X107042029Y-121307443D01*
X107048284Y-121328062D01*
X107051000Y-121355640D01*
X107051000Y-121814360D01*
X107048284Y-121841938D01*
X107042029Y-121862557D01*
X107031876Y-121881553D01*
X107018208Y-121898208D01*
X107001553Y-121911876D01*
X106982557Y-121922029D01*
X106961938Y-121928284D01*
X106934360Y-121931000D01*
X106425640Y-121931000D01*
X106398062Y-121928284D01*
X106377443Y-121922029D01*
X106358447Y-121911876D01*
X106341792Y-121898208D01*
X106328124Y-121881553D01*
X106317971Y-121862557D01*
X106311716Y-121841938D01*
X106309000Y-121814360D01*
X106309000Y-121355640D01*
X106311716Y-121328062D01*
X106317971Y-121307443D01*
X106328124Y-121288447D01*
X106341792Y-121271792D01*
X106358447Y-121258124D01*
X106377443Y-121247971D01*
X106398062Y-121241716D01*
X106425640Y-121239000D01*
X106934360Y-121239000D01*
X106961938Y-121241716D01*
X106961938Y-121241716D01*
G37*
G36*
X92991938Y-120606716D02*
G01*
X93012557Y-120612971D01*
X93031553Y-120623124D01*
X93048208Y-120636792D01*
X93061876Y-120653447D01*
X93072029Y-120672443D01*
X93078284Y-120693062D01*
X93081000Y-120720640D01*
X93081000Y-121179360D01*
X93078284Y-121206938D01*
X93072029Y-121227557D01*
X93061876Y-121246553D01*
X93048208Y-121263208D01*
X93031553Y-121276876D01*
X93012557Y-121287029D01*
X92991938Y-121293284D01*
X92964360Y-121296000D01*
X92455640Y-121296000D01*
X92428062Y-121293284D01*
X92407443Y-121287029D01*
X92388447Y-121276876D01*
X92371792Y-121263208D01*
X92358124Y-121246553D01*
X92347971Y-121227557D01*
X92341716Y-121206938D01*
X92339000Y-121179360D01*
X92339000Y-120720640D01*
X92341716Y-120693062D01*
X92347971Y-120672443D01*
X92358124Y-120653447D01*
X92371792Y-120636792D01*
X92388447Y-120623124D01*
X92407443Y-120612971D01*
X92428062Y-120606716D01*
X92455640Y-120604000D01*
X92964360Y-120604000D01*
X92991938Y-120606716D01*
X92991938Y-120606716D01*
G37*
G36*
X98071938Y-120606716D02*
G01*
X98092557Y-120612971D01*
X98111553Y-120623124D01*
X98128208Y-120636792D01*
X98141876Y-120653447D01*
X98152029Y-120672443D01*
X98158284Y-120693062D01*
X98161000Y-120720640D01*
X98161000Y-121179360D01*
X98158284Y-121206938D01*
X98152029Y-121227557D01*
X98141876Y-121246553D01*
X98128208Y-121263208D01*
X98111553Y-121276876D01*
X98092557Y-121287029D01*
X98071938Y-121293284D01*
X98044360Y-121296000D01*
X97535640Y-121296000D01*
X97508062Y-121293284D01*
X97487443Y-121287029D01*
X97468447Y-121276876D01*
X97451792Y-121263208D01*
X97438124Y-121246553D01*
X97427971Y-121227557D01*
X97421716Y-121206938D01*
X97419000Y-121179360D01*
X97419000Y-120720640D01*
X97421716Y-120693062D01*
X97427971Y-120672443D01*
X97438124Y-120653447D01*
X97451792Y-120636792D01*
X97468447Y-120623124D01*
X97487443Y-120612971D01*
X97508062Y-120606716D01*
X97535640Y-120604000D01*
X98044360Y-120604000D01*
X98071938Y-120606716D01*
X98071938Y-120606716D01*
G37*
G36*
X94261938Y-120606716D02*
G01*
X94282557Y-120612971D01*
X94301553Y-120623124D01*
X94318208Y-120636792D01*
X94331876Y-120653447D01*
X94342029Y-120672443D01*
X94348284Y-120693062D01*
X94351000Y-120720640D01*
X94351000Y-121179360D01*
X94348284Y-121206938D01*
X94342029Y-121227557D01*
X94331876Y-121246553D01*
X94318208Y-121263208D01*
X94301553Y-121276876D01*
X94282557Y-121287029D01*
X94261938Y-121293284D01*
X94234360Y-121296000D01*
X93725640Y-121296000D01*
X93698062Y-121293284D01*
X93677443Y-121287029D01*
X93658447Y-121276876D01*
X93641792Y-121263208D01*
X93628124Y-121246553D01*
X93617971Y-121227557D01*
X93611716Y-121206938D01*
X93609000Y-121179360D01*
X93609000Y-120720640D01*
X93611716Y-120693062D01*
X93617971Y-120672443D01*
X93628124Y-120653447D01*
X93641792Y-120636792D01*
X93658447Y-120623124D01*
X93677443Y-120612971D01*
X93698062Y-120606716D01*
X93725640Y-120604000D01*
X94234360Y-120604000D01*
X94261938Y-120606716D01*
X94261938Y-120606716D01*
G37*
G36*
X99341938Y-120606716D02*
G01*
X99362557Y-120612971D01*
X99381553Y-120623124D01*
X99398208Y-120636792D01*
X99411876Y-120653447D01*
X99422029Y-120672443D01*
X99428284Y-120693062D01*
X99431000Y-120720640D01*
X99431000Y-121179360D01*
X99428284Y-121206938D01*
X99422029Y-121227557D01*
X99411876Y-121246553D01*
X99398208Y-121263208D01*
X99381553Y-121276876D01*
X99362557Y-121287029D01*
X99341938Y-121293284D01*
X99314360Y-121296000D01*
X98805640Y-121296000D01*
X98778062Y-121293284D01*
X98757443Y-121287029D01*
X98738447Y-121276876D01*
X98721792Y-121263208D01*
X98708124Y-121246553D01*
X98697971Y-121227557D01*
X98691716Y-121206938D01*
X98689000Y-121179360D01*
X98689000Y-120720640D01*
X98691716Y-120693062D01*
X98697971Y-120672443D01*
X98708124Y-120653447D01*
X98721792Y-120636792D01*
X98738447Y-120623124D01*
X98757443Y-120612971D01*
X98778062Y-120606716D01*
X98805640Y-120604000D01*
X99314360Y-120604000D01*
X99341938Y-120606716D01*
X99341938Y-120606716D01*
G37*
G36*
X95531938Y-120606716D02*
G01*
X95552557Y-120612971D01*
X95571553Y-120623124D01*
X95588208Y-120636792D01*
X95601876Y-120653447D01*
X95612029Y-120672443D01*
X95618284Y-120693062D01*
X95621000Y-120720640D01*
X95621000Y-121179360D01*
X95618284Y-121206938D01*
X95612029Y-121227557D01*
X95601876Y-121246553D01*
X95588208Y-121263208D01*
X95571553Y-121276876D01*
X95552557Y-121287029D01*
X95531938Y-121293284D01*
X95504360Y-121296000D01*
X94995640Y-121296000D01*
X94968062Y-121293284D01*
X94947443Y-121287029D01*
X94928447Y-121276876D01*
X94911792Y-121263208D01*
X94898124Y-121246553D01*
X94887971Y-121227557D01*
X94881716Y-121206938D01*
X94879000Y-121179360D01*
X94879000Y-120720640D01*
X94881716Y-120693062D01*
X94887971Y-120672443D01*
X94898124Y-120653447D01*
X94911792Y-120636792D01*
X94928447Y-120623124D01*
X94947443Y-120612971D01*
X94968062Y-120606716D01*
X94995640Y-120604000D01*
X95504360Y-120604000D01*
X95531938Y-120606716D01*
X95531938Y-120606716D01*
G37*
G36*
X96801938Y-120606716D02*
G01*
X96822557Y-120612971D01*
X96841553Y-120623124D01*
X96858208Y-120636792D01*
X96871876Y-120653447D01*
X96882029Y-120672443D01*
X96888284Y-120693062D01*
X96891000Y-120720640D01*
X96891000Y-121179360D01*
X96888284Y-121206938D01*
X96882029Y-121227557D01*
X96871876Y-121246553D01*
X96858208Y-121263208D01*
X96841553Y-121276876D01*
X96822557Y-121287029D01*
X96801938Y-121293284D01*
X96774360Y-121296000D01*
X96265640Y-121296000D01*
X96238062Y-121293284D01*
X96217443Y-121287029D01*
X96198447Y-121276876D01*
X96181792Y-121263208D01*
X96168124Y-121246553D01*
X96157971Y-121227557D01*
X96151716Y-121206938D01*
X96149000Y-121179360D01*
X96149000Y-120720640D01*
X96151716Y-120693062D01*
X96157971Y-120672443D01*
X96168124Y-120653447D01*
X96181792Y-120636792D01*
X96198447Y-120623124D01*
X96217443Y-120612971D01*
X96238062Y-120606716D01*
X96265640Y-120604000D01*
X96774360Y-120604000D01*
X96801938Y-120606716D01*
X96801938Y-120606716D01*
G37*
G36*
X110771938Y-120306716D02*
G01*
X110792557Y-120312971D01*
X110811553Y-120323124D01*
X110828208Y-120336792D01*
X110841876Y-120353447D01*
X110852029Y-120372443D01*
X110858284Y-120393062D01*
X110861000Y-120420640D01*
X110861000Y-120879360D01*
X110858284Y-120906938D01*
X110852029Y-120927557D01*
X110841876Y-120946553D01*
X110828208Y-120963208D01*
X110811553Y-120976876D01*
X110792557Y-120987029D01*
X110771938Y-120993284D01*
X110744360Y-120996000D01*
X110235640Y-120996000D01*
X110208062Y-120993284D01*
X110187443Y-120987029D01*
X110168447Y-120976876D01*
X110151792Y-120963208D01*
X110138124Y-120946553D01*
X110127971Y-120927557D01*
X110121716Y-120906938D01*
X110119000Y-120879360D01*
X110119000Y-120420640D01*
X110121716Y-120393062D01*
X110127971Y-120372443D01*
X110138124Y-120353447D01*
X110151792Y-120336792D01*
X110168447Y-120323124D01*
X110187443Y-120312971D01*
X110208062Y-120306716D01*
X110235640Y-120304000D01*
X110744360Y-120304000D01*
X110771938Y-120306716D01*
X110771938Y-120306716D01*
G37*
G36*
X112041938Y-120306716D02*
G01*
X112062557Y-120312971D01*
X112081553Y-120323124D01*
X112098208Y-120336792D01*
X112111876Y-120353447D01*
X112122029Y-120372443D01*
X112128284Y-120393062D01*
X112131000Y-120420640D01*
X112131000Y-120879360D01*
X112128284Y-120906938D01*
X112122029Y-120927557D01*
X112111876Y-120946553D01*
X112098208Y-120963208D01*
X112081553Y-120976876D01*
X112062557Y-120987029D01*
X112041938Y-120993284D01*
X112014360Y-120996000D01*
X111505640Y-120996000D01*
X111478062Y-120993284D01*
X111457443Y-120987029D01*
X111438447Y-120976876D01*
X111421792Y-120963208D01*
X111408124Y-120946553D01*
X111397971Y-120927557D01*
X111391716Y-120906938D01*
X111389000Y-120879360D01*
X111389000Y-120420640D01*
X111391716Y-120393062D01*
X111397971Y-120372443D01*
X111408124Y-120353447D01*
X111421792Y-120336792D01*
X111438447Y-120323124D01*
X111457443Y-120312971D01*
X111478062Y-120306716D01*
X111505640Y-120304000D01*
X112014360Y-120304000D01*
X112041938Y-120306716D01*
X112041938Y-120306716D01*
G37*
G36*
X113311938Y-120306716D02*
G01*
X113332557Y-120312971D01*
X113351553Y-120323124D01*
X113368208Y-120336792D01*
X113381876Y-120353447D01*
X113392029Y-120372443D01*
X113398284Y-120393062D01*
X113401000Y-120420640D01*
X113401000Y-120879360D01*
X113398284Y-120906938D01*
X113392029Y-120927557D01*
X113381876Y-120946553D01*
X113368208Y-120963208D01*
X113351553Y-120976876D01*
X113332557Y-120987029D01*
X113311938Y-120993284D01*
X113284360Y-120996000D01*
X112775640Y-120996000D01*
X112748062Y-120993284D01*
X112727443Y-120987029D01*
X112708447Y-120976876D01*
X112691792Y-120963208D01*
X112678124Y-120946553D01*
X112667971Y-120927557D01*
X112661716Y-120906938D01*
X112659000Y-120879360D01*
X112659000Y-120420640D01*
X112661716Y-120393062D01*
X112667971Y-120372443D01*
X112678124Y-120353447D01*
X112691792Y-120336792D01*
X112708447Y-120323124D01*
X112727443Y-120312971D01*
X112748062Y-120306716D01*
X112775640Y-120304000D01*
X113284360Y-120304000D01*
X113311938Y-120306716D01*
X113311938Y-120306716D01*
G37*
G36*
X78126000Y-120926000D02*
G01*
X76274000Y-120926000D01*
X76274000Y-120124000D01*
X78126000Y-120124000D01*
X78126000Y-120926000D01*
X78126000Y-120926000D01*
G37*
G36*
X110771938Y-119336716D02*
G01*
X110792557Y-119342971D01*
X110811553Y-119353124D01*
X110828208Y-119366792D01*
X110841876Y-119383447D01*
X110852029Y-119402443D01*
X110858284Y-119423062D01*
X110861000Y-119450640D01*
X110861000Y-119909360D01*
X110858284Y-119936938D01*
X110852029Y-119957557D01*
X110841876Y-119976553D01*
X110828208Y-119993208D01*
X110811553Y-120006876D01*
X110792557Y-120017029D01*
X110771938Y-120023284D01*
X110744360Y-120026000D01*
X110235640Y-120026000D01*
X110208062Y-120023284D01*
X110187443Y-120017029D01*
X110168447Y-120006876D01*
X110151792Y-119993208D01*
X110138124Y-119976553D01*
X110127971Y-119957557D01*
X110121716Y-119936938D01*
X110119000Y-119909360D01*
X110119000Y-119450640D01*
X110121716Y-119423062D01*
X110127971Y-119402443D01*
X110138124Y-119383447D01*
X110151792Y-119366792D01*
X110168447Y-119353124D01*
X110187443Y-119342971D01*
X110208062Y-119336716D01*
X110235640Y-119334000D01*
X110744360Y-119334000D01*
X110771938Y-119336716D01*
X110771938Y-119336716D01*
G37*
G36*
X113311938Y-119336716D02*
G01*
X113332557Y-119342971D01*
X113351553Y-119353124D01*
X113368208Y-119366792D01*
X113381876Y-119383447D01*
X113392029Y-119402443D01*
X113398284Y-119423062D01*
X113401000Y-119450640D01*
X113401000Y-119909360D01*
X113398284Y-119936938D01*
X113392029Y-119957557D01*
X113381876Y-119976553D01*
X113368208Y-119993208D01*
X113351553Y-120006876D01*
X113332557Y-120017029D01*
X113311938Y-120023284D01*
X113284360Y-120026000D01*
X112775640Y-120026000D01*
X112748062Y-120023284D01*
X112727443Y-120017029D01*
X112708447Y-120006876D01*
X112691792Y-119993208D01*
X112678124Y-119976553D01*
X112667971Y-119957557D01*
X112661716Y-119936938D01*
X112659000Y-119909360D01*
X112659000Y-119450640D01*
X112661716Y-119423062D01*
X112667971Y-119402443D01*
X112678124Y-119383447D01*
X112691792Y-119366792D01*
X112708447Y-119353124D01*
X112727443Y-119342971D01*
X112748062Y-119336716D01*
X112775640Y-119334000D01*
X113284360Y-119334000D01*
X113311938Y-119336716D01*
X113311938Y-119336716D01*
G37*
G36*
X112041938Y-119336716D02*
G01*
X112062557Y-119342971D01*
X112081553Y-119353124D01*
X112098208Y-119366792D01*
X112111876Y-119383447D01*
X112122029Y-119402443D01*
X112128284Y-119423062D01*
X112131000Y-119450640D01*
X112131000Y-119909360D01*
X112128284Y-119936938D01*
X112122029Y-119957557D01*
X112111876Y-119976553D01*
X112098208Y-119993208D01*
X112081553Y-120006876D01*
X112062557Y-120017029D01*
X112041938Y-120023284D01*
X112014360Y-120026000D01*
X111505640Y-120026000D01*
X111478062Y-120023284D01*
X111457443Y-120017029D01*
X111438447Y-120006876D01*
X111421792Y-119993208D01*
X111408124Y-119976553D01*
X111397971Y-119957557D01*
X111391716Y-119936938D01*
X111389000Y-119909360D01*
X111389000Y-119450640D01*
X111391716Y-119423062D01*
X111397971Y-119402443D01*
X111408124Y-119383447D01*
X111421792Y-119366792D01*
X111438447Y-119353124D01*
X111457443Y-119342971D01*
X111478062Y-119336716D01*
X111505640Y-119334000D01*
X112014360Y-119334000D01*
X112041938Y-119336716D01*
X112041938Y-119336716D01*
G37*
G36*
X78126000Y-119826000D02*
G01*
X76274000Y-119826000D01*
X76274000Y-119024000D01*
X78126000Y-119024000D01*
X78126000Y-119826000D01*
X78126000Y-119826000D01*
G37*
G36*
X78126000Y-118726000D02*
G01*
X76274000Y-118726000D01*
X76274000Y-117924000D01*
X78126000Y-117924000D01*
X78126000Y-118726000D01*
X78126000Y-118726000D01*
G37*
G36*
X78126000Y-117626000D02*
G01*
X76274000Y-117626000D01*
X76274000Y-116824000D01*
X78126000Y-116824000D01*
X78126000Y-117626000D01*
X78126000Y-117626000D01*
G37*
G36*
X117500400Y-116687600D02*
G01*
X111099600Y-116687600D01*
X111099600Y-115011200D01*
X117500400Y-115011200D01*
X117500400Y-116687600D01*
X117500400Y-116687600D01*
G37*
G36*
X106138100Y-116647100D02*
G01*
X100134900Y-116647100D01*
X100134900Y-115243900D01*
X106138100Y-115243900D01*
X106138100Y-116647100D01*
X106138100Y-116647100D01*
G37*
G36*
X78126000Y-116526000D02*
G01*
X76274000Y-116526000D01*
X76274000Y-115724000D01*
X76399001Y-115724000D01*
X76423387Y-115721598D01*
X76446836Y-115714485D01*
X76468447Y-115702934D01*
X76487389Y-115687389D01*
X76502934Y-115668447D01*
X76514485Y-115646836D01*
X76521598Y-115623387D01*
X76524000Y-115599001D01*
X76524000Y-114224000D01*
X78126000Y-114224000D01*
X78126000Y-116526000D01*
X78126000Y-116526000D01*
G37*
G36*
X86976000Y-115776000D02*
G01*
X85874000Y-115776000D01*
X85874000Y-115250999D01*
X85871598Y-115226613D01*
X85864485Y-115203164D01*
X85852934Y-115181553D01*
X85837389Y-115162611D01*
X85818447Y-115147066D01*
X85796836Y-115135515D01*
X85773387Y-115128402D01*
X85749001Y-115126000D01*
X84124000Y-115126000D01*
X84124000Y-114224000D01*
X86976000Y-114224000D01*
X86976000Y-115776000D01*
X86976000Y-115776000D01*
G37*
G36*
X84038674Y-109988465D02*
G01*
X84076367Y-109999899D01*
X84111103Y-110018466D01*
X84141548Y-110043452D01*
X84166534Y-110073897D01*
X84185101Y-110108633D01*
X84196535Y-110146326D01*
X84201000Y-110191661D01*
X84201000Y-111278339D01*
X84196535Y-111323674D01*
X84185101Y-111361367D01*
X84166534Y-111396103D01*
X84141548Y-111426548D01*
X84111103Y-111451534D01*
X84076367Y-111470101D01*
X84038674Y-111481535D01*
X83993339Y-111486000D01*
X83156661Y-111486000D01*
X83111326Y-111481535D01*
X83073633Y-111470101D01*
X83038897Y-111451534D01*
X83008452Y-111426548D01*
X82983466Y-111396103D01*
X82964899Y-111361367D01*
X82953465Y-111323674D01*
X82949000Y-111278339D01*
X82949000Y-110191661D01*
X82953465Y-110146326D01*
X82964899Y-110108633D01*
X82983466Y-110073897D01*
X83008452Y-110043452D01*
X83038897Y-110018466D01*
X83073633Y-109999899D01*
X83111326Y-109988465D01*
X83156661Y-109984000D01*
X83993339Y-109984000D01*
X84038674Y-109988465D01*
X84038674Y-109988465D01*
G37*
G36*
X81988674Y-109988465D02*
G01*
X82026367Y-109999899D01*
X82061103Y-110018466D01*
X82091548Y-110043452D01*
X82116534Y-110073897D01*
X82135101Y-110108633D01*
X82146535Y-110146326D01*
X82151000Y-110191661D01*
X82151000Y-111278339D01*
X82146535Y-111323674D01*
X82135101Y-111361367D01*
X82116534Y-111396103D01*
X82091548Y-111426548D01*
X82061103Y-111451534D01*
X82026367Y-111470101D01*
X81988674Y-111481535D01*
X81943339Y-111486000D01*
X81106661Y-111486000D01*
X81061326Y-111481535D01*
X81023633Y-111470101D01*
X80988897Y-111451534D01*
X80958452Y-111426548D01*
X80933466Y-111396103D01*
X80914899Y-111361367D01*
X80903465Y-111323674D01*
X80899000Y-111278339D01*
X80899000Y-110191661D01*
X80903465Y-110146326D01*
X80914899Y-110108633D01*
X80933466Y-110073897D01*
X80958452Y-110043452D01*
X80988897Y-110018466D01*
X81023633Y-109999899D01*
X81061326Y-109988465D01*
X81106661Y-109984000D01*
X81943339Y-109984000D01*
X81988674Y-109988465D01*
X81988674Y-109988465D01*
G37*
G36*
X117500400Y-111048800D02*
G01*
X111099600Y-111048800D01*
X111099600Y-109372400D01*
X117500400Y-109372400D01*
X117500400Y-111048800D01*
X117500400Y-111048800D01*
G37*
G36*
X92476968Y-108473565D02*
G01*
X92515638Y-108485296D01*
X92551277Y-108504346D01*
X92582517Y-108529983D01*
X92608154Y-108561223D01*
X92627204Y-108596862D01*
X92638935Y-108635532D01*
X92643500Y-108681888D01*
X92643500Y-109758112D01*
X92638935Y-109804468D01*
X92627204Y-109843138D01*
X92608154Y-109878777D01*
X92582517Y-109910017D01*
X92551277Y-109935654D01*
X92515638Y-109954704D01*
X92476968Y-109966435D01*
X92430612Y-109971000D01*
X91779388Y-109971000D01*
X91733032Y-109966435D01*
X91694362Y-109954704D01*
X91658723Y-109935654D01*
X91627483Y-109910017D01*
X91601846Y-109878777D01*
X91582796Y-109843138D01*
X91571065Y-109804468D01*
X91566500Y-109758112D01*
X91566500Y-108681888D01*
X91571065Y-108635532D01*
X91582796Y-108596862D01*
X91601846Y-108561223D01*
X91627483Y-108529983D01*
X91658723Y-108504346D01*
X91694362Y-108485296D01*
X91733032Y-108473565D01*
X91779388Y-108469000D01*
X92430612Y-108469000D01*
X92476968Y-108473565D01*
X92476968Y-108473565D01*
G37*
G36*
X88338674Y-108473465D02*
G01*
X88376367Y-108484899D01*
X88411103Y-108503466D01*
X88441548Y-108528452D01*
X88466534Y-108558897D01*
X88485101Y-108593633D01*
X88496535Y-108631326D01*
X88501000Y-108676661D01*
X88501000Y-109763339D01*
X88496535Y-109808674D01*
X88485101Y-109846367D01*
X88466534Y-109881103D01*
X88441548Y-109911548D01*
X88411103Y-109936534D01*
X88376367Y-109955101D01*
X88338674Y-109966535D01*
X88293339Y-109971000D01*
X87456661Y-109971000D01*
X87411326Y-109966535D01*
X87373633Y-109955101D01*
X87338897Y-109936534D01*
X87308452Y-109911548D01*
X87283466Y-109881103D01*
X87264899Y-109846367D01*
X87253465Y-109808674D01*
X87249000Y-109763339D01*
X87249000Y-108676661D01*
X87253465Y-108631326D01*
X87264899Y-108593633D01*
X87283466Y-108558897D01*
X87308452Y-108528452D01*
X87338897Y-108503466D01*
X87373633Y-108484899D01*
X87411326Y-108473465D01*
X87456661Y-108469000D01*
X88293339Y-108469000D01*
X88338674Y-108473465D01*
X88338674Y-108473465D01*
G37*
G36*
X90388674Y-108473465D02*
G01*
X90426367Y-108484899D01*
X90461103Y-108503466D01*
X90491548Y-108528452D01*
X90516534Y-108558897D01*
X90535101Y-108593633D01*
X90546535Y-108631326D01*
X90551000Y-108676661D01*
X90551000Y-109763339D01*
X90546535Y-109808674D01*
X90535101Y-109846367D01*
X90516534Y-109881103D01*
X90491548Y-109911548D01*
X90461103Y-109936534D01*
X90426367Y-109955101D01*
X90388674Y-109966535D01*
X90343339Y-109971000D01*
X89506661Y-109971000D01*
X89461326Y-109966535D01*
X89423633Y-109955101D01*
X89388897Y-109936534D01*
X89358452Y-109911548D01*
X89333466Y-109881103D01*
X89314899Y-109846367D01*
X89303465Y-109808674D01*
X89299000Y-109763339D01*
X89299000Y-108676661D01*
X89303465Y-108631326D01*
X89314899Y-108593633D01*
X89333466Y-108558897D01*
X89358452Y-108528452D01*
X89388897Y-108503466D01*
X89423633Y-108484899D01*
X89461326Y-108473465D01*
X89506661Y-108469000D01*
X90343339Y-108469000D01*
X90388674Y-108473465D01*
X90388674Y-108473465D01*
G37*
G36*
X94351968Y-108473565D02*
G01*
X94390638Y-108485296D01*
X94426277Y-108504346D01*
X94457517Y-108529983D01*
X94483154Y-108561223D01*
X94502204Y-108596862D01*
X94513935Y-108635532D01*
X94518500Y-108681888D01*
X94518500Y-109758112D01*
X94513935Y-109804468D01*
X94502204Y-109843138D01*
X94483154Y-109878777D01*
X94457517Y-109910017D01*
X94426277Y-109935654D01*
X94390638Y-109954704D01*
X94351968Y-109966435D01*
X94305612Y-109971000D01*
X93654388Y-109971000D01*
X93608032Y-109966435D01*
X93569362Y-109954704D01*
X93533723Y-109935654D01*
X93502483Y-109910017D01*
X93476846Y-109878777D01*
X93457796Y-109843138D01*
X93446065Y-109804468D01*
X93441500Y-109758112D01*
X93441500Y-108681888D01*
X93446065Y-108635532D01*
X93457796Y-108596862D01*
X93476846Y-108561223D01*
X93502483Y-108529983D01*
X93533723Y-108504346D01*
X93569362Y-108485296D01*
X93608032Y-108473565D01*
X93654388Y-108469000D01*
X94305612Y-108469000D01*
X94351968Y-108473565D01*
X94351968Y-108473565D01*
G37*
G36*
X107268674Y-107328465D02*
G01*
X107306367Y-107339899D01*
X107341103Y-107358466D01*
X107371548Y-107383452D01*
X107396534Y-107413897D01*
X107415101Y-107448633D01*
X107426535Y-107486326D01*
X107431000Y-107531661D01*
X107431000Y-108368339D01*
X107426535Y-108413674D01*
X107415101Y-108451367D01*
X107396534Y-108486103D01*
X107371548Y-108516548D01*
X107341103Y-108541534D01*
X107306367Y-108560101D01*
X107268674Y-108571535D01*
X107223339Y-108576000D01*
X106136661Y-108576000D01*
X106091326Y-108571535D01*
X106053633Y-108560101D01*
X106018897Y-108541534D01*
X105988452Y-108516548D01*
X105963466Y-108486103D01*
X105944899Y-108451367D01*
X105933465Y-108413674D01*
X105929000Y-108368339D01*
X105929000Y-107531661D01*
X105933465Y-107486326D01*
X105944899Y-107448633D01*
X105963466Y-107413897D01*
X105988452Y-107383452D01*
X106018897Y-107358466D01*
X106053633Y-107339899D01*
X106091326Y-107328465D01*
X106136661Y-107324000D01*
X107223339Y-107324000D01*
X107268674Y-107328465D01*
X107268674Y-107328465D01*
G37*
G36*
X88338674Y-105933465D02*
G01*
X88376367Y-105944899D01*
X88411103Y-105963466D01*
X88441548Y-105988452D01*
X88466534Y-106018897D01*
X88485101Y-106053633D01*
X88496535Y-106091326D01*
X88501000Y-106136661D01*
X88501000Y-107223339D01*
X88496535Y-107268674D01*
X88485101Y-107306367D01*
X88466534Y-107341103D01*
X88441548Y-107371548D01*
X88411103Y-107396534D01*
X88376367Y-107415101D01*
X88338674Y-107426535D01*
X88293339Y-107431000D01*
X87456661Y-107431000D01*
X87411326Y-107426535D01*
X87373633Y-107415101D01*
X87338897Y-107396534D01*
X87308452Y-107371548D01*
X87283466Y-107341103D01*
X87264899Y-107306367D01*
X87253465Y-107268674D01*
X87249000Y-107223339D01*
X87249000Y-106136661D01*
X87253465Y-106091326D01*
X87264899Y-106053633D01*
X87283466Y-106018897D01*
X87308452Y-105988452D01*
X87338897Y-105963466D01*
X87373633Y-105944899D01*
X87411326Y-105933465D01*
X87456661Y-105929000D01*
X88293339Y-105929000D01*
X88338674Y-105933465D01*
X88338674Y-105933465D01*
G37*
G36*
X114701968Y-105933565D02*
G01*
X114740638Y-105945296D01*
X114776277Y-105964346D01*
X114807517Y-105989983D01*
X114833154Y-106021223D01*
X114852204Y-106056862D01*
X114863935Y-106095532D01*
X114868500Y-106141888D01*
X114868500Y-107218112D01*
X114863935Y-107264468D01*
X114852204Y-107303138D01*
X114833154Y-107338777D01*
X114807517Y-107370017D01*
X114776277Y-107395654D01*
X114740638Y-107414704D01*
X114701968Y-107426435D01*
X114655612Y-107431000D01*
X114004388Y-107431000D01*
X113958032Y-107426435D01*
X113919362Y-107414704D01*
X113883723Y-107395654D01*
X113852483Y-107370017D01*
X113826846Y-107338777D01*
X113807796Y-107303138D01*
X113796065Y-107264468D01*
X113791500Y-107218112D01*
X113791500Y-106141888D01*
X113796065Y-106095532D01*
X113807796Y-106056862D01*
X113826846Y-106021223D01*
X113852483Y-105989983D01*
X113883723Y-105964346D01*
X113919362Y-105945296D01*
X113958032Y-105933565D01*
X114004388Y-105929000D01*
X114655612Y-105929000D01*
X114701968Y-105933565D01*
X114701968Y-105933565D01*
G37*
G36*
X112736968Y-105933565D02*
G01*
X112775638Y-105945296D01*
X112811277Y-105964346D01*
X112842517Y-105989983D01*
X112868154Y-106021223D01*
X112887204Y-106056862D01*
X112898935Y-106095532D01*
X112903500Y-106141888D01*
X112903500Y-107218112D01*
X112898935Y-107264468D01*
X112887204Y-107303138D01*
X112868154Y-107338777D01*
X112842517Y-107370017D01*
X112811277Y-107395654D01*
X112775638Y-107414704D01*
X112736968Y-107426435D01*
X112690612Y-107431000D01*
X112039388Y-107431000D01*
X111993032Y-107426435D01*
X111954362Y-107414704D01*
X111918723Y-107395654D01*
X111887483Y-107370017D01*
X111861846Y-107338777D01*
X111842796Y-107303138D01*
X111831065Y-107264468D01*
X111826500Y-107218112D01*
X111826500Y-106141888D01*
X111831065Y-106095532D01*
X111842796Y-106056862D01*
X111861846Y-106021223D01*
X111887483Y-105989983D01*
X111918723Y-105964346D01*
X111954362Y-105945296D01*
X111993032Y-105933565D01*
X112039388Y-105929000D01*
X112690612Y-105929000D01*
X112736968Y-105933565D01*
X112736968Y-105933565D01*
G37*
G36*
X90388674Y-105933465D02*
G01*
X90426367Y-105944899D01*
X90461103Y-105963466D01*
X90491548Y-105988452D01*
X90516534Y-106018897D01*
X90535101Y-106053633D01*
X90546535Y-106091326D01*
X90551000Y-106136661D01*
X90551000Y-107223339D01*
X90546535Y-107268674D01*
X90535101Y-107306367D01*
X90516534Y-107341103D01*
X90491548Y-107371548D01*
X90461103Y-107396534D01*
X90426367Y-107415101D01*
X90388674Y-107426535D01*
X90343339Y-107431000D01*
X89506661Y-107431000D01*
X89461326Y-107426535D01*
X89423633Y-107415101D01*
X89388897Y-107396534D01*
X89358452Y-107371548D01*
X89333466Y-107341103D01*
X89314899Y-107306367D01*
X89303465Y-107268674D01*
X89299000Y-107223339D01*
X89299000Y-106136661D01*
X89303465Y-106091326D01*
X89314899Y-106053633D01*
X89333466Y-106018897D01*
X89358452Y-105988452D01*
X89388897Y-105963466D01*
X89423633Y-105944899D01*
X89461326Y-105933465D01*
X89506661Y-105929000D01*
X90343339Y-105929000D01*
X90388674Y-105933465D01*
X90388674Y-105933465D01*
G37*
G36*
X110861968Y-105933565D02*
G01*
X110900638Y-105945296D01*
X110936277Y-105964346D01*
X110967517Y-105989983D01*
X110993154Y-106021223D01*
X111012204Y-106056862D01*
X111023935Y-106095532D01*
X111028500Y-106141888D01*
X111028500Y-107218112D01*
X111023935Y-107264468D01*
X111012204Y-107303138D01*
X110993154Y-107338777D01*
X110967517Y-107370017D01*
X110936277Y-107395654D01*
X110900638Y-107414704D01*
X110861968Y-107426435D01*
X110815612Y-107431000D01*
X110164388Y-107431000D01*
X110118032Y-107426435D01*
X110079362Y-107414704D01*
X110043723Y-107395654D01*
X110012483Y-107370017D01*
X109986846Y-107338777D01*
X109967796Y-107303138D01*
X109956065Y-107264468D01*
X109951500Y-107218112D01*
X109951500Y-106141888D01*
X109956065Y-106095532D01*
X109967796Y-106056862D01*
X109986846Y-106021223D01*
X110012483Y-105989983D01*
X110043723Y-105964346D01*
X110079362Y-105945296D01*
X110118032Y-105933565D01*
X110164388Y-105929000D01*
X110815612Y-105929000D01*
X110861968Y-105933565D01*
X110861968Y-105933565D01*
G37*
G36*
X116576968Y-105933565D02*
G01*
X116615638Y-105945296D01*
X116651277Y-105964346D01*
X116682517Y-105989983D01*
X116708154Y-106021223D01*
X116727204Y-106056862D01*
X116738935Y-106095532D01*
X116743500Y-106141888D01*
X116743500Y-107218112D01*
X116738935Y-107264468D01*
X116727204Y-107303138D01*
X116708154Y-107338777D01*
X116682517Y-107370017D01*
X116651277Y-107395654D01*
X116615638Y-107414704D01*
X116576968Y-107426435D01*
X116530612Y-107431000D01*
X115879388Y-107431000D01*
X115833032Y-107426435D01*
X115794362Y-107414704D01*
X115758723Y-107395654D01*
X115727483Y-107370017D01*
X115701846Y-107338777D01*
X115682796Y-107303138D01*
X115671065Y-107264468D01*
X115666500Y-107218112D01*
X115666500Y-106141888D01*
X115671065Y-106095532D01*
X115682796Y-106056862D01*
X115701846Y-106021223D01*
X115727483Y-105989983D01*
X115758723Y-105964346D01*
X115794362Y-105945296D01*
X115833032Y-105933565D01*
X115879388Y-105929000D01*
X116530612Y-105929000D01*
X116576968Y-105933565D01*
X116576968Y-105933565D01*
G37*
G36*
X125206000Y-106596000D02*
G01*
X124104000Y-106596000D01*
X124104000Y-104944000D01*
X125206000Y-104944000D01*
X125206000Y-106596000D01*
X125206000Y-106596000D01*
G37*
G36*
X128406000Y-106596000D02*
G01*
X127304000Y-106596000D01*
X127304000Y-104944000D01*
X128406000Y-104944000D01*
X128406000Y-106596000D01*
X128406000Y-106596000D01*
G37*
G36*
X107268674Y-105278465D02*
G01*
X107306367Y-105289899D01*
X107341103Y-105308466D01*
X107371548Y-105333452D01*
X107396534Y-105363897D01*
X107415101Y-105398633D01*
X107426535Y-105436326D01*
X107431000Y-105481661D01*
X107431000Y-106318339D01*
X107426535Y-106363674D01*
X107415101Y-106401367D01*
X107396534Y-106436103D01*
X107371548Y-106466548D01*
X107341103Y-106491534D01*
X107306367Y-106510101D01*
X107268674Y-106521535D01*
X107223339Y-106526000D01*
X106136661Y-106526000D01*
X106091326Y-106521535D01*
X106053633Y-106510101D01*
X106018897Y-106491534D01*
X105988452Y-106466548D01*
X105963466Y-106436103D01*
X105944899Y-106401367D01*
X105933465Y-106363674D01*
X105929000Y-106318339D01*
X105929000Y-105481661D01*
X105933465Y-105436326D01*
X105944899Y-105398633D01*
X105963466Y-105363897D01*
X105988452Y-105333452D01*
X106018897Y-105308466D01*
X106053633Y-105289899D01*
X106091326Y-105278465D01*
X106136661Y-105274000D01*
X107223339Y-105274000D01*
X107268674Y-105278465D01*
X107268674Y-105278465D01*
G37*
G36*
X90488674Y-104028465D02*
G01*
X90526367Y-104039899D01*
X90561103Y-104058466D01*
X90591548Y-104083452D01*
X90616534Y-104113897D01*
X90635101Y-104148633D01*
X90646535Y-104186326D01*
X90651000Y-104231661D01*
X90651000Y-105318339D01*
X90646535Y-105363674D01*
X90635101Y-105401367D01*
X90616534Y-105436103D01*
X90591548Y-105466548D01*
X90561103Y-105491534D01*
X90526367Y-105510101D01*
X90488674Y-105521535D01*
X90443339Y-105526000D01*
X89606661Y-105526000D01*
X89561326Y-105521535D01*
X89523633Y-105510101D01*
X89488897Y-105491534D01*
X89458452Y-105466548D01*
X89433466Y-105436103D01*
X89414899Y-105401367D01*
X89403465Y-105363674D01*
X89399000Y-105318339D01*
X89399000Y-104231661D01*
X89403465Y-104186326D01*
X89414899Y-104148633D01*
X89433466Y-104113897D01*
X89458452Y-104083452D01*
X89488897Y-104058466D01*
X89523633Y-104039899D01*
X89561326Y-104028465D01*
X89606661Y-104024000D01*
X90443339Y-104024000D01*
X90488674Y-104028465D01*
X90488674Y-104028465D01*
G37*
G36*
X92538674Y-104028465D02*
G01*
X92576367Y-104039899D01*
X92611103Y-104058466D01*
X92641548Y-104083452D01*
X92666534Y-104113897D01*
X92685101Y-104148633D01*
X92696535Y-104186326D01*
X92701000Y-104231661D01*
X92701000Y-105318339D01*
X92696535Y-105363674D01*
X92685101Y-105401367D01*
X92666534Y-105436103D01*
X92641548Y-105466548D01*
X92611103Y-105491534D01*
X92576367Y-105510101D01*
X92538674Y-105521535D01*
X92493339Y-105526000D01*
X91656661Y-105526000D01*
X91611326Y-105521535D01*
X91573633Y-105510101D01*
X91538897Y-105491534D01*
X91508452Y-105466548D01*
X91483466Y-105436103D01*
X91464899Y-105401367D01*
X91453465Y-105363674D01*
X91449000Y-105318339D01*
X91449000Y-104231661D01*
X91453465Y-104186326D01*
X91464899Y-104148633D01*
X91483466Y-104113897D01*
X91508452Y-104083452D01*
X91538897Y-104058466D01*
X91573633Y-104039899D01*
X91611326Y-104028465D01*
X91656661Y-104024000D01*
X92493339Y-104024000D01*
X92538674Y-104028465D01*
X92538674Y-104028465D01*
G37*
G36*
X111194468Y-103393565D02*
G01*
X111233138Y-103405296D01*
X111268777Y-103424346D01*
X111300017Y-103449983D01*
X111325654Y-103481223D01*
X111344704Y-103516862D01*
X111356435Y-103555532D01*
X111361000Y-103601888D01*
X111361000Y-104678112D01*
X111356435Y-104724468D01*
X111344704Y-104763138D01*
X111325654Y-104798777D01*
X111300017Y-104830017D01*
X111268777Y-104855654D01*
X111233138Y-104874704D01*
X111194468Y-104886435D01*
X111148112Y-104891000D01*
X110496888Y-104891000D01*
X110450532Y-104886435D01*
X110411862Y-104874704D01*
X110376223Y-104855654D01*
X110344983Y-104830017D01*
X110319346Y-104798777D01*
X110300296Y-104763138D01*
X110288565Y-104724468D01*
X110284000Y-104678112D01*
X110284000Y-103601888D01*
X110288565Y-103555532D01*
X110300296Y-103516862D01*
X110319346Y-103481223D01*
X110344983Y-103449983D01*
X110376223Y-103424346D01*
X110411862Y-103405296D01*
X110450532Y-103393565D01*
X110496888Y-103389000D01*
X111148112Y-103389000D01*
X111194468Y-103393565D01*
X111194468Y-103393565D01*
G37*
G36*
X113069468Y-103393565D02*
G01*
X113108138Y-103405296D01*
X113143777Y-103424346D01*
X113175017Y-103449983D01*
X113200654Y-103481223D01*
X113219704Y-103516862D01*
X113231435Y-103555532D01*
X113236000Y-103601888D01*
X113236000Y-104678112D01*
X113231435Y-104724468D01*
X113219704Y-104763138D01*
X113200654Y-104798777D01*
X113175017Y-104830017D01*
X113143777Y-104855654D01*
X113108138Y-104874704D01*
X113069468Y-104886435D01*
X113023112Y-104891000D01*
X112371888Y-104891000D01*
X112325532Y-104886435D01*
X112286862Y-104874704D01*
X112251223Y-104855654D01*
X112219983Y-104830017D01*
X112194346Y-104798777D01*
X112175296Y-104763138D01*
X112163565Y-104724468D01*
X112159000Y-104678112D01*
X112159000Y-103601888D01*
X112163565Y-103555532D01*
X112175296Y-103516862D01*
X112194346Y-103481223D01*
X112219983Y-103449983D01*
X112251223Y-103424346D01*
X112286862Y-103405296D01*
X112325532Y-103393565D01*
X112371888Y-103389000D01*
X113023112Y-103389000D01*
X113069468Y-103393565D01*
X113069468Y-103393565D01*
G37*
G36*
X116576968Y-103393565D02*
G01*
X116615638Y-103405296D01*
X116651277Y-103424346D01*
X116682517Y-103449983D01*
X116708154Y-103481223D01*
X116727204Y-103516862D01*
X116738935Y-103555532D01*
X116743500Y-103601888D01*
X116743500Y-104678112D01*
X116738935Y-104724468D01*
X116727204Y-104763138D01*
X116708154Y-104798777D01*
X116682517Y-104830017D01*
X116651277Y-104855654D01*
X116615638Y-104874704D01*
X116576968Y-104886435D01*
X116530612Y-104891000D01*
X115879388Y-104891000D01*
X115833032Y-104886435D01*
X115794362Y-104874704D01*
X115758723Y-104855654D01*
X115727483Y-104830017D01*
X115701846Y-104798777D01*
X115682796Y-104763138D01*
X115671065Y-104724468D01*
X115666500Y-104678112D01*
X115666500Y-103601888D01*
X115671065Y-103555532D01*
X115682796Y-103516862D01*
X115701846Y-103481223D01*
X115727483Y-103449983D01*
X115758723Y-103424346D01*
X115794362Y-103405296D01*
X115833032Y-103393565D01*
X115879388Y-103389000D01*
X116530612Y-103389000D01*
X116576968Y-103393565D01*
X116576968Y-103393565D01*
G37*
G36*
X114701968Y-103393565D02*
G01*
X114740638Y-103405296D01*
X114776277Y-103424346D01*
X114807517Y-103449983D01*
X114833154Y-103481223D01*
X114852204Y-103516862D01*
X114863935Y-103555532D01*
X114868500Y-103601888D01*
X114868500Y-104678112D01*
X114863935Y-104724468D01*
X114852204Y-104763138D01*
X114833154Y-104798777D01*
X114807517Y-104830017D01*
X114776277Y-104855654D01*
X114740638Y-104874704D01*
X114701968Y-104886435D01*
X114655612Y-104891000D01*
X114004388Y-104891000D01*
X113958032Y-104886435D01*
X113919362Y-104874704D01*
X113883723Y-104855654D01*
X113852483Y-104830017D01*
X113826846Y-104798777D01*
X113807796Y-104763138D01*
X113796065Y-104724468D01*
X113791500Y-104678112D01*
X113791500Y-103601888D01*
X113796065Y-103555532D01*
X113807796Y-103516862D01*
X113826846Y-103481223D01*
X113852483Y-103449983D01*
X113883723Y-103424346D01*
X113919362Y-103405296D01*
X113958032Y-103393565D01*
X114004388Y-103389000D01*
X114655612Y-103389000D01*
X114701968Y-103393565D01*
X114701968Y-103393565D01*
G37*
G36*
X97108674Y-102003465D02*
G01*
X97146367Y-102014899D01*
X97181103Y-102033466D01*
X97211548Y-102058452D01*
X97236534Y-102088897D01*
X97255101Y-102123633D01*
X97266535Y-102161326D01*
X97271000Y-102206661D01*
X97271000Y-103043339D01*
X97266535Y-103088674D01*
X97255101Y-103126367D01*
X97236534Y-103161103D01*
X97211548Y-103191548D01*
X97181103Y-103216534D01*
X97146367Y-103235101D01*
X97108674Y-103246535D01*
X97063339Y-103251000D01*
X95976661Y-103251000D01*
X95931326Y-103246535D01*
X95893633Y-103235101D01*
X95858897Y-103216534D01*
X95828452Y-103191548D01*
X95803466Y-103161103D01*
X95784899Y-103126367D01*
X95773465Y-103088674D01*
X95769000Y-103043339D01*
X95769000Y-102206661D01*
X95773465Y-102161326D01*
X95784899Y-102123633D01*
X95803466Y-102088897D01*
X95828452Y-102058452D01*
X95858897Y-102033466D01*
X95893633Y-102014899D01*
X95931326Y-102003465D01*
X95976661Y-101999000D01*
X97063339Y-101999000D01*
X97108674Y-102003465D01*
X97108674Y-102003465D01*
G37*
G36*
X87635800Y-102280900D02*
G01*
X86984200Y-102280900D01*
X86984200Y-100979300D01*
X87635800Y-100979300D01*
X87635800Y-102280900D01*
X87635800Y-102280900D01*
G37*
G36*
X85735800Y-102280900D02*
G01*
X85084200Y-102280900D01*
X85084200Y-100979300D01*
X85735800Y-100979300D01*
X85735800Y-102280900D01*
X85735800Y-102280900D01*
G37*
G36*
X86685800Y-102280900D02*
G01*
X86034200Y-102280900D01*
X86034200Y-100979300D01*
X86685800Y-100979300D01*
X86685800Y-102280900D01*
X86685800Y-102280900D01*
G37*
G36*
X110876000Y-101571000D02*
G01*
X105024000Y-101571000D01*
X105024000Y-100169000D01*
X110876000Y-100169000D01*
X110876000Y-101571000D01*
X110876000Y-101571000D01*
G37*
G36*
X97108674Y-99953465D02*
G01*
X97146367Y-99964899D01*
X97181103Y-99983466D01*
X97211548Y-100008452D01*
X97236534Y-100038897D01*
X97255101Y-100073633D01*
X97266535Y-100111326D01*
X97271000Y-100156661D01*
X97271000Y-100993339D01*
X97266535Y-101038674D01*
X97255101Y-101076367D01*
X97236534Y-101111103D01*
X97211548Y-101141548D01*
X97181103Y-101166534D01*
X97146367Y-101185101D01*
X97108674Y-101196535D01*
X97063339Y-101201000D01*
X95976661Y-101201000D01*
X95931326Y-101196535D01*
X95893633Y-101185101D01*
X95858897Y-101166534D01*
X95828452Y-101141548D01*
X95803466Y-101111103D01*
X95784899Y-101076367D01*
X95773465Y-101038674D01*
X95769000Y-100993339D01*
X95769000Y-100156661D01*
X95773465Y-100111326D01*
X95784899Y-100073633D01*
X95803466Y-100038897D01*
X95828452Y-100008452D01*
X95858897Y-99983466D01*
X95893633Y-99964899D01*
X95931326Y-99953465D01*
X95976661Y-99949000D01*
X97063339Y-99949000D01*
X97108674Y-99953465D01*
X97108674Y-99953465D01*
G37*
G36*
X128406000Y-101196000D02*
G01*
X127304000Y-101196000D01*
X127304000Y-99544000D01*
X128406000Y-99544000D01*
X128406000Y-101196000D01*
X128406000Y-101196000D01*
G37*
G36*
X125206000Y-101196000D02*
G01*
X124104000Y-101196000D01*
X124104000Y-99544000D01*
X125206000Y-99544000D01*
X125206000Y-101196000D01*
X125206000Y-101196000D01*
G37*
G36*
X87635800Y-99680700D02*
G01*
X86984200Y-99680700D01*
X86984200Y-98379100D01*
X87635800Y-98379100D01*
X87635800Y-99680700D01*
X87635800Y-99680700D01*
G37*
G36*
X85735800Y-99680700D02*
G01*
X85084200Y-99680700D01*
X85084200Y-98379100D01*
X85735800Y-98379100D01*
X85735800Y-99680700D01*
X85735800Y-99680700D01*
G37*
G36*
X104159502Y-93596547D02*
G01*
X104192678Y-93606611D01*
X104223254Y-93622954D01*
X104250053Y-93644947D01*
X104272046Y-93671746D01*
X104288389Y-93702322D01*
X104298453Y-93735498D01*
X104301851Y-93770000D01*
X104298453Y-93804502D01*
X104288389Y-93837678D01*
X104272046Y-93868254D01*
X104254443Y-93889703D01*
X104240830Y-93910077D01*
X104231452Y-93932716D01*
X104226672Y-93956749D01*
X104226672Y-93981253D01*
X104231453Y-94005287D01*
X104240830Y-94027925D01*
X104254444Y-94048300D01*
X104271771Y-94065627D01*
X104292145Y-94079240D01*
X104301000Y-94082908D01*
X104301000Y-99446000D01*
X102899000Y-99446000D01*
X102899000Y-94083291D01*
X102918377Y-94072934D01*
X102937319Y-94057389D01*
X102952864Y-94038447D01*
X102964415Y-94016836D01*
X102971528Y-93993387D01*
X102973930Y-93969001D01*
X102971528Y-93944615D01*
X102964415Y-93921166D01*
X102945557Y-93889703D01*
X102927954Y-93868254D01*
X102911611Y-93837678D01*
X102901547Y-93804502D01*
X102898149Y-93770000D01*
X102901547Y-93735498D01*
X102911611Y-93702322D01*
X102927954Y-93671746D01*
X102949947Y-93644947D01*
X102976746Y-93622954D01*
X103007322Y-93606611D01*
X103040498Y-93596547D01*
X103066359Y-93594000D01*
X104133641Y-93594000D01*
X104159502Y-93596547D01*
X104159502Y-93596547D01*
G37*
G36*
X113001000Y-99446000D02*
G01*
X111599000Y-99446000D01*
X111599000Y-93594000D01*
X113001000Y-93594000D01*
X113001000Y-99446000D01*
X113001000Y-99446000D01*
G37*
G36*
X99041000Y-99271000D02*
G01*
X96539000Y-99271000D01*
X96539000Y-97469000D01*
X99041000Y-97469000D01*
X99041000Y-99271000D01*
X99041000Y-99271000D01*
G37*
G36*
X94568674Y-95653465D02*
G01*
X94606367Y-95664899D01*
X94641103Y-95683466D01*
X94671548Y-95708452D01*
X94696534Y-95738897D01*
X94715101Y-95773633D01*
X94726535Y-95811326D01*
X94731000Y-95856661D01*
X94731000Y-96693339D01*
X94726535Y-96738674D01*
X94715101Y-96776367D01*
X94696534Y-96811103D01*
X94671548Y-96841548D01*
X94641103Y-96866534D01*
X94606367Y-96885101D01*
X94568674Y-96896535D01*
X94523339Y-96901000D01*
X93436661Y-96901000D01*
X93391326Y-96896535D01*
X93353633Y-96885101D01*
X93318897Y-96866534D01*
X93288452Y-96841548D01*
X93263466Y-96811103D01*
X93244899Y-96776367D01*
X93233465Y-96738674D01*
X93229000Y-96693339D01*
X93229000Y-95856661D01*
X93233465Y-95811326D01*
X93244899Y-95773633D01*
X93263466Y-95738897D01*
X93288452Y-95708452D01*
X93318897Y-95683466D01*
X93353633Y-95664899D01*
X93391326Y-95653465D01*
X93436661Y-95649000D01*
X94523339Y-95649000D01*
X94568674Y-95653465D01*
X94568674Y-95653465D01*
G37*
G36*
X99041000Y-95571000D02*
G01*
X96539000Y-95571000D01*
X96539000Y-93769000D01*
X99041000Y-93769000D01*
X99041000Y-95571000D01*
X99041000Y-95571000D01*
G37*
G36*
X94568674Y-93603465D02*
G01*
X94606367Y-93614899D01*
X94641103Y-93633466D01*
X94671548Y-93658452D01*
X94696534Y-93688897D01*
X94715101Y-93723633D01*
X94726535Y-93761326D01*
X94731000Y-93806661D01*
X94731000Y-94643339D01*
X94726535Y-94688674D01*
X94715101Y-94726367D01*
X94696534Y-94761103D01*
X94671548Y-94791548D01*
X94641103Y-94816534D01*
X94606367Y-94835101D01*
X94568674Y-94846535D01*
X94523339Y-94851000D01*
X93436661Y-94851000D01*
X93391326Y-94846535D01*
X93353633Y-94835101D01*
X93318897Y-94816534D01*
X93288452Y-94791548D01*
X93263466Y-94761103D01*
X93244899Y-94726367D01*
X93233465Y-94688674D01*
X93229000Y-94643339D01*
X93229000Y-93806661D01*
X93233465Y-93761326D01*
X93244899Y-93723633D01*
X93263466Y-93688897D01*
X93288452Y-93658452D01*
X93318897Y-93633466D01*
X93353633Y-93614899D01*
X93391326Y-93603465D01*
X93436661Y-93599000D01*
X94523339Y-93599000D01*
X94568674Y-93603465D01*
X94568674Y-93603465D01*
G37*
G36*
X90633674Y-91963465D02*
G01*
X90671367Y-91974899D01*
X90706103Y-91993466D01*
X90736548Y-92018452D01*
X90761534Y-92048897D01*
X90780101Y-92083633D01*
X90791535Y-92121326D01*
X90796000Y-92166661D01*
X90796000Y-93253339D01*
X90791535Y-93298674D01*
X90780101Y-93336367D01*
X90761534Y-93371103D01*
X90736548Y-93401548D01*
X90706103Y-93426534D01*
X90671367Y-93445101D01*
X90633674Y-93456535D01*
X90588339Y-93461000D01*
X89751661Y-93461000D01*
X89706326Y-93456535D01*
X89668633Y-93445101D01*
X89633897Y-93426534D01*
X89603452Y-93401548D01*
X89578466Y-93371103D01*
X89559899Y-93336367D01*
X89548465Y-93298674D01*
X89544000Y-93253339D01*
X89544000Y-92166661D01*
X89548465Y-92121326D01*
X89559899Y-92083633D01*
X89578466Y-92048897D01*
X89603452Y-92018452D01*
X89633897Y-91993466D01*
X89668633Y-91974899D01*
X89706326Y-91963465D01*
X89751661Y-91959000D01*
X90588339Y-91959000D01*
X90633674Y-91963465D01*
X90633674Y-91963465D01*
G37*
G36*
X88583674Y-91963465D02*
G01*
X88621367Y-91974899D01*
X88656103Y-91993466D01*
X88686548Y-92018452D01*
X88711534Y-92048897D01*
X88730101Y-92083633D01*
X88741535Y-92121326D01*
X88746000Y-92166661D01*
X88746000Y-93253339D01*
X88741535Y-93298674D01*
X88730101Y-93336367D01*
X88711534Y-93371103D01*
X88686548Y-93401548D01*
X88656103Y-93426534D01*
X88621367Y-93445101D01*
X88583674Y-93456535D01*
X88538339Y-93461000D01*
X87701661Y-93461000D01*
X87656326Y-93456535D01*
X87618633Y-93445101D01*
X87583897Y-93426534D01*
X87553452Y-93401548D01*
X87528466Y-93371103D01*
X87509899Y-93336367D01*
X87498465Y-93298674D01*
X87494000Y-93253339D01*
X87494000Y-92166661D01*
X87498465Y-92121326D01*
X87509899Y-92083633D01*
X87528466Y-92048897D01*
X87553452Y-92018452D01*
X87583897Y-91993466D01*
X87618633Y-91974899D01*
X87656326Y-91963465D01*
X87701661Y-91959000D01*
X88538339Y-91959000D01*
X88583674Y-91963465D01*
X88583674Y-91963465D01*
G37*
G36*
X110876000Y-92871000D02*
G01*
X105024000Y-92871000D01*
X105024000Y-91469000D01*
X110876000Y-91469000D01*
X110876000Y-92871000D01*
X110876000Y-92871000D01*
G37*
G36*
X84283674Y-90693465D02*
G01*
X84321367Y-90704899D01*
X84356103Y-90723466D01*
X84386548Y-90748452D01*
X84411534Y-90778897D01*
X84430101Y-90813633D01*
X84441535Y-90851326D01*
X84446000Y-90896661D01*
X84446000Y-91983339D01*
X84441535Y-92028674D01*
X84430101Y-92066367D01*
X84411534Y-92101103D01*
X84386548Y-92131548D01*
X84356103Y-92156534D01*
X84321367Y-92175101D01*
X84283674Y-92186535D01*
X84238339Y-92191000D01*
X83401661Y-92191000D01*
X83356326Y-92186535D01*
X83318633Y-92175101D01*
X83283897Y-92156534D01*
X83253452Y-92131548D01*
X83228466Y-92101103D01*
X83209899Y-92066367D01*
X83198465Y-92028674D01*
X83194000Y-91983339D01*
X83194000Y-90896661D01*
X83198465Y-90851326D01*
X83209899Y-90813633D01*
X83228466Y-90778897D01*
X83253452Y-90748452D01*
X83283897Y-90723466D01*
X83318633Y-90704899D01*
X83356326Y-90693465D01*
X83401661Y-90689000D01*
X84238339Y-90689000D01*
X84283674Y-90693465D01*
X84283674Y-90693465D01*
G37*
G36*
X82233674Y-90693465D02*
G01*
X82271367Y-90704899D01*
X82306103Y-90723466D01*
X82336548Y-90748452D01*
X82361534Y-90778897D01*
X82380101Y-90813633D01*
X82391535Y-90851326D01*
X82396000Y-90896661D01*
X82396000Y-91983339D01*
X82391535Y-92028674D01*
X82380101Y-92066367D01*
X82361534Y-92101103D01*
X82336548Y-92131548D01*
X82306103Y-92156534D01*
X82271367Y-92175101D01*
X82233674Y-92186535D01*
X82188339Y-92191000D01*
X81351661Y-92191000D01*
X81306326Y-92186535D01*
X81268633Y-92175101D01*
X81233897Y-92156534D01*
X81203452Y-92131548D01*
X81178466Y-92101103D01*
X81159899Y-92066367D01*
X81148465Y-92028674D01*
X81144000Y-91983339D01*
X81144000Y-90896661D01*
X81148465Y-90851326D01*
X81159899Y-90813633D01*
X81178466Y-90778897D01*
X81203452Y-90748452D01*
X81233897Y-90723466D01*
X81268633Y-90704899D01*
X81306326Y-90693465D01*
X81351661Y-90689000D01*
X82188339Y-90689000D01*
X82233674Y-90693465D01*
X82233674Y-90693465D01*
G37*
G36*
X99768674Y-90693465D02*
G01*
X99806367Y-90704899D01*
X99841103Y-90723466D01*
X99871548Y-90748452D01*
X99896534Y-90778897D01*
X99915101Y-90813633D01*
X99926535Y-90851326D01*
X99931000Y-90896661D01*
X99931000Y-91983339D01*
X99926535Y-92028674D01*
X99915101Y-92066367D01*
X99896534Y-92101103D01*
X99871548Y-92131548D01*
X99841103Y-92156534D01*
X99806367Y-92175101D01*
X99768674Y-92186535D01*
X99723339Y-92191000D01*
X98886661Y-92191000D01*
X98841326Y-92186535D01*
X98803633Y-92175101D01*
X98768897Y-92156534D01*
X98738452Y-92131548D01*
X98713466Y-92101103D01*
X98694899Y-92066367D01*
X98683465Y-92028674D01*
X98679000Y-91983339D01*
X98679000Y-90896661D01*
X98683465Y-90851326D01*
X98694899Y-90813633D01*
X98713466Y-90778897D01*
X98738452Y-90748452D01*
X98768897Y-90723466D01*
X98803633Y-90704899D01*
X98841326Y-90693465D01*
X98886661Y-90689000D01*
X99723339Y-90689000D01*
X99768674Y-90693465D01*
X99768674Y-90693465D01*
G37*
G36*
X101818674Y-90693465D02*
G01*
X101856367Y-90704899D01*
X101891103Y-90723466D01*
X101921548Y-90748452D01*
X101946534Y-90778897D01*
X101965101Y-90813633D01*
X101976535Y-90851326D01*
X101981000Y-90896661D01*
X101981000Y-91983339D01*
X101976535Y-92028674D01*
X101965101Y-92066367D01*
X101946534Y-92101103D01*
X101921548Y-92131548D01*
X101891103Y-92156534D01*
X101856367Y-92175101D01*
X101818674Y-92186535D01*
X101773339Y-92191000D01*
X100936661Y-92191000D01*
X100891326Y-92186535D01*
X100853633Y-92175101D01*
X100818897Y-92156534D01*
X100788452Y-92131548D01*
X100763466Y-92101103D01*
X100744899Y-92066367D01*
X100733465Y-92028674D01*
X100729000Y-91983339D01*
X100729000Y-90896661D01*
X100733465Y-90851326D01*
X100744899Y-90813633D01*
X100763466Y-90778897D01*
X100788452Y-90748452D01*
X100818897Y-90723466D01*
X100853633Y-90704899D01*
X100891326Y-90693465D01*
X100936661Y-90689000D01*
X101773339Y-90689000D01*
X101818674Y-90693465D01*
X101818674Y-90693465D01*
G37*
G36*
X126583674Y-89169465D02*
G01*
X126621367Y-89180899D01*
X126656103Y-89199466D01*
X126686548Y-89224452D01*
X126711534Y-89254897D01*
X126730101Y-89289633D01*
X126741535Y-89327326D01*
X126746000Y-89372661D01*
X126746000Y-90459339D01*
X126741535Y-90504674D01*
X126730101Y-90542367D01*
X126711534Y-90577103D01*
X126686548Y-90607548D01*
X126656103Y-90632534D01*
X126621367Y-90651101D01*
X126583674Y-90662535D01*
X126538339Y-90667000D01*
X125701661Y-90667000D01*
X125656326Y-90662535D01*
X125618633Y-90651101D01*
X125583897Y-90632534D01*
X125553452Y-90607548D01*
X125528466Y-90577103D01*
X125509899Y-90542367D01*
X125498465Y-90504674D01*
X125494000Y-90459339D01*
X125494000Y-89372661D01*
X125498465Y-89327326D01*
X125509899Y-89289633D01*
X125528466Y-89254897D01*
X125553452Y-89224452D01*
X125583897Y-89199466D01*
X125618633Y-89180899D01*
X125656326Y-89169465D01*
X125701661Y-89165000D01*
X126538339Y-89165000D01*
X126583674Y-89169465D01*
X126583674Y-89169465D01*
G37*
G36*
X124533674Y-89169465D02*
G01*
X124571367Y-89180899D01*
X124606103Y-89199466D01*
X124636548Y-89224452D01*
X124661534Y-89254897D01*
X124680101Y-89289633D01*
X124691535Y-89327326D01*
X124696000Y-89372661D01*
X124696000Y-90459339D01*
X124691535Y-90504674D01*
X124680101Y-90542367D01*
X124661534Y-90577103D01*
X124636548Y-90607548D01*
X124606103Y-90632534D01*
X124571367Y-90651101D01*
X124533674Y-90662535D01*
X124488339Y-90667000D01*
X123651661Y-90667000D01*
X123606326Y-90662535D01*
X123568633Y-90651101D01*
X123533897Y-90632534D01*
X123503452Y-90607548D01*
X123478466Y-90577103D01*
X123459899Y-90542367D01*
X123448465Y-90504674D01*
X123444000Y-90459339D01*
X123444000Y-89372661D01*
X123448465Y-89327326D01*
X123459899Y-89289633D01*
X123478466Y-89254897D01*
X123503452Y-89224452D01*
X123533897Y-89199466D01*
X123568633Y-89180899D01*
X123606326Y-89169465D01*
X123651661Y-89165000D01*
X124488339Y-89165000D01*
X124533674Y-89169465D01*
X124533674Y-89169465D01*
G37*
G36*
X90758674Y-89303465D02*
G01*
X90796367Y-89314899D01*
X90831103Y-89333466D01*
X90861548Y-89358452D01*
X90886534Y-89388897D01*
X90905101Y-89423633D01*
X90916535Y-89461326D01*
X90921000Y-89506661D01*
X90921000Y-90343339D01*
X90916535Y-90388674D01*
X90905101Y-90426367D01*
X90886534Y-90461103D01*
X90861548Y-90491548D01*
X90831103Y-90516534D01*
X90796367Y-90535101D01*
X90758674Y-90546535D01*
X90713339Y-90551000D01*
X89626661Y-90551000D01*
X89581326Y-90546535D01*
X89543633Y-90535101D01*
X89508897Y-90516534D01*
X89478452Y-90491548D01*
X89453466Y-90461103D01*
X89434899Y-90426367D01*
X89423465Y-90388674D01*
X89419000Y-90343339D01*
X89419000Y-89506661D01*
X89423465Y-89461326D01*
X89434899Y-89423633D01*
X89453466Y-89388897D01*
X89478452Y-89358452D01*
X89508897Y-89333466D01*
X89543633Y-89314899D01*
X89581326Y-89303465D01*
X89626661Y-89299000D01*
X90713339Y-89299000D01*
X90758674Y-89303465D01*
X90758674Y-89303465D01*
G37*
G36*
X96761000Y-90226000D02*
G01*
X95599000Y-90226000D01*
X95599000Y-89474000D01*
X96761000Y-89474000D01*
X96761000Y-90226000D01*
X96761000Y-90226000D01*
G37*
G36*
X94561000Y-90226000D02*
G01*
X93399000Y-90226000D01*
X93399000Y-87574000D01*
X94561000Y-87574000D01*
X94561000Y-90226000D01*
X94561000Y-90226000D01*
G37*
G36*
X84773674Y-88153465D02*
G01*
X84811367Y-88164899D01*
X84846103Y-88183466D01*
X84876548Y-88208452D01*
X84901534Y-88238897D01*
X84920101Y-88273633D01*
X84931535Y-88311326D01*
X84936000Y-88356661D01*
X84936000Y-89443339D01*
X84931535Y-89488674D01*
X84920101Y-89526367D01*
X84901534Y-89561103D01*
X84876548Y-89591548D01*
X84846103Y-89616534D01*
X84811367Y-89635101D01*
X84773674Y-89646535D01*
X84728339Y-89651000D01*
X83891661Y-89651000D01*
X83846326Y-89646535D01*
X83808633Y-89635101D01*
X83773897Y-89616534D01*
X83743452Y-89591548D01*
X83718466Y-89561103D01*
X83699899Y-89526367D01*
X83688465Y-89488674D01*
X83684000Y-89443339D01*
X83684000Y-88356661D01*
X83688465Y-88311326D01*
X83699899Y-88273633D01*
X83718466Y-88238897D01*
X83743452Y-88208452D01*
X83773897Y-88183466D01*
X83808633Y-88164899D01*
X83846326Y-88153465D01*
X83891661Y-88149000D01*
X84728339Y-88149000D01*
X84773674Y-88153465D01*
X84773674Y-88153465D01*
G37*
G36*
X86823674Y-88153465D02*
G01*
X86861367Y-88164899D01*
X86896103Y-88183466D01*
X86926548Y-88208452D01*
X86951534Y-88238897D01*
X86970101Y-88273633D01*
X86981535Y-88311326D01*
X86986000Y-88356661D01*
X86986000Y-89443339D01*
X86981535Y-89488674D01*
X86970101Y-89526367D01*
X86951534Y-89561103D01*
X86926548Y-89591548D01*
X86896103Y-89616534D01*
X86861367Y-89635101D01*
X86823674Y-89646535D01*
X86778339Y-89651000D01*
X85941661Y-89651000D01*
X85896326Y-89646535D01*
X85858633Y-89635101D01*
X85823897Y-89616534D01*
X85793452Y-89591548D01*
X85768466Y-89561103D01*
X85749899Y-89526367D01*
X85738465Y-89488674D01*
X85734000Y-89443339D01*
X85734000Y-88356661D01*
X85738465Y-88311326D01*
X85749899Y-88273633D01*
X85768466Y-88238897D01*
X85793452Y-88208452D01*
X85823897Y-88183466D01*
X85858633Y-88164899D01*
X85896326Y-88153465D01*
X85941661Y-88149000D01*
X86778339Y-88149000D01*
X86823674Y-88153465D01*
X86823674Y-88153465D01*
G37*
G36*
X108538674Y-88033465D02*
G01*
X108576367Y-88044899D01*
X108611103Y-88063466D01*
X108641548Y-88088452D01*
X108666534Y-88118897D01*
X108685101Y-88153633D01*
X108696535Y-88191326D01*
X108701000Y-88236661D01*
X108701000Y-89073339D01*
X108696535Y-89118674D01*
X108685101Y-89156367D01*
X108666534Y-89191103D01*
X108641548Y-89221548D01*
X108611103Y-89246534D01*
X108576367Y-89265101D01*
X108538674Y-89276535D01*
X108493339Y-89281000D01*
X107406661Y-89281000D01*
X107361326Y-89276535D01*
X107323633Y-89265101D01*
X107288897Y-89246534D01*
X107258452Y-89221548D01*
X107233466Y-89191103D01*
X107214899Y-89156367D01*
X107203465Y-89118674D01*
X107199000Y-89073339D01*
X107199000Y-88236661D01*
X107203465Y-88191326D01*
X107214899Y-88153633D01*
X107233466Y-88118897D01*
X107258452Y-88088452D01*
X107288897Y-88063466D01*
X107323633Y-88044899D01*
X107361326Y-88033465D01*
X107406661Y-88029000D01*
X108493339Y-88029000D01*
X108538674Y-88033465D01*
X108538674Y-88033465D01*
G37*
G36*
X99648674Y-87788465D02*
G01*
X99686367Y-87799899D01*
X99721103Y-87818466D01*
X99751548Y-87843452D01*
X99776534Y-87873897D01*
X99795101Y-87908633D01*
X99806535Y-87946326D01*
X99811000Y-87991661D01*
X99811000Y-88828339D01*
X99806535Y-88873674D01*
X99795101Y-88911367D01*
X99776534Y-88946103D01*
X99751548Y-88976548D01*
X99721103Y-89001534D01*
X99686367Y-89020101D01*
X99648674Y-89031535D01*
X99603339Y-89036000D01*
X98516661Y-89036000D01*
X98471326Y-89031535D01*
X98433633Y-89020101D01*
X98398897Y-89001534D01*
X98368452Y-88976548D01*
X98343466Y-88946103D01*
X98324899Y-88911367D01*
X98313465Y-88873674D01*
X98309000Y-88828339D01*
X98309000Y-87991661D01*
X98313465Y-87946326D01*
X98324899Y-87908633D01*
X98343466Y-87873897D01*
X98368452Y-87843452D01*
X98398897Y-87818466D01*
X98433633Y-87799899D01*
X98471326Y-87788465D01*
X98516661Y-87784000D01*
X99603339Y-87784000D01*
X99648674Y-87788465D01*
X99648674Y-87788465D01*
G37*
G36*
X106261000Y-88951000D02*
G01*
X104559000Y-88951000D01*
X104559000Y-87549000D01*
X106261000Y-87549000D01*
X106261000Y-88951000D01*
X106261000Y-88951000D01*
G37*
G36*
X102961000Y-88951000D02*
G01*
X101259000Y-88951000D01*
X101259000Y-87549000D01*
X102961000Y-87549000D01*
X102961000Y-88951000D01*
X102961000Y-88951000D01*
G37*
G36*
X90758674Y-87253465D02*
G01*
X90796367Y-87264899D01*
X90831103Y-87283466D01*
X90861548Y-87308452D01*
X90886534Y-87338897D01*
X90905101Y-87373633D01*
X90916535Y-87411326D01*
X90921000Y-87456661D01*
X90921000Y-88293339D01*
X90916535Y-88338674D01*
X90905101Y-88376367D01*
X90886534Y-88411103D01*
X90861548Y-88441548D01*
X90831103Y-88466534D01*
X90796367Y-88485101D01*
X90758674Y-88496535D01*
X90713339Y-88501000D01*
X89626661Y-88501000D01*
X89581326Y-88496535D01*
X89543633Y-88485101D01*
X89508897Y-88466534D01*
X89478452Y-88441548D01*
X89453466Y-88411103D01*
X89434899Y-88376367D01*
X89423465Y-88338674D01*
X89419000Y-88293339D01*
X89419000Y-87456661D01*
X89423465Y-87411326D01*
X89434899Y-87373633D01*
X89453466Y-87338897D01*
X89478452Y-87308452D01*
X89508897Y-87283466D01*
X89543633Y-87264899D01*
X89581326Y-87253465D01*
X89626661Y-87249000D01*
X90713339Y-87249000D01*
X90758674Y-87253465D01*
X90758674Y-87253465D01*
G37*
G36*
X112223674Y-86883465D02*
G01*
X112261367Y-86894899D01*
X112296103Y-86913466D01*
X112326548Y-86938452D01*
X112351534Y-86968897D01*
X112370101Y-87003633D01*
X112381535Y-87041326D01*
X112386000Y-87086661D01*
X112386000Y-88173339D01*
X112381535Y-88218674D01*
X112370101Y-88256367D01*
X112351534Y-88291103D01*
X112326548Y-88321548D01*
X112296103Y-88346534D01*
X112261367Y-88365101D01*
X112223674Y-88376535D01*
X112178339Y-88381000D01*
X111341661Y-88381000D01*
X111296326Y-88376535D01*
X111258633Y-88365101D01*
X111223897Y-88346534D01*
X111193452Y-88321548D01*
X111168466Y-88291103D01*
X111149899Y-88256367D01*
X111138465Y-88218674D01*
X111134000Y-88173339D01*
X111134000Y-87086661D01*
X111138465Y-87041326D01*
X111149899Y-87003633D01*
X111168466Y-86968897D01*
X111193452Y-86938452D01*
X111223897Y-86913466D01*
X111258633Y-86894899D01*
X111296326Y-86883465D01*
X111341661Y-86879000D01*
X112178339Y-86879000D01*
X112223674Y-86883465D01*
X112223674Y-86883465D01*
G37*
G36*
X114273674Y-86883465D02*
G01*
X114311367Y-86894899D01*
X114346103Y-86913466D01*
X114376548Y-86938452D01*
X114401534Y-86968897D01*
X114420101Y-87003633D01*
X114431535Y-87041326D01*
X114436000Y-87086661D01*
X114436000Y-88173339D01*
X114431535Y-88218674D01*
X114420101Y-88256367D01*
X114401534Y-88291103D01*
X114376548Y-88321548D01*
X114346103Y-88346534D01*
X114311367Y-88365101D01*
X114273674Y-88376535D01*
X114228339Y-88381000D01*
X113391661Y-88381000D01*
X113346326Y-88376535D01*
X113308633Y-88365101D01*
X113273897Y-88346534D01*
X113243452Y-88321548D01*
X113218466Y-88291103D01*
X113199899Y-88256367D01*
X113188465Y-88218674D01*
X113184000Y-88173339D01*
X113184000Y-87086661D01*
X113188465Y-87041326D01*
X113199899Y-87003633D01*
X113218466Y-86968897D01*
X113243452Y-86938452D01*
X113273897Y-86913466D01*
X113308633Y-86894899D01*
X113346326Y-86883465D01*
X113391661Y-86879000D01*
X114228339Y-86879000D01*
X114273674Y-86883465D01*
X114273674Y-86883465D01*
G37*
G36*
X96761000Y-88326000D02*
G01*
X95599000Y-88326000D01*
X95599000Y-87574000D01*
X96761000Y-87574000D01*
X96761000Y-88326000D01*
X96761000Y-88326000D01*
G37*
G36*
X108538674Y-85983465D02*
G01*
X108576367Y-85994899D01*
X108611103Y-86013466D01*
X108641548Y-86038452D01*
X108666534Y-86068897D01*
X108685101Y-86103633D01*
X108696535Y-86141326D01*
X108701000Y-86186661D01*
X108701000Y-87023339D01*
X108696535Y-87068674D01*
X108685101Y-87106367D01*
X108666534Y-87141103D01*
X108641548Y-87171548D01*
X108611103Y-87196534D01*
X108576367Y-87215101D01*
X108538674Y-87226535D01*
X108493339Y-87231000D01*
X107406661Y-87231000D01*
X107361326Y-87226535D01*
X107323633Y-87215101D01*
X107288897Y-87196534D01*
X107258452Y-87171548D01*
X107233466Y-87141103D01*
X107214899Y-87106367D01*
X107203465Y-87068674D01*
X107199000Y-87023339D01*
X107199000Y-86186661D01*
X107203465Y-86141326D01*
X107214899Y-86103633D01*
X107233466Y-86068897D01*
X107258452Y-86038452D01*
X107288897Y-86013466D01*
X107323633Y-85994899D01*
X107361326Y-85983465D01*
X107406661Y-85979000D01*
X108493339Y-85979000D01*
X108538674Y-85983465D01*
X108538674Y-85983465D01*
G37*
G36*
X99648674Y-85738465D02*
G01*
X99686367Y-85749899D01*
X99721103Y-85768466D01*
X99751548Y-85793452D01*
X99776534Y-85823897D01*
X99795101Y-85858633D01*
X99806535Y-85896326D01*
X99811000Y-85941661D01*
X99811000Y-86778339D01*
X99806535Y-86823674D01*
X99795101Y-86861367D01*
X99776534Y-86896103D01*
X99751548Y-86926548D01*
X99721103Y-86951534D01*
X99686367Y-86970101D01*
X99648674Y-86981535D01*
X99603339Y-86986000D01*
X98516661Y-86986000D01*
X98471326Y-86981535D01*
X98433633Y-86970101D01*
X98398897Y-86951534D01*
X98368452Y-86926548D01*
X98343466Y-86896103D01*
X98324899Y-86861367D01*
X98313465Y-86823674D01*
X98309000Y-86778339D01*
X98309000Y-85941661D01*
X98313465Y-85896326D01*
X98324899Y-85858633D01*
X98343466Y-85823897D01*
X98368452Y-85793452D01*
X98398897Y-85768466D01*
X98433633Y-85749899D01*
X98471326Y-85738465D01*
X98516661Y-85734000D01*
X99603339Y-85734000D01*
X99648674Y-85738465D01*
X99648674Y-85738465D01*
G37*
G36*
X106261000Y-86951000D02*
G01*
X104559000Y-86951000D01*
X104559000Y-85549000D01*
X106261000Y-85549000D01*
X106261000Y-86951000D01*
X106261000Y-86951000D01*
G37*
G36*
X102961000Y-86951000D02*
G01*
X101259000Y-86951000D01*
X101259000Y-85549000D01*
X102961000Y-85549000D01*
X102961000Y-86951000D01*
X102961000Y-86951000D01*
G37*
G36*
X90380800Y-86375800D02*
G01*
X89079200Y-86375800D01*
X89079200Y-85074200D01*
X90380800Y-85074200D01*
X90380800Y-86375800D01*
X90380800Y-86375800D01*
G37*
G36*
X88280800Y-86375800D02*
G01*
X86979200Y-86375800D01*
X86979200Y-85074200D01*
X88280800Y-85074200D01*
X88280800Y-86375800D01*
X88280800Y-86375800D01*
G37*
G36*
X78273600Y-86256600D02*
G01*
X76470400Y-86256600D01*
X76470400Y-82653400D01*
X78273600Y-82653400D01*
X78273600Y-86256600D01*
X78273600Y-86256600D01*
G37*
G36*
X85073600Y-86256600D02*
G01*
X83270400Y-86256600D01*
X83270400Y-82653400D01*
X85073600Y-82653400D01*
X85073600Y-86256600D01*
X85073600Y-86256600D01*
G37*
G36*
X94688674Y-83073465D02*
G01*
X94726367Y-83084899D01*
X94761103Y-83103466D01*
X94791548Y-83128452D01*
X94816534Y-83158897D01*
X94835101Y-83193633D01*
X94846535Y-83231326D01*
X94851000Y-83276661D01*
X94851000Y-84363339D01*
X94846535Y-84408674D01*
X94835101Y-84446367D01*
X94816534Y-84481103D01*
X94791548Y-84511548D01*
X94761103Y-84536534D01*
X94726367Y-84555101D01*
X94688674Y-84566535D01*
X94643339Y-84571000D01*
X93806661Y-84571000D01*
X93761326Y-84566535D01*
X93723633Y-84555101D01*
X93688897Y-84536534D01*
X93658452Y-84511548D01*
X93633466Y-84481103D01*
X93614899Y-84446367D01*
X93603465Y-84408674D01*
X93599000Y-84363339D01*
X93599000Y-83276661D01*
X93603465Y-83231326D01*
X93614899Y-83193633D01*
X93633466Y-83158897D01*
X93658452Y-83128452D01*
X93688897Y-83103466D01*
X93723633Y-83084899D01*
X93761326Y-83073465D01*
X93806661Y-83069000D01*
X94643339Y-83069000D01*
X94688674Y-83073465D01*
X94688674Y-83073465D01*
G37*
G36*
X96738674Y-83073465D02*
G01*
X96776367Y-83084899D01*
X96811103Y-83103466D01*
X96841548Y-83128452D01*
X96866534Y-83158897D01*
X96885101Y-83193633D01*
X96896535Y-83231326D01*
X96901000Y-83276661D01*
X96901000Y-84363339D01*
X96896535Y-84408674D01*
X96885101Y-84446367D01*
X96866534Y-84481103D01*
X96841548Y-84511548D01*
X96811103Y-84536534D01*
X96776367Y-84555101D01*
X96738674Y-84566535D01*
X96693339Y-84571000D01*
X95856661Y-84571000D01*
X95811326Y-84566535D01*
X95773633Y-84555101D01*
X95738897Y-84536534D01*
X95708452Y-84511548D01*
X95683466Y-84481103D01*
X95664899Y-84446367D01*
X95653465Y-84408674D01*
X95649000Y-84363339D01*
X95649000Y-83276661D01*
X95653465Y-83231326D01*
X95664899Y-83193633D01*
X95683466Y-83158897D01*
X95708452Y-83128452D01*
X95738897Y-83103466D01*
X95773633Y-83084899D01*
X95811326Y-83073465D01*
X95856661Y-83069000D01*
X96693339Y-83069000D01*
X96738674Y-83073465D01*
X96738674Y-83073465D01*
G37*
G36*
X104848674Y-83073465D02*
G01*
X104886367Y-83084899D01*
X104921103Y-83103466D01*
X104951548Y-83128452D01*
X104976534Y-83158897D01*
X104995101Y-83193633D01*
X105006535Y-83231326D01*
X105011000Y-83276661D01*
X105011000Y-84363339D01*
X105006535Y-84408674D01*
X104995101Y-84446367D01*
X104976534Y-84481103D01*
X104951548Y-84511548D01*
X104921103Y-84536534D01*
X104886367Y-84555101D01*
X104848674Y-84566535D01*
X104803339Y-84571000D01*
X103966661Y-84571000D01*
X103921326Y-84566535D01*
X103883633Y-84555101D01*
X103848897Y-84536534D01*
X103818452Y-84511548D01*
X103793466Y-84481103D01*
X103774899Y-84446367D01*
X103763465Y-84408674D01*
X103759000Y-84363339D01*
X103759000Y-83276661D01*
X103763465Y-83231326D01*
X103774899Y-83193633D01*
X103793466Y-83158897D01*
X103818452Y-83128452D01*
X103848897Y-83103466D01*
X103883633Y-83084899D01*
X103921326Y-83073465D01*
X103966661Y-83069000D01*
X104803339Y-83069000D01*
X104848674Y-83073465D01*
X104848674Y-83073465D01*
G37*
G36*
X106898674Y-83073465D02*
G01*
X106936367Y-83084899D01*
X106971103Y-83103466D01*
X107001548Y-83128452D01*
X107026534Y-83158897D01*
X107045101Y-83193633D01*
X107056535Y-83231326D01*
X107061000Y-83276661D01*
X107061000Y-84363339D01*
X107056535Y-84408674D01*
X107045101Y-84446367D01*
X107026534Y-84481103D01*
X107001548Y-84511548D01*
X106971103Y-84536534D01*
X106936367Y-84555101D01*
X106898674Y-84566535D01*
X106853339Y-84571000D01*
X106016661Y-84571000D01*
X105971326Y-84566535D01*
X105933633Y-84555101D01*
X105898897Y-84536534D01*
X105868452Y-84511548D01*
X105843466Y-84481103D01*
X105824899Y-84446367D01*
X105813465Y-84408674D01*
X105809000Y-84363339D01*
X105809000Y-83276661D01*
X105813465Y-83231326D01*
X105824899Y-83193633D01*
X105843466Y-83158897D01*
X105868452Y-83128452D01*
X105898897Y-83103466D01*
X105933633Y-83084899D01*
X105971326Y-83073465D01*
X106016661Y-83069000D01*
X106853339Y-83069000D01*
X106898674Y-83073465D01*
X106898674Y-83073465D01*
G37*
G36*
X109928674Y-82438465D02*
G01*
X109966367Y-82449899D01*
X110001103Y-82468466D01*
X110031548Y-82493452D01*
X110056534Y-82523897D01*
X110075101Y-82558633D01*
X110086535Y-82596326D01*
X110091000Y-82641661D01*
X110091000Y-83728339D01*
X110086535Y-83773674D01*
X110075101Y-83811367D01*
X110056534Y-83846103D01*
X110031548Y-83876548D01*
X110001103Y-83901534D01*
X109966367Y-83920101D01*
X109928674Y-83931535D01*
X109883339Y-83936000D01*
X109046661Y-83936000D01*
X109001326Y-83931535D01*
X108963633Y-83920101D01*
X108928897Y-83901534D01*
X108898452Y-83876548D01*
X108873466Y-83846103D01*
X108854899Y-83811367D01*
X108843465Y-83773674D01*
X108839000Y-83728339D01*
X108839000Y-82641661D01*
X108843465Y-82596326D01*
X108854899Y-82558633D01*
X108873466Y-82523897D01*
X108898452Y-82493452D01*
X108928897Y-82468466D01*
X108963633Y-82449899D01*
X109001326Y-82438465D01*
X109046661Y-82434000D01*
X109883339Y-82434000D01*
X109928674Y-82438465D01*
X109928674Y-82438465D01*
G37*
G36*
X111978674Y-82438465D02*
G01*
X112016367Y-82449899D01*
X112051103Y-82468466D01*
X112081548Y-82493452D01*
X112106534Y-82523897D01*
X112125101Y-82558633D01*
X112136535Y-82596326D01*
X112141000Y-82641661D01*
X112141000Y-83728339D01*
X112136535Y-83773674D01*
X112125101Y-83811367D01*
X112106534Y-83846103D01*
X112081548Y-83876548D01*
X112051103Y-83901534D01*
X112016367Y-83920101D01*
X111978674Y-83931535D01*
X111933339Y-83936000D01*
X111096661Y-83936000D01*
X111051326Y-83931535D01*
X111013633Y-83920101D01*
X110978897Y-83901534D01*
X110948452Y-83876548D01*
X110923466Y-83846103D01*
X110904899Y-83811367D01*
X110893465Y-83773674D01*
X110889000Y-83728339D01*
X110889000Y-82641661D01*
X110893465Y-82596326D01*
X110904899Y-82558633D01*
X110923466Y-82523897D01*
X110948452Y-82493452D01*
X110978897Y-82468466D01*
X111013633Y-82449899D01*
X111051326Y-82438465D01*
X111096661Y-82434000D01*
X111933339Y-82434000D01*
X111978674Y-82438465D01*
X111978674Y-82438465D01*
G37*
G36*
X102063674Y-81803465D02*
G01*
X102101367Y-81814899D01*
X102136103Y-81833466D01*
X102166548Y-81858452D01*
X102191534Y-81888897D01*
X102210101Y-81923633D01*
X102221535Y-81961326D01*
X102226000Y-82006661D01*
X102226000Y-83093339D01*
X102221535Y-83138674D01*
X102210101Y-83176367D01*
X102191534Y-83211103D01*
X102166548Y-83241548D01*
X102136103Y-83266534D01*
X102101367Y-83285101D01*
X102063674Y-83296535D01*
X102018339Y-83301000D01*
X101181661Y-83301000D01*
X101136326Y-83296535D01*
X101098633Y-83285101D01*
X101063897Y-83266534D01*
X101033452Y-83241548D01*
X101008466Y-83211103D01*
X100989899Y-83176367D01*
X100978465Y-83138674D01*
X100974000Y-83093339D01*
X100974000Y-82006661D01*
X100978465Y-81961326D01*
X100989899Y-81923633D01*
X101008466Y-81888897D01*
X101033452Y-81858452D01*
X101063897Y-81833466D01*
X101098633Y-81814899D01*
X101136326Y-81803465D01*
X101181661Y-81799000D01*
X102018339Y-81799000D01*
X102063674Y-81803465D01*
X102063674Y-81803465D01*
G37*
G36*
X100013674Y-81803465D02*
G01*
X100051367Y-81814899D01*
X100086103Y-81833466D01*
X100116548Y-81858452D01*
X100141534Y-81888897D01*
X100160101Y-81923633D01*
X100171535Y-81961326D01*
X100176000Y-82006661D01*
X100176000Y-83093339D01*
X100171535Y-83138674D01*
X100160101Y-83176367D01*
X100141534Y-83211103D01*
X100116548Y-83241548D01*
X100086103Y-83266534D01*
X100051367Y-83285101D01*
X100013674Y-83296535D01*
X99968339Y-83301000D01*
X99131661Y-83301000D01*
X99086326Y-83296535D01*
X99048633Y-83285101D01*
X99013897Y-83266534D01*
X98983452Y-83241548D01*
X98958466Y-83211103D01*
X98939899Y-83176367D01*
X98928465Y-83138674D01*
X98924000Y-83093339D01*
X98924000Y-82006661D01*
X98928465Y-81961326D01*
X98939899Y-81923633D01*
X98958466Y-81888897D01*
X98983452Y-81858452D01*
X99013897Y-81833466D01*
X99048633Y-81814899D01*
X99086326Y-81803465D01*
X99131661Y-81799000D01*
X99968339Y-81799000D01*
X100013674Y-81803465D01*
X100013674Y-81803465D01*
G37*
G36*
X94688674Y-80533465D02*
G01*
X94726367Y-80544899D01*
X94761103Y-80563466D01*
X94791548Y-80588452D01*
X94816534Y-80618897D01*
X94835101Y-80653633D01*
X94846535Y-80691326D01*
X94851000Y-80736661D01*
X94851000Y-81823339D01*
X94846535Y-81868674D01*
X94835101Y-81906367D01*
X94816534Y-81941103D01*
X94791548Y-81971548D01*
X94761103Y-81996534D01*
X94726367Y-82015101D01*
X94688674Y-82026535D01*
X94643339Y-82031000D01*
X93806661Y-82031000D01*
X93761326Y-82026535D01*
X93723633Y-82015101D01*
X93688897Y-81996534D01*
X93658452Y-81971548D01*
X93633466Y-81941103D01*
X93614899Y-81906367D01*
X93603465Y-81868674D01*
X93599000Y-81823339D01*
X93599000Y-80736661D01*
X93603465Y-80691326D01*
X93614899Y-80653633D01*
X93633466Y-80618897D01*
X93658452Y-80588452D01*
X93688897Y-80563466D01*
X93723633Y-80544899D01*
X93761326Y-80533465D01*
X93806661Y-80529000D01*
X94643339Y-80529000D01*
X94688674Y-80533465D01*
X94688674Y-80533465D01*
G37*
G36*
X96738674Y-80533465D02*
G01*
X96776367Y-80544899D01*
X96811103Y-80563466D01*
X96841548Y-80588452D01*
X96866534Y-80618897D01*
X96885101Y-80653633D01*
X96896535Y-80691326D01*
X96901000Y-80736661D01*
X96901000Y-81823339D01*
X96896535Y-81868674D01*
X96885101Y-81906367D01*
X96866534Y-81941103D01*
X96841548Y-81971548D01*
X96811103Y-81996534D01*
X96776367Y-82015101D01*
X96738674Y-82026535D01*
X96693339Y-82031000D01*
X95856661Y-82031000D01*
X95811326Y-82026535D01*
X95773633Y-82015101D01*
X95738897Y-81996534D01*
X95708452Y-81971548D01*
X95683466Y-81941103D01*
X95664899Y-81906367D01*
X95653465Y-81868674D01*
X95649000Y-81823339D01*
X95649000Y-80736661D01*
X95653465Y-80691326D01*
X95664899Y-80653633D01*
X95683466Y-80618897D01*
X95708452Y-80588452D01*
X95738897Y-80563466D01*
X95773633Y-80544899D01*
X95811326Y-80533465D01*
X95856661Y-80529000D01*
X96693339Y-80529000D01*
X96738674Y-80533465D01*
X96738674Y-80533465D01*
G37*
G36*
X82373600Y-81656600D02*
G01*
X81170400Y-81656600D01*
X81170400Y-76853400D01*
X82373600Y-76853400D01*
X82373600Y-81656600D01*
X82373600Y-81656600D01*
G37*
G36*
X80373600Y-81656600D02*
G01*
X79170400Y-81656600D01*
X79170400Y-76853400D01*
X80373600Y-76853400D01*
X80373600Y-81656600D01*
X80373600Y-81656600D01*
G37*
G36*
X124445800Y-81285800D02*
G01*
X123144200Y-81285800D01*
X123144200Y-80634200D01*
X124445800Y-80634200D01*
X124445800Y-81285800D01*
X124445800Y-81285800D01*
G37*
G36*
X127045800Y-81285800D02*
G01*
X125744200Y-81285800D01*
X125744200Y-80634200D01*
X127045800Y-80634200D01*
X127045800Y-81285800D01*
X127045800Y-81285800D01*
G37*
G36*
X118425085Y-77371975D02*
G01*
X118780143Y-77519045D01*
X118780145Y-77519046D01*
X119099690Y-77732559D01*
X119371441Y-78004310D01*
X119464311Y-78143300D01*
X119584955Y-78323857D01*
X119732025Y-78678915D01*
X119807000Y-79055842D01*
X119807000Y-79440158D01*
X119732025Y-79817085D01*
X119584955Y-80172143D01*
X119584954Y-80172145D01*
X119371441Y-80491690D01*
X119099690Y-80763441D01*
X118780145Y-80976954D01*
X118780144Y-80976955D01*
X118780143Y-80976955D01*
X118425085Y-81124025D01*
X118048158Y-81199000D01*
X117663842Y-81199000D01*
X117286915Y-81124025D01*
X116931857Y-80976955D01*
X116931856Y-80976955D01*
X116931855Y-80976954D01*
X116612310Y-80763441D01*
X116340559Y-80491690D01*
X116127046Y-80172145D01*
X116127045Y-80172143D01*
X115979975Y-79817085D01*
X115905000Y-79440158D01*
X115905000Y-79055842D01*
X115979975Y-78678915D01*
X116127045Y-78323857D01*
X116247689Y-78143300D01*
X116340559Y-78004310D01*
X116612310Y-77732559D01*
X116931855Y-77519046D01*
X116931857Y-77519045D01*
X117286915Y-77371975D01*
X117663842Y-77297000D01*
X118048158Y-77297000D01*
X118425085Y-77371975D01*
X118425085Y-77371975D01*
G37*
G36*
X88453085Y-77371975D02*
G01*
X88808143Y-77519045D01*
X88808145Y-77519046D01*
X89127690Y-77732559D01*
X89399441Y-78004310D01*
X89492311Y-78143300D01*
X89612955Y-78323857D01*
X89760025Y-78678915D01*
X89835000Y-79055842D01*
X89835000Y-79440158D01*
X89760025Y-79817085D01*
X89612955Y-80172143D01*
X89612954Y-80172145D01*
X89399441Y-80491690D01*
X89127690Y-80763441D01*
X88808145Y-80976954D01*
X88808144Y-80976955D01*
X88808143Y-80976955D01*
X88453085Y-81124025D01*
X88076158Y-81199000D01*
X87691842Y-81199000D01*
X87314915Y-81124025D01*
X86959857Y-80976955D01*
X86959856Y-80976955D01*
X86959855Y-80976954D01*
X86640310Y-80763441D01*
X86368559Y-80491690D01*
X86155046Y-80172145D01*
X86155045Y-80172143D01*
X86007975Y-79817085D01*
X85933000Y-79440158D01*
X85933000Y-79055842D01*
X86007975Y-78678915D01*
X86155045Y-78323857D01*
X86275689Y-78143300D01*
X86368559Y-78004310D01*
X86640310Y-77732559D01*
X86959855Y-77519046D01*
X86959857Y-77519045D01*
X87314915Y-77371975D01*
X87691842Y-77297000D01*
X88076158Y-77297000D01*
X88453085Y-77371975D01*
X88453085Y-77371975D01*
G37*
G36*
X110893300Y-81000800D02*
G01*
X105006700Y-81000800D01*
X105006700Y-79799200D01*
X110893300Y-79799200D01*
X110893300Y-81000800D01*
X110893300Y-81000800D01*
G37*
G36*
X127045800Y-80335800D02*
G01*
X125744200Y-80335800D01*
X125744200Y-79684200D01*
X127045800Y-79684200D01*
X127045800Y-80335800D01*
X127045800Y-80335800D01*
G37*
G36*
X124445800Y-80335800D02*
G01*
X123144200Y-80335800D01*
X123144200Y-79684200D01*
X124445800Y-79684200D01*
X124445800Y-80335800D01*
X124445800Y-80335800D01*
G37*
G36*
X124445800Y-79385800D02*
G01*
X123144200Y-79385800D01*
X123144200Y-78734200D01*
X124445800Y-78734200D01*
X124445800Y-79385800D01*
X124445800Y-79385800D01*
G37*
G36*
X127045800Y-79385800D02*
G01*
X125744200Y-79385800D01*
X125744200Y-78734200D01*
X127045800Y-78734200D01*
X127045800Y-79385800D01*
X127045800Y-79385800D01*
G37*
G36*
X104195393Y-73259497D02*
G01*
X104231831Y-73270550D01*
X104265411Y-73288499D01*
X104294845Y-73312655D01*
X104319001Y-73342089D01*
X104336950Y-73375669D01*
X104348003Y-73412107D01*
X104351735Y-73450000D01*
X104348003Y-73487893D01*
X104336950Y-73524331D01*
X104319001Y-73557911D01*
X104319000Y-73557913D01*
X104315640Y-73564198D01*
X104309905Y-73572781D01*
X104300529Y-73595421D01*
X104295749Y-73619454D01*
X104295750Y-73643958D01*
X104300532Y-73667991D01*
X104309910Y-73690630D01*
X104323525Y-73711004D01*
X104340853Y-73728330D01*
X104350800Y-73734976D01*
X104350800Y-79143300D01*
X103149200Y-79143300D01*
X103149200Y-73735687D01*
X103149299Y-73735634D01*
X103168241Y-73720089D01*
X103183786Y-73701147D01*
X103195337Y-73679536D01*
X103202450Y-73656087D01*
X103204852Y-73631701D01*
X103202450Y-73607315D01*
X103195337Y-73583866D01*
X103186413Y-73568976D01*
X103186803Y-73568768D01*
X103181001Y-73557914D01*
X103180999Y-73557911D01*
X103163050Y-73524331D01*
X103151997Y-73487893D01*
X103148265Y-73450000D01*
X103151997Y-73412107D01*
X103163050Y-73375669D01*
X103180999Y-73342089D01*
X103205155Y-73312655D01*
X103234589Y-73288499D01*
X103268169Y-73270550D01*
X103304607Y-73259497D01*
X103333006Y-73256700D01*
X104166994Y-73256700D01*
X104195393Y-73259497D01*
X104195393Y-73259497D01*
G37*
G36*
X112750800Y-79143300D02*
G01*
X111549200Y-79143300D01*
X111549200Y-73256700D01*
X112750800Y-73256700D01*
X112750800Y-79143300D01*
X112750800Y-79143300D01*
G37*
G36*
X125413674Y-74183465D02*
G01*
X125451367Y-74194899D01*
X125486103Y-74213466D01*
X125516548Y-74238452D01*
X125541534Y-74268897D01*
X125560101Y-74303633D01*
X125571535Y-74341326D01*
X125576000Y-74386661D01*
X125576000Y-75473339D01*
X125571535Y-75518674D01*
X125560101Y-75556367D01*
X125541534Y-75591103D01*
X125516548Y-75621548D01*
X125486103Y-75646534D01*
X125451367Y-75665101D01*
X125413674Y-75676535D01*
X125368339Y-75681000D01*
X124531661Y-75681000D01*
X124486326Y-75676535D01*
X124448633Y-75665101D01*
X124413897Y-75646534D01*
X124383452Y-75621548D01*
X124358466Y-75591103D01*
X124339899Y-75556367D01*
X124328465Y-75518674D01*
X124324000Y-75473339D01*
X124324000Y-74386661D01*
X124328465Y-74341326D01*
X124339899Y-74303633D01*
X124358466Y-74268897D01*
X124383452Y-74238452D01*
X124413897Y-74213466D01*
X124448633Y-74194899D01*
X124486326Y-74183465D01*
X124531661Y-74179000D01*
X125368339Y-74179000D01*
X125413674Y-74183465D01*
X125413674Y-74183465D01*
G37*
G36*
X127463674Y-74183465D02*
G01*
X127501367Y-74194899D01*
X127536103Y-74213466D01*
X127566548Y-74238452D01*
X127591534Y-74268897D01*
X127610101Y-74303633D01*
X127621535Y-74341326D01*
X127626000Y-74386661D01*
X127626000Y-75473339D01*
X127621535Y-75518674D01*
X127610101Y-75556367D01*
X127591534Y-75591103D01*
X127566548Y-75621548D01*
X127536103Y-75646534D01*
X127501367Y-75665101D01*
X127463674Y-75676535D01*
X127418339Y-75681000D01*
X126581661Y-75681000D01*
X126536326Y-75676535D01*
X126498633Y-75665101D01*
X126463897Y-75646534D01*
X126433452Y-75621548D01*
X126408466Y-75591103D01*
X126389899Y-75556367D01*
X126378465Y-75518674D01*
X126374000Y-75473339D01*
X126374000Y-74386661D01*
X126378465Y-74341326D01*
X126389899Y-74303633D01*
X126408466Y-74268897D01*
X126433452Y-74238452D01*
X126463897Y-74213466D01*
X126498633Y-74194899D01*
X126536326Y-74183465D01*
X126581661Y-74179000D01*
X127418339Y-74179000D01*
X127463674Y-74183465D01*
X127463674Y-74183465D01*
G37*
G36*
X118328674Y-72913465D02*
G01*
X118366367Y-72924899D01*
X118401103Y-72943466D01*
X118431548Y-72968452D01*
X118456534Y-72998897D01*
X118475101Y-73033633D01*
X118486535Y-73071326D01*
X118491000Y-73116661D01*
X118491000Y-74203339D01*
X118486535Y-74248674D01*
X118475101Y-74286367D01*
X118456534Y-74321103D01*
X118431548Y-74351548D01*
X118401103Y-74376534D01*
X118366367Y-74395101D01*
X118328674Y-74406535D01*
X118283339Y-74411000D01*
X117446661Y-74411000D01*
X117401326Y-74406535D01*
X117363633Y-74395101D01*
X117328897Y-74376534D01*
X117298452Y-74351548D01*
X117273466Y-74321103D01*
X117254899Y-74286367D01*
X117243465Y-74248674D01*
X117239000Y-74203339D01*
X117239000Y-73116661D01*
X117243465Y-73071326D01*
X117254899Y-73033633D01*
X117273466Y-72998897D01*
X117298452Y-72968452D01*
X117328897Y-72943466D01*
X117363633Y-72924899D01*
X117401326Y-72913465D01*
X117446661Y-72909000D01*
X118283339Y-72909000D01*
X118328674Y-72913465D01*
X118328674Y-72913465D01*
G37*
G36*
X116278674Y-72913465D02*
G01*
X116316367Y-72924899D01*
X116351103Y-72943466D01*
X116381548Y-72968452D01*
X116406534Y-72998897D01*
X116425101Y-73033633D01*
X116436535Y-73071326D01*
X116441000Y-73116661D01*
X116441000Y-74203339D01*
X116436535Y-74248674D01*
X116425101Y-74286367D01*
X116406534Y-74321103D01*
X116381548Y-74351548D01*
X116351103Y-74376534D01*
X116316367Y-74395101D01*
X116278674Y-74406535D01*
X116233339Y-74411000D01*
X115396661Y-74411000D01*
X115351326Y-74406535D01*
X115313633Y-74395101D01*
X115278897Y-74376534D01*
X115248452Y-74351548D01*
X115223466Y-74321103D01*
X115204899Y-74286367D01*
X115193465Y-74248674D01*
X115189000Y-74203339D01*
X115189000Y-73116661D01*
X115193465Y-73071326D01*
X115204899Y-73033633D01*
X115223466Y-72998897D01*
X115248452Y-72968452D01*
X115278897Y-72943466D01*
X115313633Y-72924899D01*
X115351326Y-72913465D01*
X115396661Y-72909000D01*
X116233339Y-72909000D01*
X116278674Y-72913465D01*
X116278674Y-72913465D01*
G37*
G36*
X98378674Y-72793465D02*
G01*
X98416367Y-72804899D01*
X98451103Y-72823466D01*
X98481548Y-72848452D01*
X98506534Y-72878897D01*
X98525101Y-72913633D01*
X98536535Y-72951326D01*
X98541000Y-72996661D01*
X98541000Y-73833339D01*
X98536535Y-73878674D01*
X98525101Y-73916367D01*
X98506534Y-73951103D01*
X98481548Y-73981548D01*
X98451103Y-74006534D01*
X98416367Y-74025101D01*
X98378674Y-74036535D01*
X98333339Y-74041000D01*
X97246661Y-74041000D01*
X97201326Y-74036535D01*
X97163633Y-74025101D01*
X97128897Y-74006534D01*
X97098452Y-73981548D01*
X97073466Y-73951103D01*
X97054899Y-73916367D01*
X97043465Y-73878674D01*
X97039000Y-73833339D01*
X97039000Y-72996661D01*
X97043465Y-72951326D01*
X97054899Y-72913633D01*
X97073466Y-72878897D01*
X97098452Y-72848452D01*
X97128897Y-72823466D01*
X97163633Y-72804899D01*
X97201326Y-72793465D01*
X97246661Y-72789000D01*
X98333339Y-72789000D01*
X98378674Y-72793465D01*
X98378674Y-72793465D01*
G37*
G36*
X127584468Y-72461065D02*
G01*
X127623138Y-72472796D01*
X127658777Y-72491846D01*
X127690017Y-72517483D01*
X127715654Y-72548723D01*
X127734704Y-72584362D01*
X127746435Y-72623032D01*
X127751000Y-72669388D01*
X127751000Y-73320612D01*
X127746435Y-73366968D01*
X127734704Y-73405638D01*
X127715654Y-73441277D01*
X127690017Y-73472517D01*
X127658777Y-73498154D01*
X127623138Y-73517204D01*
X127584468Y-73528935D01*
X127538112Y-73533500D01*
X126461888Y-73533500D01*
X126415532Y-73528935D01*
X126376862Y-73517204D01*
X126341223Y-73498154D01*
X126309983Y-73472517D01*
X126284346Y-73441277D01*
X126265296Y-73405638D01*
X126253565Y-73366968D01*
X126249000Y-73320612D01*
X126249000Y-72669388D01*
X126253565Y-72623032D01*
X126265296Y-72584362D01*
X126284346Y-72548723D01*
X126309983Y-72517483D01*
X126341223Y-72491846D01*
X126376862Y-72472796D01*
X126415532Y-72461065D01*
X126461888Y-72456500D01*
X127538112Y-72456500D01*
X127584468Y-72461065D01*
X127584468Y-72461065D01*
G37*
G36*
X90029999Y-71589737D02*
G01*
X90039608Y-71592652D01*
X90048472Y-71597390D01*
X90056237Y-71603763D01*
X90066448Y-71616206D01*
X90073378Y-71626575D01*
X90090705Y-71643902D01*
X90111080Y-71657515D01*
X90133720Y-71666891D01*
X90157753Y-71671671D01*
X90182257Y-71671670D01*
X90206290Y-71666888D01*
X90228929Y-71657510D01*
X90249302Y-71643895D01*
X90266629Y-71626568D01*
X90273558Y-71616198D01*
X90283763Y-71603763D01*
X90291528Y-71597390D01*
X90300392Y-71592652D01*
X90310001Y-71589737D01*
X90326140Y-71588148D01*
X90813861Y-71588148D01*
X90832199Y-71589954D01*
X90844450Y-71590556D01*
X90862869Y-71590556D01*
X90885149Y-71592750D01*
X90969233Y-71609476D01*
X90990660Y-71615976D01*
X91069858Y-71648780D01*
X91075303Y-71651691D01*
X91075309Y-71651693D01*
X91084169Y-71656429D01*
X91084173Y-71656432D01*
X91089614Y-71659340D01*
X91160899Y-71706971D01*
X91178204Y-71721172D01*
X91238828Y-71781796D01*
X91253029Y-71799101D01*
X91300660Y-71870386D01*
X91303568Y-71875827D01*
X91303571Y-71875831D01*
X91308307Y-71884691D01*
X91308309Y-71884697D01*
X91311220Y-71890142D01*
X91344024Y-71969340D01*
X91350524Y-71990767D01*
X91367250Y-72074851D01*
X91369444Y-72097131D01*
X91369444Y-72115550D01*
X91370046Y-72127801D01*
X91371852Y-72146139D01*
X91371852Y-72633862D01*
X91370046Y-72652199D01*
X91369444Y-72664450D01*
X91369444Y-72682869D01*
X91367250Y-72705149D01*
X91350524Y-72789233D01*
X91344024Y-72810660D01*
X91311220Y-72889858D01*
X91308309Y-72895303D01*
X91308307Y-72895309D01*
X91303571Y-72904169D01*
X91303568Y-72904173D01*
X91300660Y-72909614D01*
X91253029Y-72980899D01*
X91238828Y-72998204D01*
X91178204Y-73058828D01*
X91160899Y-73073029D01*
X91089614Y-73120660D01*
X91084173Y-73123568D01*
X91084169Y-73123571D01*
X91075309Y-73128307D01*
X91075303Y-73128309D01*
X91069858Y-73131220D01*
X90990660Y-73164024D01*
X90969233Y-73170524D01*
X90885149Y-73187250D01*
X90862869Y-73189444D01*
X90844450Y-73189444D01*
X90832199Y-73190046D01*
X90813862Y-73191852D01*
X90326140Y-73191852D01*
X90310001Y-73190263D01*
X90300392Y-73187348D01*
X90291528Y-73182610D01*
X90283763Y-73176237D01*
X90273552Y-73163794D01*
X90266622Y-73153425D01*
X90249295Y-73136098D01*
X90228920Y-73122485D01*
X90206280Y-73113109D01*
X90182247Y-73108329D01*
X90157743Y-73108330D01*
X90133710Y-73113112D01*
X90111071Y-73122490D01*
X90090698Y-73136105D01*
X90073371Y-73153432D01*
X90066442Y-73163802D01*
X90056237Y-73176237D01*
X90048472Y-73182610D01*
X90039608Y-73187348D01*
X90029999Y-73190263D01*
X90013860Y-73191852D01*
X89526138Y-73191852D01*
X89507801Y-73190046D01*
X89495550Y-73189444D01*
X89477131Y-73189444D01*
X89454851Y-73187250D01*
X89370767Y-73170524D01*
X89349340Y-73164024D01*
X89270142Y-73131220D01*
X89264697Y-73128309D01*
X89264691Y-73128307D01*
X89255831Y-73123571D01*
X89255827Y-73123568D01*
X89250386Y-73120660D01*
X89179101Y-73073029D01*
X89161796Y-73058828D01*
X89101172Y-72998204D01*
X89086971Y-72980899D01*
X89039340Y-72909614D01*
X89036432Y-72904173D01*
X89036429Y-72904169D01*
X89031693Y-72895309D01*
X89031691Y-72895303D01*
X89028780Y-72889858D01*
X88995976Y-72810660D01*
X88989476Y-72789233D01*
X88972750Y-72705149D01*
X88970556Y-72682869D01*
X88970556Y-72664450D01*
X88969954Y-72652199D01*
X88968148Y-72633862D01*
X88968148Y-72146139D01*
X88969954Y-72127801D01*
X88970556Y-72115550D01*
X88970556Y-72097131D01*
X88972750Y-72074851D01*
X88989476Y-71990767D01*
X88995976Y-71969340D01*
X89028780Y-71890142D01*
X89031691Y-71884697D01*
X89031693Y-71884691D01*
X89036429Y-71875831D01*
X89036432Y-71875827D01*
X89039340Y-71870386D01*
X89086971Y-71799101D01*
X89101172Y-71781796D01*
X89161796Y-71721172D01*
X89179101Y-71706971D01*
X89250386Y-71659340D01*
X89255827Y-71656432D01*
X89255831Y-71656429D01*
X89264691Y-71651693D01*
X89264697Y-71651691D01*
X89270142Y-71648780D01*
X89349340Y-71615976D01*
X89370767Y-71609476D01*
X89454851Y-71592750D01*
X89477131Y-71590556D01*
X89495550Y-71590556D01*
X89507801Y-71589954D01*
X89526139Y-71588148D01*
X90013860Y-71588148D01*
X90029999Y-71589737D01*
X90029999Y-71589737D01*
G37*
G36*
X110893300Y-72600800D02*
G01*
X105009200Y-72600800D01*
X105009200Y-71399200D01*
X110893300Y-71399200D01*
X110893300Y-72600800D01*
X110893300Y-72600800D01*
G37*
G36*
X98378674Y-70743465D02*
G01*
X98416367Y-70754899D01*
X98451103Y-70773466D01*
X98481548Y-70798452D01*
X98506534Y-70828897D01*
X98525101Y-70863633D01*
X98536535Y-70901326D01*
X98541000Y-70946661D01*
X98541000Y-71783339D01*
X98536535Y-71828674D01*
X98525101Y-71866367D01*
X98506534Y-71901103D01*
X98481548Y-71931548D01*
X98451103Y-71956534D01*
X98416367Y-71975101D01*
X98378674Y-71986535D01*
X98333339Y-71991000D01*
X97246661Y-71991000D01*
X97201326Y-71986535D01*
X97163633Y-71975101D01*
X97128897Y-71956534D01*
X97098452Y-71931548D01*
X97073466Y-71901103D01*
X97054899Y-71866367D01*
X97043465Y-71828674D01*
X97039000Y-71783339D01*
X97039000Y-70946661D01*
X97043465Y-70901326D01*
X97054899Y-70863633D01*
X97073466Y-70828897D01*
X97098452Y-70798452D01*
X97128897Y-70773466D01*
X97163633Y-70754899D01*
X97201326Y-70743465D01*
X97246661Y-70739000D01*
X98333339Y-70739000D01*
X98378674Y-70743465D01*
X98378674Y-70743465D01*
G37*
G36*
X118328674Y-70373465D02*
G01*
X118366367Y-70384899D01*
X118401103Y-70403466D01*
X118431548Y-70428452D01*
X118456534Y-70458897D01*
X118475101Y-70493633D01*
X118486535Y-70531326D01*
X118491000Y-70576661D01*
X118491000Y-71663339D01*
X118486535Y-71708674D01*
X118475101Y-71746367D01*
X118456534Y-71781103D01*
X118431548Y-71811548D01*
X118401103Y-71836534D01*
X118366367Y-71855101D01*
X118328674Y-71866535D01*
X118283339Y-71871000D01*
X117446661Y-71871000D01*
X117401326Y-71866535D01*
X117363633Y-71855101D01*
X117328897Y-71836534D01*
X117298452Y-71811548D01*
X117273466Y-71781103D01*
X117254899Y-71746367D01*
X117243465Y-71708674D01*
X117239000Y-71663339D01*
X117239000Y-70576661D01*
X117243465Y-70531326D01*
X117254899Y-70493633D01*
X117273466Y-70458897D01*
X117298452Y-70428452D01*
X117328897Y-70403466D01*
X117363633Y-70384899D01*
X117401326Y-70373465D01*
X117446661Y-70369000D01*
X118283339Y-70369000D01*
X118328674Y-70373465D01*
X118328674Y-70373465D01*
G37*
G36*
X124166968Y-70373565D02*
G01*
X124205638Y-70385296D01*
X124241277Y-70404346D01*
X124272517Y-70429983D01*
X124298154Y-70461223D01*
X124317204Y-70496862D01*
X124328935Y-70535532D01*
X124333500Y-70581888D01*
X124333500Y-71658112D01*
X124328935Y-71704468D01*
X124317204Y-71743138D01*
X124298154Y-71778777D01*
X124272517Y-71810017D01*
X124241277Y-71835654D01*
X124205638Y-71854704D01*
X124166968Y-71866435D01*
X124120612Y-71871000D01*
X123469388Y-71871000D01*
X123423032Y-71866435D01*
X123384362Y-71854704D01*
X123348723Y-71835654D01*
X123317483Y-71810017D01*
X123291846Y-71778777D01*
X123272796Y-71743138D01*
X123261065Y-71704468D01*
X123256500Y-71658112D01*
X123256500Y-70581888D01*
X123261065Y-70535532D01*
X123272796Y-70496862D01*
X123291846Y-70461223D01*
X123317483Y-70429983D01*
X123348723Y-70404346D01*
X123384362Y-70385296D01*
X123423032Y-70373565D01*
X123469388Y-70369000D01*
X124120612Y-70369000D01*
X124166968Y-70373565D01*
X124166968Y-70373565D01*
G37*
G36*
X122291968Y-70373565D02*
G01*
X122330638Y-70385296D01*
X122366277Y-70404346D01*
X122397517Y-70429983D01*
X122423154Y-70461223D01*
X122442204Y-70496862D01*
X122453935Y-70535532D01*
X122458500Y-70581888D01*
X122458500Y-71658112D01*
X122453935Y-71704468D01*
X122442204Y-71743138D01*
X122423154Y-71778777D01*
X122397517Y-71810017D01*
X122366277Y-71835654D01*
X122330638Y-71854704D01*
X122291968Y-71866435D01*
X122245612Y-71871000D01*
X121594388Y-71871000D01*
X121548032Y-71866435D01*
X121509362Y-71854704D01*
X121473723Y-71835654D01*
X121442483Y-71810017D01*
X121416846Y-71778777D01*
X121397796Y-71743138D01*
X121386065Y-71704468D01*
X121381500Y-71658112D01*
X121381500Y-70581888D01*
X121386065Y-70535532D01*
X121397796Y-70496862D01*
X121416846Y-70461223D01*
X121442483Y-70429983D01*
X121473723Y-70404346D01*
X121509362Y-70385296D01*
X121548032Y-70373565D01*
X121594388Y-70369000D01*
X122245612Y-70369000D01*
X122291968Y-70373565D01*
X122291968Y-70373565D01*
G37*
G36*
X116278674Y-70373465D02*
G01*
X116316367Y-70384899D01*
X116351103Y-70403466D01*
X116381548Y-70428452D01*
X116406534Y-70458897D01*
X116425101Y-70493633D01*
X116436535Y-70531326D01*
X116441000Y-70576661D01*
X116441000Y-71663339D01*
X116436535Y-71708674D01*
X116425101Y-71746367D01*
X116406534Y-71781103D01*
X116381548Y-71811548D01*
X116351103Y-71836534D01*
X116316367Y-71855101D01*
X116278674Y-71866535D01*
X116233339Y-71871000D01*
X115396661Y-71871000D01*
X115351326Y-71866535D01*
X115313633Y-71855101D01*
X115278897Y-71836534D01*
X115248452Y-71811548D01*
X115223466Y-71781103D01*
X115204899Y-71746367D01*
X115193465Y-71708674D01*
X115189000Y-71663339D01*
X115189000Y-70576661D01*
X115193465Y-70531326D01*
X115204899Y-70493633D01*
X115223466Y-70458897D01*
X115248452Y-70428452D01*
X115278897Y-70403466D01*
X115313633Y-70384899D01*
X115351326Y-70373465D01*
X115396661Y-70369000D01*
X116233339Y-70369000D01*
X116278674Y-70373465D01*
X116278674Y-70373465D01*
G37*
G36*
X127584468Y-70586065D02*
G01*
X127623138Y-70597796D01*
X127658777Y-70616846D01*
X127690017Y-70642483D01*
X127715654Y-70673723D01*
X127734704Y-70709362D01*
X127746435Y-70748032D01*
X127751000Y-70794388D01*
X127751000Y-71445612D01*
X127746435Y-71491968D01*
X127734704Y-71530638D01*
X127715654Y-71566277D01*
X127690017Y-71597517D01*
X127658777Y-71623154D01*
X127623138Y-71642204D01*
X127584468Y-71653935D01*
X127538112Y-71658500D01*
X126461888Y-71658500D01*
X126415532Y-71653935D01*
X126376862Y-71642204D01*
X126341223Y-71623154D01*
X126309983Y-71597517D01*
X126284346Y-71566277D01*
X126265296Y-71530638D01*
X126253565Y-71491968D01*
X126249000Y-71445612D01*
X126249000Y-70794388D01*
X126253565Y-70748032D01*
X126265296Y-70709362D01*
X126284346Y-70673723D01*
X126309983Y-70642483D01*
X126341223Y-70616846D01*
X126376862Y-70597796D01*
X126415532Y-70586065D01*
X126461888Y-70581500D01*
X127538112Y-70581500D01*
X127584468Y-70586065D01*
X127584468Y-70586065D01*
G37*
G36*
X95838674Y-70253465D02*
G01*
X95876367Y-70264899D01*
X95911103Y-70283466D01*
X95941548Y-70308452D01*
X95966534Y-70338897D01*
X95985101Y-70373633D01*
X95996535Y-70411326D01*
X96001000Y-70456661D01*
X96001000Y-71293339D01*
X95996535Y-71338674D01*
X95985101Y-71376367D01*
X95966534Y-71411103D01*
X95941548Y-71441548D01*
X95911103Y-71466534D01*
X95876367Y-71485101D01*
X95838674Y-71496535D01*
X95793339Y-71501000D01*
X94706661Y-71501000D01*
X94661326Y-71496535D01*
X94623633Y-71485101D01*
X94588897Y-71466534D01*
X94558452Y-71441548D01*
X94533466Y-71411103D01*
X94514899Y-71376367D01*
X94503465Y-71338674D01*
X94499000Y-71293339D01*
X94499000Y-70456661D01*
X94503465Y-70411326D01*
X94514899Y-70373633D01*
X94533466Y-70338897D01*
X94558452Y-70308452D01*
X94588897Y-70283466D01*
X94623633Y-70264899D01*
X94661326Y-70253465D01*
X94706661Y-70249000D01*
X95793339Y-70249000D01*
X95838674Y-70253465D01*
X95838674Y-70253465D01*
G37*
G36*
X88759999Y-69049737D02*
G01*
X88769608Y-69052652D01*
X88778472Y-69057390D01*
X88786237Y-69063763D01*
X88796448Y-69076206D01*
X88803378Y-69086575D01*
X88820705Y-69103902D01*
X88841080Y-69117515D01*
X88863720Y-69126891D01*
X88887753Y-69131671D01*
X88912257Y-69131670D01*
X88936290Y-69126888D01*
X88958929Y-69117510D01*
X88979302Y-69103895D01*
X88996629Y-69086568D01*
X89003558Y-69076198D01*
X89013763Y-69063763D01*
X89021528Y-69057390D01*
X89030392Y-69052652D01*
X89040001Y-69049737D01*
X89056140Y-69048148D01*
X89543861Y-69048148D01*
X89562199Y-69049954D01*
X89574450Y-69050556D01*
X89592869Y-69050556D01*
X89615149Y-69052750D01*
X89699233Y-69069476D01*
X89720660Y-69075976D01*
X89799858Y-69108780D01*
X89805303Y-69111691D01*
X89805309Y-69111693D01*
X89814169Y-69116429D01*
X89814173Y-69116432D01*
X89819614Y-69119340D01*
X89890899Y-69166971D01*
X89908204Y-69181172D01*
X89968828Y-69241796D01*
X89983029Y-69259101D01*
X90030660Y-69330386D01*
X90033568Y-69335827D01*
X90033571Y-69335831D01*
X90038307Y-69344691D01*
X90038309Y-69344697D01*
X90041220Y-69350142D01*
X90074024Y-69429340D01*
X90080524Y-69450767D01*
X90097250Y-69534851D01*
X90099444Y-69557131D01*
X90099444Y-69575550D01*
X90100046Y-69587801D01*
X90101852Y-69606139D01*
X90101852Y-70093862D01*
X90100046Y-70112199D01*
X90099444Y-70124450D01*
X90099444Y-70142869D01*
X90097250Y-70165149D01*
X90080524Y-70249233D01*
X90074024Y-70270660D01*
X90041220Y-70349858D01*
X90038309Y-70355303D01*
X90038307Y-70355309D01*
X90033571Y-70364169D01*
X90033568Y-70364173D01*
X90030660Y-70369614D01*
X89983029Y-70440899D01*
X89968828Y-70458204D01*
X89908204Y-70518828D01*
X89890899Y-70533029D01*
X89819614Y-70580660D01*
X89814173Y-70583568D01*
X89814169Y-70583571D01*
X89805309Y-70588307D01*
X89805303Y-70588309D01*
X89799858Y-70591220D01*
X89720660Y-70624024D01*
X89699233Y-70630524D01*
X89615149Y-70647250D01*
X89592869Y-70649444D01*
X89574450Y-70649444D01*
X89562199Y-70650046D01*
X89543862Y-70651852D01*
X89056140Y-70651852D01*
X89040001Y-70650263D01*
X89030392Y-70647348D01*
X89021528Y-70642610D01*
X89013763Y-70636237D01*
X89003552Y-70623794D01*
X88996622Y-70613425D01*
X88979295Y-70596098D01*
X88958920Y-70582485D01*
X88936280Y-70573109D01*
X88912247Y-70568329D01*
X88887743Y-70568330D01*
X88863710Y-70573112D01*
X88841071Y-70582490D01*
X88820698Y-70596105D01*
X88803371Y-70613432D01*
X88796442Y-70623802D01*
X88786237Y-70636237D01*
X88778472Y-70642610D01*
X88769608Y-70647348D01*
X88759999Y-70650263D01*
X88743860Y-70651852D01*
X88256138Y-70651852D01*
X88237801Y-70650046D01*
X88225550Y-70649444D01*
X88207131Y-70649444D01*
X88184851Y-70647250D01*
X88100767Y-70630524D01*
X88079340Y-70624024D01*
X88000142Y-70591220D01*
X87994697Y-70588309D01*
X87994691Y-70588307D01*
X87985831Y-70583571D01*
X87985827Y-70583568D01*
X87980386Y-70580660D01*
X87909101Y-70533029D01*
X87891796Y-70518828D01*
X87831172Y-70458204D01*
X87816971Y-70440899D01*
X87769340Y-70369614D01*
X87766432Y-70364173D01*
X87766429Y-70364169D01*
X87761693Y-70355309D01*
X87761691Y-70355303D01*
X87758780Y-70349858D01*
X87725976Y-70270660D01*
X87719476Y-70249233D01*
X87702750Y-70165149D01*
X87700556Y-70142869D01*
X87700556Y-70124450D01*
X87699954Y-70112199D01*
X87698148Y-70093862D01*
X87698148Y-69606139D01*
X87699954Y-69587801D01*
X87700556Y-69575550D01*
X87700556Y-69557131D01*
X87702750Y-69534851D01*
X87719476Y-69450767D01*
X87725976Y-69429340D01*
X87758780Y-69350142D01*
X87761691Y-69344697D01*
X87761693Y-69344691D01*
X87766429Y-69335831D01*
X87766432Y-69335827D01*
X87769340Y-69330386D01*
X87816971Y-69259101D01*
X87831172Y-69241796D01*
X87891796Y-69181172D01*
X87909101Y-69166971D01*
X87980386Y-69119340D01*
X87985827Y-69116432D01*
X87985831Y-69116429D01*
X87994691Y-69111693D01*
X87994697Y-69111691D01*
X88000142Y-69108780D01*
X88079340Y-69075976D01*
X88100767Y-69069476D01*
X88184851Y-69052750D01*
X88207131Y-69050556D01*
X88225550Y-69050556D01*
X88237801Y-69049954D01*
X88256139Y-69048148D01*
X88743860Y-69048148D01*
X88759999Y-69049737D01*
X88759999Y-69049737D01*
G37*
G36*
X95838674Y-68203465D02*
G01*
X95876367Y-68214899D01*
X95911103Y-68233466D01*
X95941548Y-68258452D01*
X95966534Y-68288897D01*
X95985101Y-68323633D01*
X95996535Y-68361326D01*
X96001000Y-68406661D01*
X96001000Y-69243339D01*
X95996535Y-69288674D01*
X95985101Y-69326367D01*
X95966534Y-69361103D01*
X95941548Y-69391548D01*
X95911103Y-69416534D01*
X95876367Y-69435101D01*
X95838674Y-69446535D01*
X95793339Y-69451000D01*
X94706661Y-69451000D01*
X94661326Y-69446535D01*
X94623633Y-69435101D01*
X94588897Y-69416534D01*
X94558452Y-69391548D01*
X94533466Y-69361103D01*
X94514899Y-69326367D01*
X94503465Y-69288674D01*
X94499000Y-69243339D01*
X94499000Y-68406661D01*
X94503465Y-68361326D01*
X94514899Y-68323633D01*
X94533466Y-68288897D01*
X94558452Y-68258452D01*
X94588897Y-68233466D01*
X94623633Y-68214899D01*
X94661326Y-68203465D01*
X94706661Y-68199000D01*
X95793339Y-68199000D01*
X95838674Y-68203465D01*
X95838674Y-68203465D01*
G37*
G36*
X112239999Y-67779737D02*
G01*
X112249608Y-67782652D01*
X112258472Y-67787390D01*
X112266237Y-67793763D01*
X112276448Y-67806206D01*
X112283378Y-67816575D01*
X112300705Y-67833902D01*
X112321080Y-67847515D01*
X112343720Y-67856891D01*
X112367753Y-67861671D01*
X112392257Y-67861670D01*
X112416290Y-67856888D01*
X112438929Y-67847510D01*
X112459302Y-67833895D01*
X112476629Y-67816568D01*
X112483558Y-67806198D01*
X112493763Y-67793763D01*
X112501528Y-67787390D01*
X112510392Y-67782652D01*
X112520001Y-67779737D01*
X112536140Y-67778148D01*
X113023861Y-67778148D01*
X113042199Y-67779954D01*
X113054450Y-67780556D01*
X113072869Y-67780556D01*
X113095149Y-67782750D01*
X113179233Y-67799476D01*
X113200660Y-67805976D01*
X113279858Y-67838780D01*
X113285303Y-67841691D01*
X113285309Y-67841693D01*
X113294169Y-67846429D01*
X113294173Y-67846432D01*
X113299614Y-67849340D01*
X113370899Y-67896971D01*
X113388204Y-67911172D01*
X113448828Y-67971796D01*
X113463029Y-67989101D01*
X113510660Y-68060386D01*
X113513568Y-68065827D01*
X113513571Y-68065831D01*
X113518307Y-68074691D01*
X113518309Y-68074697D01*
X113521220Y-68080142D01*
X113554024Y-68159340D01*
X113560524Y-68180767D01*
X113577250Y-68264851D01*
X113579444Y-68287131D01*
X113579444Y-68305550D01*
X113580046Y-68317801D01*
X113581852Y-68336139D01*
X113581852Y-68823862D01*
X113580046Y-68842199D01*
X113579444Y-68854450D01*
X113579444Y-68872869D01*
X113577250Y-68895149D01*
X113560524Y-68979233D01*
X113554024Y-69000660D01*
X113521220Y-69079858D01*
X113518309Y-69085303D01*
X113518307Y-69085309D01*
X113513571Y-69094169D01*
X113513568Y-69094173D01*
X113510660Y-69099614D01*
X113463029Y-69170899D01*
X113448828Y-69188204D01*
X113388204Y-69248828D01*
X113370899Y-69263029D01*
X113299614Y-69310660D01*
X113294173Y-69313568D01*
X113294169Y-69313571D01*
X113285309Y-69318307D01*
X113285303Y-69318309D01*
X113279858Y-69321220D01*
X113200660Y-69354024D01*
X113179233Y-69360524D01*
X113095149Y-69377250D01*
X113072869Y-69379444D01*
X113054450Y-69379444D01*
X113042199Y-69380046D01*
X113023862Y-69381852D01*
X112536140Y-69381852D01*
X112520001Y-69380263D01*
X112510392Y-69377348D01*
X112501528Y-69372610D01*
X112493763Y-69366237D01*
X112483552Y-69353794D01*
X112476622Y-69343425D01*
X112459295Y-69326098D01*
X112438920Y-69312485D01*
X112416280Y-69303109D01*
X112392247Y-69298329D01*
X112367743Y-69298330D01*
X112343710Y-69303112D01*
X112321071Y-69312490D01*
X112300698Y-69326105D01*
X112283371Y-69343432D01*
X112276442Y-69353802D01*
X112266237Y-69366237D01*
X112258472Y-69372610D01*
X112249608Y-69377348D01*
X112239999Y-69380263D01*
X112223860Y-69381852D01*
X111736138Y-69381852D01*
X111717801Y-69380046D01*
X111705550Y-69379444D01*
X111687131Y-69379444D01*
X111664851Y-69377250D01*
X111580767Y-69360524D01*
X111559340Y-69354024D01*
X111480142Y-69321220D01*
X111474697Y-69318309D01*
X111474691Y-69318307D01*
X111465831Y-69313571D01*
X111465827Y-69313568D01*
X111460386Y-69310660D01*
X111389101Y-69263029D01*
X111371796Y-69248828D01*
X111311172Y-69188204D01*
X111296971Y-69170899D01*
X111249340Y-69099614D01*
X111246432Y-69094173D01*
X111246429Y-69094169D01*
X111241693Y-69085309D01*
X111241691Y-69085303D01*
X111238780Y-69079858D01*
X111205976Y-69000660D01*
X111199476Y-68979233D01*
X111182750Y-68895149D01*
X111180556Y-68872869D01*
X111180556Y-68854450D01*
X111179954Y-68842199D01*
X111178148Y-68823862D01*
X111178148Y-68336139D01*
X111179954Y-68317801D01*
X111180556Y-68305550D01*
X111180556Y-68287131D01*
X111182750Y-68264851D01*
X111199476Y-68180767D01*
X111205976Y-68159340D01*
X111238780Y-68080142D01*
X111241691Y-68074697D01*
X111241693Y-68074691D01*
X111246429Y-68065831D01*
X111246432Y-68065827D01*
X111249340Y-68060386D01*
X111296971Y-67989101D01*
X111311172Y-67971796D01*
X111371796Y-67911172D01*
X111389101Y-67896971D01*
X111460386Y-67849340D01*
X111465827Y-67846432D01*
X111465831Y-67846429D01*
X111474691Y-67841693D01*
X111474697Y-67841691D01*
X111480142Y-67838780D01*
X111559340Y-67805976D01*
X111580767Y-67799476D01*
X111664851Y-67782750D01*
X111687131Y-67780556D01*
X111705550Y-67780556D01*
X111717801Y-67779954D01*
X111736139Y-67778148D01*
X112223860Y-67778148D01*
X112239999Y-67779737D01*
X112239999Y-67779737D01*
G37*
G36*
X106118674Y-67833465D02*
G01*
X106156367Y-67844899D01*
X106191103Y-67863466D01*
X106221548Y-67888452D01*
X106246534Y-67918897D01*
X106265101Y-67953633D01*
X106276535Y-67991326D01*
X106281000Y-68036661D01*
X106281000Y-69123339D01*
X106276535Y-69168674D01*
X106265101Y-69206367D01*
X106246534Y-69241103D01*
X106221548Y-69271548D01*
X106191103Y-69296534D01*
X106156367Y-69315101D01*
X106118674Y-69326535D01*
X106073339Y-69331000D01*
X105236661Y-69331000D01*
X105191326Y-69326535D01*
X105153633Y-69315101D01*
X105118897Y-69296534D01*
X105088452Y-69271548D01*
X105063466Y-69241103D01*
X105044899Y-69206367D01*
X105033465Y-69168674D01*
X105029000Y-69123339D01*
X105029000Y-68036661D01*
X105033465Y-67991326D01*
X105044899Y-67953633D01*
X105063466Y-67918897D01*
X105088452Y-67888452D01*
X105118897Y-67863466D01*
X105153633Y-67844899D01*
X105191326Y-67833465D01*
X105236661Y-67829000D01*
X106073339Y-67829000D01*
X106118674Y-67833465D01*
X106118674Y-67833465D01*
G37*
G36*
X108168674Y-67833465D02*
G01*
X108206367Y-67844899D01*
X108241103Y-67863466D01*
X108271548Y-67888452D01*
X108296534Y-67918897D01*
X108315101Y-67953633D01*
X108326535Y-67991326D01*
X108331000Y-68036661D01*
X108331000Y-69123339D01*
X108326535Y-69168674D01*
X108315101Y-69206367D01*
X108296534Y-69241103D01*
X108271548Y-69271548D01*
X108241103Y-69296534D01*
X108206367Y-69315101D01*
X108168674Y-69326535D01*
X108123339Y-69331000D01*
X107286661Y-69331000D01*
X107241326Y-69326535D01*
X107203633Y-69315101D01*
X107168897Y-69296534D01*
X107138452Y-69271548D01*
X107113466Y-69241103D01*
X107094899Y-69206367D01*
X107083465Y-69168674D01*
X107079000Y-69123339D01*
X107079000Y-68036661D01*
X107083465Y-67991326D01*
X107094899Y-67953633D01*
X107113466Y-67918897D01*
X107138452Y-67888452D01*
X107168897Y-67863466D01*
X107203633Y-67844899D01*
X107241326Y-67833465D01*
X107286661Y-67829000D01*
X108123339Y-67829000D01*
X108168674Y-67833465D01*
X108168674Y-67833465D01*
G37*
G36*
X126602142Y-65893242D02*
G01*
X126750101Y-65954529D01*
X126883255Y-66043499D01*
X126996501Y-66156745D01*
X127085471Y-66289899D01*
X127146758Y-66437858D01*
X127178000Y-66594925D01*
X127178000Y-66755075D01*
X127146758Y-66912142D01*
X127085471Y-67060101D01*
X126996501Y-67193255D01*
X126883255Y-67306501D01*
X126750101Y-67395471D01*
X126602142Y-67456758D01*
X126445075Y-67488000D01*
X126284925Y-67488000D01*
X126127858Y-67456758D01*
X125979899Y-67395471D01*
X125846745Y-67306501D01*
X125733499Y-67193255D01*
X125644529Y-67060101D01*
X125583242Y-66912142D01*
X125552000Y-66755075D01*
X125552000Y-66594925D01*
X125583242Y-66437858D01*
X125644529Y-66289899D01*
X125733499Y-66156745D01*
X125846745Y-66043499D01*
X125979899Y-65954529D01*
X126127858Y-65893242D01*
X126284925Y-65862000D01*
X126445075Y-65862000D01*
X126602142Y-65893242D01*
X126602142Y-65893242D01*
G37*
G36*
X116941600Y-65881600D02*
G01*
X115538400Y-65881600D01*
X115538400Y-45878400D01*
X116941600Y-45878400D01*
X116941600Y-65881600D01*
X116941600Y-65881600D01*
G37*
G36*
X100369468Y-64023565D02*
G01*
X100408138Y-64035296D01*
X100443777Y-64054346D01*
X100475017Y-64079983D01*
X100500654Y-64111223D01*
X100519704Y-64146862D01*
X100531435Y-64185532D01*
X100536000Y-64231888D01*
X100536000Y-65308112D01*
X100531435Y-65354468D01*
X100519704Y-65393138D01*
X100500654Y-65428777D01*
X100475017Y-65460017D01*
X100443777Y-65485654D01*
X100408138Y-65504704D01*
X100369468Y-65516435D01*
X100323112Y-65521000D01*
X99671888Y-65521000D01*
X99625532Y-65516435D01*
X99586862Y-65504704D01*
X99551223Y-65485654D01*
X99519983Y-65460017D01*
X99494346Y-65428777D01*
X99475296Y-65393138D01*
X99463565Y-65354468D01*
X99459000Y-65308112D01*
X99459000Y-64231888D01*
X99463565Y-64185532D01*
X99475296Y-64146862D01*
X99494346Y-64111223D01*
X99519983Y-64079983D01*
X99551223Y-64054346D01*
X99586862Y-64035296D01*
X99625532Y-64023565D01*
X99671888Y-64019000D01*
X100323112Y-64019000D01*
X100369468Y-64023565D01*
X100369468Y-64023565D01*
G37*
G36*
X93746968Y-64023565D02*
G01*
X93785638Y-64035296D01*
X93821277Y-64054346D01*
X93852517Y-64079983D01*
X93878154Y-64111223D01*
X93897204Y-64146862D01*
X93908935Y-64185532D01*
X93913500Y-64231888D01*
X93913500Y-65308112D01*
X93908935Y-65354468D01*
X93897204Y-65393138D01*
X93878154Y-65428777D01*
X93852517Y-65460017D01*
X93821277Y-65485654D01*
X93785638Y-65504704D01*
X93746968Y-65516435D01*
X93700612Y-65521000D01*
X93049388Y-65521000D01*
X93003032Y-65516435D01*
X92964362Y-65504704D01*
X92928723Y-65485654D01*
X92897483Y-65460017D01*
X92871846Y-65428777D01*
X92852796Y-65393138D01*
X92841065Y-65354468D01*
X92836500Y-65308112D01*
X92836500Y-64231888D01*
X92841065Y-64185532D01*
X92852796Y-64146862D01*
X92871846Y-64111223D01*
X92897483Y-64079983D01*
X92928723Y-64054346D01*
X92964362Y-64035296D01*
X93003032Y-64023565D01*
X93049388Y-64019000D01*
X93700612Y-64019000D01*
X93746968Y-64023565D01*
X93746968Y-64023565D01*
G37*
G36*
X95621968Y-64023565D02*
G01*
X95660638Y-64035296D01*
X95696277Y-64054346D01*
X95727517Y-64079983D01*
X95753154Y-64111223D01*
X95772204Y-64146862D01*
X95783935Y-64185532D01*
X95788500Y-64231888D01*
X95788500Y-65308112D01*
X95783935Y-65354468D01*
X95772204Y-65393138D01*
X95753154Y-65428777D01*
X95727517Y-65460017D01*
X95696277Y-65485654D01*
X95660638Y-65504704D01*
X95621968Y-65516435D01*
X95575612Y-65521000D01*
X94924388Y-65521000D01*
X94878032Y-65516435D01*
X94839362Y-65504704D01*
X94803723Y-65485654D01*
X94772483Y-65460017D01*
X94746846Y-65428777D01*
X94727796Y-65393138D01*
X94716065Y-65354468D01*
X94711500Y-65308112D01*
X94711500Y-64231888D01*
X94716065Y-64185532D01*
X94727796Y-64146862D01*
X94746846Y-64111223D01*
X94772483Y-64079983D01*
X94803723Y-64054346D01*
X94839362Y-64035296D01*
X94878032Y-64023565D01*
X94924388Y-64019000D01*
X95575612Y-64019000D01*
X95621968Y-64023565D01*
X95621968Y-64023565D01*
G37*
G36*
X98494468Y-64023565D02*
G01*
X98533138Y-64035296D01*
X98568777Y-64054346D01*
X98600017Y-64079983D01*
X98625654Y-64111223D01*
X98644704Y-64146862D01*
X98656435Y-64185532D01*
X98661000Y-64231888D01*
X98661000Y-65308112D01*
X98656435Y-65354468D01*
X98644704Y-65393138D01*
X98625654Y-65428777D01*
X98600017Y-65460017D01*
X98568777Y-65485654D01*
X98533138Y-65504704D01*
X98494468Y-65516435D01*
X98448112Y-65521000D01*
X97796888Y-65521000D01*
X97750532Y-65516435D01*
X97711862Y-65504704D01*
X97676223Y-65485654D01*
X97644983Y-65460017D01*
X97619346Y-65428777D01*
X97600296Y-65393138D01*
X97588565Y-65354468D01*
X97584000Y-65308112D01*
X97584000Y-64231888D01*
X97588565Y-64185532D01*
X97600296Y-64146862D01*
X97619346Y-64111223D01*
X97644983Y-64079983D01*
X97676223Y-64054346D01*
X97711862Y-64035296D01*
X97750532Y-64023565D01*
X97796888Y-64019000D01*
X98448112Y-64019000D01*
X98494468Y-64023565D01*
X98494468Y-64023565D01*
G37*
G36*
X126602142Y-63353242D02*
G01*
X126750101Y-63414529D01*
X126883255Y-63503499D01*
X126996501Y-63616745D01*
X127085471Y-63749899D01*
X127146758Y-63897858D01*
X127178000Y-64054925D01*
X127178000Y-64215075D01*
X127146758Y-64372142D01*
X127085471Y-64520101D01*
X126996501Y-64653255D01*
X126883255Y-64766501D01*
X126750101Y-64855471D01*
X126602142Y-64916758D01*
X126445075Y-64948000D01*
X126284925Y-64948000D01*
X126127858Y-64916758D01*
X125979899Y-64855471D01*
X125846745Y-64766501D01*
X125733499Y-64653255D01*
X125644529Y-64520101D01*
X125583242Y-64372142D01*
X125552000Y-64215075D01*
X125552000Y-64054925D01*
X125583242Y-63897858D01*
X125644529Y-63749899D01*
X125733499Y-63616745D01*
X125846745Y-63503499D01*
X125979899Y-63414529D01*
X126127858Y-63353242D01*
X126284925Y-63322000D01*
X126445075Y-63322000D01*
X126602142Y-63353242D01*
X126602142Y-63353242D01*
G37*
G36*
X97353674Y-61363465D02*
G01*
X97391367Y-61374899D01*
X97426103Y-61393466D01*
X97456548Y-61418452D01*
X97481534Y-61448897D01*
X97500101Y-61483633D01*
X97511535Y-61521326D01*
X97516000Y-61566661D01*
X97516000Y-62403339D01*
X97511535Y-62448674D01*
X97500101Y-62486367D01*
X97481534Y-62521103D01*
X97456548Y-62551548D01*
X97426103Y-62576534D01*
X97391367Y-62595101D01*
X97353674Y-62606535D01*
X97308339Y-62611000D01*
X96221661Y-62611000D01*
X96176326Y-62606535D01*
X96138633Y-62595101D01*
X96103897Y-62576534D01*
X96073452Y-62551548D01*
X96048466Y-62521103D01*
X96029899Y-62486367D01*
X96018465Y-62448674D01*
X96014000Y-62403339D01*
X96014000Y-61566661D01*
X96018465Y-61521326D01*
X96029899Y-61483633D01*
X96048466Y-61448897D01*
X96073452Y-61418452D01*
X96103897Y-61393466D01*
X96138633Y-61374899D01*
X96176326Y-61363465D01*
X96221661Y-61359000D01*
X97308339Y-61359000D01*
X97353674Y-61363465D01*
X97353674Y-61363465D01*
G37*
G36*
X126602142Y-60813242D02*
G01*
X126750101Y-60874529D01*
X126883255Y-60963499D01*
X126996501Y-61076745D01*
X127085471Y-61209899D01*
X127146758Y-61357858D01*
X127178000Y-61514925D01*
X127178000Y-61675075D01*
X127146758Y-61832142D01*
X127085471Y-61980101D01*
X126996501Y-62113255D01*
X126883255Y-62226501D01*
X126750101Y-62315471D01*
X126602142Y-62376758D01*
X126445075Y-62408000D01*
X126284925Y-62408000D01*
X126127858Y-62376758D01*
X125979899Y-62315471D01*
X125846745Y-62226501D01*
X125733499Y-62113255D01*
X125644529Y-61980101D01*
X125583242Y-61832142D01*
X125552000Y-61675075D01*
X125552000Y-61514925D01*
X125583242Y-61357858D01*
X125644529Y-61209899D01*
X125733499Y-61076745D01*
X125846745Y-60963499D01*
X125979899Y-60874529D01*
X126127858Y-60813242D01*
X126284925Y-60782000D01*
X126445075Y-60782000D01*
X126602142Y-60813242D01*
X126602142Y-60813242D01*
G37*
G36*
X105093674Y-60213465D02*
G01*
X105131367Y-60224899D01*
X105166103Y-60243466D01*
X105196548Y-60268452D01*
X105221534Y-60298897D01*
X105240101Y-60333633D01*
X105251535Y-60371326D01*
X105256000Y-60416661D01*
X105256000Y-61503339D01*
X105251535Y-61548674D01*
X105240101Y-61586367D01*
X105221534Y-61621103D01*
X105196548Y-61651548D01*
X105166103Y-61676534D01*
X105131367Y-61695101D01*
X105093674Y-61706535D01*
X105048339Y-61711000D01*
X104211661Y-61711000D01*
X104166326Y-61706535D01*
X104128633Y-61695101D01*
X104093897Y-61676534D01*
X104063452Y-61651548D01*
X104038466Y-61621103D01*
X104019899Y-61586367D01*
X104008465Y-61548674D01*
X104004000Y-61503339D01*
X104004000Y-60416661D01*
X104008465Y-60371326D01*
X104019899Y-60333633D01*
X104038466Y-60298897D01*
X104063452Y-60268452D01*
X104093897Y-60243466D01*
X104128633Y-60224899D01*
X104166326Y-60213465D01*
X104211661Y-60209000D01*
X105048339Y-60209000D01*
X105093674Y-60213465D01*
X105093674Y-60213465D01*
G37*
G36*
X85798674Y-60213465D02*
G01*
X85836367Y-60224899D01*
X85871103Y-60243466D01*
X85901548Y-60268452D01*
X85926534Y-60298897D01*
X85945101Y-60333633D01*
X85956535Y-60371326D01*
X85961000Y-60416661D01*
X85961000Y-61503339D01*
X85956535Y-61548674D01*
X85945101Y-61586367D01*
X85926534Y-61621103D01*
X85901548Y-61651548D01*
X85871103Y-61676534D01*
X85836367Y-61695101D01*
X85798674Y-61706535D01*
X85753339Y-61711000D01*
X84916661Y-61711000D01*
X84871326Y-61706535D01*
X84833633Y-61695101D01*
X84798897Y-61676534D01*
X84768452Y-61651548D01*
X84743466Y-61621103D01*
X84724899Y-61586367D01*
X84713465Y-61548674D01*
X84709000Y-61503339D01*
X84709000Y-60416661D01*
X84713465Y-60371326D01*
X84724899Y-60333633D01*
X84743466Y-60298897D01*
X84768452Y-60268452D01*
X84798897Y-60243466D01*
X84833633Y-60224899D01*
X84871326Y-60213465D01*
X84916661Y-60209000D01*
X85753339Y-60209000D01*
X85798674Y-60213465D01*
X85798674Y-60213465D01*
G37*
G36*
X107143674Y-60213465D02*
G01*
X107181367Y-60224899D01*
X107216103Y-60243466D01*
X107246548Y-60268452D01*
X107271534Y-60298897D01*
X107290101Y-60333633D01*
X107301535Y-60371326D01*
X107306000Y-60416661D01*
X107306000Y-61503339D01*
X107301535Y-61548674D01*
X107290101Y-61586367D01*
X107271534Y-61621103D01*
X107246548Y-61651548D01*
X107216103Y-61676534D01*
X107181367Y-61695101D01*
X107143674Y-61706535D01*
X107098339Y-61711000D01*
X106261661Y-61711000D01*
X106216326Y-61706535D01*
X106178633Y-61695101D01*
X106143897Y-61676534D01*
X106113452Y-61651548D01*
X106088466Y-61621103D01*
X106069899Y-61586367D01*
X106058465Y-61548674D01*
X106054000Y-61503339D01*
X106054000Y-60416661D01*
X106058465Y-60371326D01*
X106069899Y-60333633D01*
X106088466Y-60298897D01*
X106113452Y-60268452D01*
X106143897Y-60243466D01*
X106178633Y-60224899D01*
X106216326Y-60213465D01*
X106261661Y-60209000D01*
X107098339Y-60209000D01*
X107143674Y-60213465D01*
X107143674Y-60213465D01*
G37*
G36*
X87848674Y-60213465D02*
G01*
X87886367Y-60224899D01*
X87921103Y-60243466D01*
X87951548Y-60268452D01*
X87976534Y-60298897D01*
X87995101Y-60333633D01*
X88006535Y-60371326D01*
X88011000Y-60416661D01*
X88011000Y-61503339D01*
X88006535Y-61548674D01*
X87995101Y-61586367D01*
X87976534Y-61621103D01*
X87951548Y-61651548D01*
X87921103Y-61676534D01*
X87886367Y-61695101D01*
X87848674Y-61706535D01*
X87803339Y-61711000D01*
X86966661Y-61711000D01*
X86921326Y-61706535D01*
X86883633Y-61695101D01*
X86848897Y-61676534D01*
X86818452Y-61651548D01*
X86793466Y-61621103D01*
X86774899Y-61586367D01*
X86763465Y-61548674D01*
X86759000Y-61503339D01*
X86759000Y-60416661D01*
X86763465Y-60371326D01*
X86774899Y-60333633D01*
X86793466Y-60298897D01*
X86818452Y-60268452D01*
X86848897Y-60243466D01*
X86883633Y-60224899D01*
X86921326Y-60213465D01*
X86966661Y-60209000D01*
X87803339Y-60209000D01*
X87848674Y-60213465D01*
X87848674Y-60213465D01*
G37*
G36*
X97353674Y-59313465D02*
G01*
X97391367Y-59324899D01*
X97426103Y-59343466D01*
X97456548Y-59368452D01*
X97481534Y-59398897D01*
X97500101Y-59433633D01*
X97511535Y-59471326D01*
X97516000Y-59516661D01*
X97516000Y-60353339D01*
X97511535Y-60398674D01*
X97500101Y-60436367D01*
X97481534Y-60471103D01*
X97456548Y-60501548D01*
X97426103Y-60526534D01*
X97391367Y-60545101D01*
X97353674Y-60556535D01*
X97308339Y-60561000D01*
X96221661Y-60561000D01*
X96176326Y-60556535D01*
X96138633Y-60545101D01*
X96103897Y-60526534D01*
X96073452Y-60501548D01*
X96048466Y-60471103D01*
X96029899Y-60436367D01*
X96018465Y-60398674D01*
X96014000Y-60353339D01*
X96014000Y-59516661D01*
X96018465Y-59471326D01*
X96029899Y-59433633D01*
X96048466Y-59398897D01*
X96073452Y-59368452D01*
X96103897Y-59343466D01*
X96138633Y-59324899D01*
X96176326Y-59313465D01*
X96221661Y-59309000D01*
X97308339Y-59309000D01*
X97353674Y-59313465D01*
X97353674Y-59313465D01*
G37*
G36*
X108538674Y-57553465D02*
G01*
X108576367Y-57564899D01*
X108611103Y-57583466D01*
X108641548Y-57608452D01*
X108666534Y-57638897D01*
X108685101Y-57673633D01*
X108696535Y-57711326D01*
X108701000Y-57756661D01*
X108701000Y-58593339D01*
X108696535Y-58638674D01*
X108685101Y-58676367D01*
X108666534Y-58711103D01*
X108641548Y-58741548D01*
X108611103Y-58766534D01*
X108576367Y-58785101D01*
X108538674Y-58796535D01*
X108493339Y-58801000D01*
X107406661Y-58801000D01*
X107361326Y-58796535D01*
X107323633Y-58785101D01*
X107288897Y-58766534D01*
X107258452Y-58741548D01*
X107233466Y-58711103D01*
X107214899Y-58676367D01*
X107203465Y-58638674D01*
X107199000Y-58593339D01*
X107199000Y-57756661D01*
X107203465Y-57711326D01*
X107214899Y-57673633D01*
X107233466Y-57638897D01*
X107258452Y-57608452D01*
X107288897Y-57583466D01*
X107323633Y-57564899D01*
X107361326Y-57553465D01*
X107406661Y-57549000D01*
X108493339Y-57549000D01*
X108538674Y-57553465D01*
X108538674Y-57553465D01*
G37*
G36*
X85678674Y-57553465D02*
G01*
X85716367Y-57564899D01*
X85751103Y-57583466D01*
X85781548Y-57608452D01*
X85806534Y-57638897D01*
X85825101Y-57673633D01*
X85836535Y-57711326D01*
X85841000Y-57756661D01*
X85841000Y-58593339D01*
X85836535Y-58638674D01*
X85825101Y-58676367D01*
X85806534Y-58711103D01*
X85781548Y-58741548D01*
X85751103Y-58766534D01*
X85716367Y-58785101D01*
X85678674Y-58796535D01*
X85633339Y-58801000D01*
X84546661Y-58801000D01*
X84501326Y-58796535D01*
X84463633Y-58785101D01*
X84428897Y-58766534D01*
X84398452Y-58741548D01*
X84373466Y-58711103D01*
X84354899Y-58676367D01*
X84343465Y-58638674D01*
X84339000Y-58593339D01*
X84339000Y-57756661D01*
X84343465Y-57711326D01*
X84354899Y-57673633D01*
X84373466Y-57638897D01*
X84398452Y-57608452D01*
X84428897Y-57583466D01*
X84463633Y-57564899D01*
X84501326Y-57553465D01*
X84546661Y-57549000D01*
X85633339Y-57549000D01*
X85678674Y-57553465D01*
X85678674Y-57553465D01*
G37*
G36*
X108538674Y-55503465D02*
G01*
X108576367Y-55514899D01*
X108611103Y-55533466D01*
X108641548Y-55558452D01*
X108666534Y-55588897D01*
X108685101Y-55623633D01*
X108696535Y-55661326D01*
X108701000Y-55706661D01*
X108701000Y-56543339D01*
X108696535Y-56588674D01*
X108685101Y-56626367D01*
X108666534Y-56661103D01*
X108641548Y-56691548D01*
X108611103Y-56716534D01*
X108576367Y-56735101D01*
X108538674Y-56746535D01*
X108493339Y-56751000D01*
X107406661Y-56751000D01*
X107361326Y-56746535D01*
X107323633Y-56735101D01*
X107288897Y-56716534D01*
X107258452Y-56691548D01*
X107233466Y-56661103D01*
X107214899Y-56626367D01*
X107203465Y-56588674D01*
X107199000Y-56543339D01*
X107199000Y-55706661D01*
X107203465Y-55661326D01*
X107214899Y-55623633D01*
X107233466Y-55588897D01*
X107258452Y-55558452D01*
X107288897Y-55533466D01*
X107323633Y-55514899D01*
X107361326Y-55503465D01*
X107406661Y-55499000D01*
X108493339Y-55499000D01*
X108538674Y-55503465D01*
X108538674Y-55503465D01*
G37*
G36*
X85678674Y-55503465D02*
G01*
X85716367Y-55514899D01*
X85751103Y-55533466D01*
X85781548Y-55558452D01*
X85806534Y-55588897D01*
X85825101Y-55623633D01*
X85836535Y-55661326D01*
X85841000Y-55706661D01*
X85841000Y-56543339D01*
X85836535Y-56588674D01*
X85825101Y-56626367D01*
X85806534Y-56661103D01*
X85781548Y-56691548D01*
X85751103Y-56716534D01*
X85716367Y-56735101D01*
X85678674Y-56746535D01*
X85633339Y-56751000D01*
X84546661Y-56751000D01*
X84501326Y-56746535D01*
X84463633Y-56735101D01*
X84428897Y-56716534D01*
X84398452Y-56691548D01*
X84373466Y-56661103D01*
X84354899Y-56626367D01*
X84343465Y-56588674D01*
X84339000Y-56543339D01*
X84339000Y-55706661D01*
X84343465Y-55661326D01*
X84354899Y-55623633D01*
X84373466Y-55588897D01*
X84398452Y-55558452D01*
X84428897Y-55533466D01*
X84463633Y-55514899D01*
X84501326Y-55503465D01*
X84546661Y-55499000D01*
X85633339Y-55499000D01*
X85678674Y-55503465D01*
X85678674Y-55503465D01*
G37*
G36*
X100797607Y-54456277D02*
G01*
X100858129Y-54468316D01*
X101029162Y-54539160D01*
X101183087Y-54642010D01*
X101313990Y-54772913D01*
X101416840Y-54926838D01*
X101487684Y-55097871D01*
X101488612Y-55102535D01*
X101523800Y-55279436D01*
X101523800Y-55464564D01*
X101512829Y-55519718D01*
X101487684Y-55646129D01*
X101416840Y-55817162D01*
X101313990Y-55971087D01*
X101183087Y-56101990D01*
X101029162Y-56204840D01*
X100858129Y-56275684D01*
X100797607Y-56287723D01*
X100676564Y-56311800D01*
X100491436Y-56311800D01*
X100370393Y-56287723D01*
X100309871Y-56275684D01*
X100138838Y-56204840D01*
X99984913Y-56101990D01*
X99854010Y-55971087D01*
X99751160Y-55817162D01*
X99680316Y-55646129D01*
X99655171Y-55519718D01*
X99644200Y-55464564D01*
X99644200Y-55279436D01*
X99679388Y-55102535D01*
X99680316Y-55097871D01*
X99751160Y-54926838D01*
X99854010Y-54772913D01*
X99984913Y-54642010D01*
X100138838Y-54539160D01*
X100309871Y-54468316D01*
X100370393Y-54456277D01*
X100491436Y-54432200D01*
X100676564Y-54432200D01*
X100797607Y-54456277D01*
X100797607Y-54456277D01*
G37*
G36*
X97971000Y-56215000D02*
G01*
X95069000Y-56215000D01*
X95069000Y-53513000D01*
X97971000Y-53513000D01*
X97971000Y-56215000D01*
X97971000Y-56215000D01*
G37*
G36*
X89113607Y-53694277D02*
G01*
X89174129Y-53706316D01*
X89345162Y-53777160D01*
X89499087Y-53880010D01*
X89629990Y-54010913D01*
X89732840Y-54164838D01*
X89803684Y-54335871D01*
X89839800Y-54517438D01*
X89839800Y-54702562D01*
X89803684Y-54884129D01*
X89732840Y-55055162D01*
X89629990Y-55209087D01*
X89499087Y-55339990D01*
X89345162Y-55442840D01*
X89174129Y-55513684D01*
X89143794Y-55519718D01*
X88992564Y-55549800D01*
X88807436Y-55549800D01*
X88656206Y-55519718D01*
X88625871Y-55513684D01*
X88454838Y-55442840D01*
X88300913Y-55339990D01*
X88170010Y-55209087D01*
X88067160Y-55055162D01*
X87996316Y-54884129D01*
X87960200Y-54702562D01*
X87960200Y-54517438D01*
X87996316Y-54335871D01*
X88067160Y-54164838D01*
X88170010Y-54010913D01*
X88300913Y-53880010D01*
X88454838Y-53777160D01*
X88625871Y-53706316D01*
X88686393Y-53694277D01*
X88807436Y-53670200D01*
X88992564Y-53670200D01*
X89113607Y-53694277D01*
X89113607Y-53694277D01*
G37*
G36*
X111207674Y-53609465D02*
G01*
X111245367Y-53620899D01*
X111280103Y-53639466D01*
X111310548Y-53664452D01*
X111335534Y-53694897D01*
X111354101Y-53729633D01*
X111365535Y-53767326D01*
X111370000Y-53812661D01*
X111370000Y-54899339D01*
X111365535Y-54944674D01*
X111354101Y-54982367D01*
X111335534Y-55017103D01*
X111310548Y-55047548D01*
X111280103Y-55072534D01*
X111245367Y-55091101D01*
X111207674Y-55102535D01*
X111162339Y-55107000D01*
X110325661Y-55107000D01*
X110280326Y-55102535D01*
X110242633Y-55091101D01*
X110207897Y-55072534D01*
X110177452Y-55047548D01*
X110152466Y-55017103D01*
X110133899Y-54982367D01*
X110122465Y-54944674D01*
X110118000Y-54899339D01*
X110118000Y-53812661D01*
X110122465Y-53767326D01*
X110133899Y-53729633D01*
X110152466Y-53694897D01*
X110177452Y-53664452D01*
X110207897Y-53639466D01*
X110242633Y-53620899D01*
X110280326Y-53609465D01*
X110325661Y-53605000D01*
X111162339Y-53605000D01*
X111207674Y-53609465D01*
X111207674Y-53609465D01*
G37*
G36*
X113257674Y-53609465D02*
G01*
X113295367Y-53620899D01*
X113330103Y-53639466D01*
X113360548Y-53664452D01*
X113385534Y-53694897D01*
X113404101Y-53729633D01*
X113415535Y-53767326D01*
X113420000Y-53812661D01*
X113420000Y-54899339D01*
X113415535Y-54944674D01*
X113404101Y-54982367D01*
X113385534Y-55017103D01*
X113360548Y-55047548D01*
X113330103Y-55072534D01*
X113295367Y-55091101D01*
X113257674Y-55102535D01*
X113212339Y-55107000D01*
X112375661Y-55107000D01*
X112330326Y-55102535D01*
X112292633Y-55091101D01*
X112257897Y-55072534D01*
X112227452Y-55047548D01*
X112202466Y-55017103D01*
X112183899Y-54982367D01*
X112172465Y-54944674D01*
X112168000Y-54899339D01*
X112168000Y-53812661D01*
X112172465Y-53767326D01*
X112183899Y-53729633D01*
X112202466Y-53694897D01*
X112227452Y-53664452D01*
X112257897Y-53639466D01*
X112292633Y-53620899D01*
X112330326Y-53609465D01*
X112375661Y-53605000D01*
X113212339Y-53605000D01*
X113257674Y-53609465D01*
X113257674Y-53609465D01*
G37*
G36*
X100797607Y-51916277D02*
G01*
X100858129Y-51928316D01*
X101029162Y-51999160D01*
X101183087Y-52102010D01*
X101313990Y-52232913D01*
X101416840Y-52386838D01*
X101487684Y-52557871D01*
X101523800Y-52739438D01*
X101523800Y-52924562D01*
X101487684Y-53106129D01*
X101416840Y-53277162D01*
X101313990Y-53431087D01*
X101183087Y-53561990D01*
X101029162Y-53664840D01*
X100858129Y-53735684D01*
X100797607Y-53747723D01*
X100676564Y-53771800D01*
X100491436Y-53771800D01*
X100370393Y-53747723D01*
X100309871Y-53735684D01*
X100138838Y-53664840D01*
X99984913Y-53561990D01*
X99854010Y-53431087D01*
X99751160Y-53277162D01*
X99680316Y-53106129D01*
X99644200Y-52924562D01*
X99644200Y-52739438D01*
X99680316Y-52557871D01*
X99751160Y-52386838D01*
X99854010Y-52232913D01*
X99984913Y-52102010D01*
X100138838Y-51999160D01*
X100309871Y-51928316D01*
X100370393Y-51916277D01*
X100491436Y-51892200D01*
X100676564Y-51892200D01*
X100797607Y-51916277D01*
X100797607Y-51916277D01*
G37*
G36*
X85678674Y-52473465D02*
G01*
X85716367Y-52484899D01*
X85751103Y-52503466D01*
X85781548Y-52528452D01*
X85806534Y-52558897D01*
X85825101Y-52593633D01*
X85836535Y-52631326D01*
X85841000Y-52676661D01*
X85841000Y-53513339D01*
X85836535Y-53558674D01*
X85825101Y-53596367D01*
X85806534Y-53631103D01*
X85781548Y-53661548D01*
X85751103Y-53686534D01*
X85716367Y-53705101D01*
X85678674Y-53716535D01*
X85633339Y-53721000D01*
X84546661Y-53721000D01*
X84501326Y-53716535D01*
X84463633Y-53705101D01*
X84428897Y-53686534D01*
X84398452Y-53661548D01*
X84373466Y-53631103D01*
X84354899Y-53596367D01*
X84343465Y-53558674D01*
X84339000Y-53513339D01*
X84339000Y-52676661D01*
X84343465Y-52631326D01*
X84354899Y-52593633D01*
X84373466Y-52558897D01*
X84398452Y-52528452D01*
X84428897Y-52503466D01*
X84463633Y-52484899D01*
X84501326Y-52473465D01*
X84546661Y-52469000D01*
X85633339Y-52469000D01*
X85678674Y-52473465D01*
X85678674Y-52473465D01*
G37*
G36*
X89113607Y-51154277D02*
G01*
X89174129Y-51166316D01*
X89345162Y-51237160D01*
X89499087Y-51340010D01*
X89629990Y-51470913D01*
X89732841Y-51624840D01*
X89737685Y-51636534D01*
X89803684Y-51795871D01*
X89839800Y-51977438D01*
X89839800Y-52162562D01*
X89803684Y-52344129D01*
X89753591Y-52465065D01*
X89732962Y-52514869D01*
X89732840Y-52515162D01*
X89629990Y-52669087D01*
X89499087Y-52799990D01*
X89345162Y-52902840D01*
X89174129Y-52973684D01*
X89113607Y-52985723D01*
X88992564Y-53009800D01*
X88807436Y-53009800D01*
X88686393Y-52985723D01*
X88625871Y-52973684D01*
X88454838Y-52902840D01*
X88300913Y-52799990D01*
X88170010Y-52669087D01*
X88067160Y-52515162D01*
X88067039Y-52514869D01*
X88046409Y-52465065D01*
X87996316Y-52344129D01*
X87960200Y-52162562D01*
X87960200Y-51977438D01*
X87996316Y-51795871D01*
X88062315Y-51636534D01*
X88067159Y-51624840D01*
X88170010Y-51470913D01*
X88300913Y-51340010D01*
X88454838Y-51237160D01*
X88625871Y-51166316D01*
X88686393Y-51154277D01*
X88807436Y-51130200D01*
X88992564Y-51130200D01*
X89113607Y-51154277D01*
X89113607Y-51154277D01*
G37*
G36*
X93521000Y-52315000D02*
G01*
X90619000Y-52315000D01*
X90619000Y-49413000D01*
X93521000Y-49413000D01*
X93521000Y-52315000D01*
X93521000Y-52315000D01*
G37*
G36*
X85678674Y-50423465D02*
G01*
X85716367Y-50434899D01*
X85751103Y-50453466D01*
X85781548Y-50478452D01*
X85806534Y-50508897D01*
X85825101Y-50543633D01*
X85836535Y-50581326D01*
X85841000Y-50626661D01*
X85841000Y-51463339D01*
X85836535Y-51508674D01*
X85825101Y-51546367D01*
X85806534Y-51581103D01*
X85781548Y-51611548D01*
X85751103Y-51636534D01*
X85716367Y-51655101D01*
X85678674Y-51666535D01*
X85633339Y-51671000D01*
X84546661Y-51671000D01*
X84501326Y-51666535D01*
X84463633Y-51655101D01*
X84428897Y-51636534D01*
X84398452Y-51611548D01*
X84373466Y-51581103D01*
X84354899Y-51546367D01*
X84343465Y-51508674D01*
X84339000Y-51463339D01*
X84339000Y-50626661D01*
X84343465Y-50581326D01*
X84354899Y-50543633D01*
X84373466Y-50508897D01*
X84398452Y-50478452D01*
X84428897Y-50453466D01*
X84463633Y-50434899D01*
X84501326Y-50423465D01*
X84546661Y-50419000D01*
X85633339Y-50419000D01*
X85678674Y-50423465D01*
X85678674Y-50423465D01*
G37*
G36*
X105783997Y-48937051D02*
G01*
X105817652Y-48947261D01*
X105848665Y-48963838D01*
X105875851Y-48986149D01*
X105898162Y-49013335D01*
X105914739Y-49044348D01*
X105924949Y-49078003D01*
X105929000Y-49119138D01*
X105929000Y-50448862D01*
X105924949Y-50489997D01*
X105914739Y-50523652D01*
X105898162Y-50554665D01*
X105875851Y-50581851D01*
X105848665Y-50604162D01*
X105817652Y-50620739D01*
X105783997Y-50630949D01*
X105742862Y-50635000D01*
X102513138Y-50635000D01*
X102472003Y-50630949D01*
X102438348Y-50620739D01*
X102407335Y-50604162D01*
X102380149Y-50581851D01*
X102357838Y-50554665D01*
X102341261Y-50523652D01*
X102331051Y-50489997D01*
X102327000Y-50448862D01*
X102327000Y-49119138D01*
X102331051Y-49078003D01*
X102341261Y-49044348D01*
X102357838Y-49013335D01*
X102380149Y-48986149D01*
X102407335Y-48963838D01*
X102438348Y-48947261D01*
X102472003Y-48937051D01*
X102513138Y-48933000D01*
X105742862Y-48933000D01*
X105783997Y-48937051D01*
X105783997Y-48937051D01*
G37*
G36*
X111383997Y-48937051D02*
G01*
X111417652Y-48947261D01*
X111448665Y-48963838D01*
X111475851Y-48986149D01*
X111498162Y-49013335D01*
X111514739Y-49044348D01*
X111524949Y-49078003D01*
X111529000Y-49119138D01*
X111529000Y-50448862D01*
X111524949Y-50489997D01*
X111514739Y-50523652D01*
X111498162Y-50554665D01*
X111475851Y-50581851D01*
X111448665Y-50604162D01*
X111417652Y-50620739D01*
X111383997Y-50630949D01*
X111342862Y-50635000D01*
X108113138Y-50635000D01*
X108072003Y-50630949D01*
X108038348Y-50620739D01*
X108007335Y-50604162D01*
X107980149Y-50581851D01*
X107957838Y-50554665D01*
X107941261Y-50523652D01*
X107931051Y-50489997D01*
X107927000Y-50448862D01*
X107927000Y-49119138D01*
X107931051Y-49078003D01*
X107941261Y-49044348D01*
X107957838Y-49013335D01*
X107980149Y-48986149D01*
X108007335Y-48963838D01*
X108038348Y-48947261D01*
X108072003Y-48937051D01*
X108113138Y-48933000D01*
X111342862Y-48933000D01*
X111383997Y-48937051D01*
X111383997Y-48937051D01*
G37*
G36*
X95883512Y-48667927D02*
G01*
X96032812Y-48697624D01*
X96196784Y-48765544D01*
X96344354Y-48864147D01*
X96469853Y-48989646D01*
X96568456Y-49137216D01*
X96636376Y-49301188D01*
X96671000Y-49475259D01*
X96671000Y-49652741D01*
X96636376Y-49826812D01*
X96568456Y-49990784D01*
X96469853Y-50138354D01*
X96344354Y-50263853D01*
X96196784Y-50362456D01*
X96032812Y-50430376D01*
X95883512Y-50460073D01*
X95858742Y-50465000D01*
X95681258Y-50465000D01*
X95656488Y-50460073D01*
X95507188Y-50430376D01*
X95343216Y-50362456D01*
X95195646Y-50263853D01*
X95070147Y-50138354D01*
X94971544Y-49990784D01*
X94903624Y-49826812D01*
X94869000Y-49652741D01*
X94869000Y-49475259D01*
X94903624Y-49301188D01*
X94971544Y-49137216D01*
X95070147Y-48989646D01*
X95195646Y-48864147D01*
X95343216Y-48765544D01*
X95507188Y-48697624D01*
X95656488Y-48667927D01*
X95681258Y-48663000D01*
X95858742Y-48663000D01*
X95883512Y-48667927D01*
X95883512Y-48667927D01*
G37*
G36*
X89291997Y-44365051D02*
G01*
X89325652Y-44375261D01*
X89356665Y-44391838D01*
X89383851Y-44414149D01*
X89406162Y-44441335D01*
X89422739Y-44472348D01*
X89432949Y-44506003D01*
X89437000Y-44547138D01*
X89437000Y-45876862D01*
X89432949Y-45917997D01*
X89422739Y-45951652D01*
X89406162Y-45982665D01*
X89383851Y-46009851D01*
X89356665Y-46032162D01*
X89325652Y-46048739D01*
X89291997Y-46058949D01*
X89250862Y-46063000D01*
X86021138Y-46063000D01*
X85980003Y-46058949D01*
X85946348Y-46048739D01*
X85915335Y-46032162D01*
X85888149Y-46009851D01*
X85865838Y-45982665D01*
X85849261Y-45951652D01*
X85839051Y-45917997D01*
X85835000Y-45876862D01*
X85835000Y-44547138D01*
X85839051Y-44506003D01*
X85849261Y-44472348D01*
X85865838Y-44441335D01*
X85888149Y-44414149D01*
X85915335Y-44391838D01*
X85946348Y-44375261D01*
X85980003Y-44365051D01*
X86021138Y-44361000D01*
X89250862Y-44361000D01*
X89291997Y-44365051D01*
X89291997Y-44365051D01*
G37*
G36*
X83691997Y-44365051D02*
G01*
X83725652Y-44375261D01*
X83756665Y-44391838D01*
X83783851Y-44414149D01*
X83806162Y-44441335D01*
X83822739Y-44472348D01*
X83832949Y-44506003D01*
X83837000Y-44547138D01*
X83837000Y-45876862D01*
X83832949Y-45917997D01*
X83822739Y-45951652D01*
X83806162Y-45982665D01*
X83783851Y-46009851D01*
X83756665Y-46032162D01*
X83725652Y-46048739D01*
X83691997Y-46058949D01*
X83650862Y-46063000D01*
X80421138Y-46063000D01*
X80380003Y-46058949D01*
X80346348Y-46048739D01*
X80315335Y-46032162D01*
X80288149Y-46009851D01*
X80265838Y-45982665D01*
X80249261Y-45951652D01*
X80239051Y-45917997D01*
X80235000Y-45876862D01*
X80235000Y-44547138D01*
X80239051Y-44506003D01*
X80249261Y-44472348D01*
X80265838Y-44441335D01*
X80288149Y-44414149D01*
X80315335Y-44391838D01*
X80346348Y-44375261D01*
X80380003Y-44365051D01*
X80421138Y-44361000D01*
X83650862Y-44361000D01*
X83691997Y-44365051D01*
X83691997Y-44365051D01*
G37*
G36*
X113401968Y-44338565D02*
G01*
X113440638Y-44350296D01*
X113476277Y-44369346D01*
X113507517Y-44394983D01*
X113533154Y-44426223D01*
X113552204Y-44461862D01*
X113563935Y-44500532D01*
X113568500Y-44546888D01*
X113568500Y-45623112D01*
X113563935Y-45669468D01*
X113552204Y-45708138D01*
X113533154Y-45743777D01*
X113507517Y-45775017D01*
X113476277Y-45800654D01*
X113440638Y-45819704D01*
X113401968Y-45831435D01*
X113355612Y-45836000D01*
X112704388Y-45836000D01*
X112658032Y-45831435D01*
X112619362Y-45819704D01*
X112583723Y-45800654D01*
X112552483Y-45775017D01*
X112526846Y-45743777D01*
X112507796Y-45708138D01*
X112496065Y-45669468D01*
X112491500Y-45623112D01*
X112491500Y-44546888D01*
X112496065Y-44500532D01*
X112507796Y-44461862D01*
X112526846Y-44426223D01*
X112552483Y-44394983D01*
X112583723Y-44369346D01*
X112619362Y-44350296D01*
X112658032Y-44338565D01*
X112704388Y-44334000D01*
X113355612Y-44334000D01*
X113401968Y-44338565D01*
X113401968Y-44338565D01*
G37*
G36*
X111526968Y-44338565D02*
G01*
X111565638Y-44350296D01*
X111601277Y-44369346D01*
X111632517Y-44394983D01*
X111658154Y-44426223D01*
X111677204Y-44461862D01*
X111688935Y-44500532D01*
X111693500Y-44546888D01*
X111693500Y-45623112D01*
X111688935Y-45669468D01*
X111677204Y-45708138D01*
X111658154Y-45743777D01*
X111632517Y-45775017D01*
X111601277Y-45800654D01*
X111565638Y-45819704D01*
X111526968Y-45831435D01*
X111480612Y-45836000D01*
X110829388Y-45836000D01*
X110783032Y-45831435D01*
X110744362Y-45819704D01*
X110708723Y-45800654D01*
X110677483Y-45775017D01*
X110651846Y-45743777D01*
X110632796Y-45708138D01*
X110621065Y-45669468D01*
X110616500Y-45623112D01*
X110616500Y-44546888D01*
X110621065Y-44500532D01*
X110632796Y-44461862D01*
X110651846Y-44426223D01*
X110677483Y-44394983D01*
X110708723Y-44369346D01*
X110744362Y-44350296D01*
X110783032Y-44338565D01*
X110829388Y-44334000D01*
X111480612Y-44334000D01*
X111526968Y-44338565D01*
X111526968Y-44338565D01*
G37*
G36*
X100921000Y-44615000D02*
G01*
X98019000Y-44615000D01*
X98019000Y-42313000D01*
X100921000Y-42313000D01*
X100921000Y-44615000D01*
X100921000Y-44615000D01*
G37*
G36*
X113531600Y-43731600D02*
G01*
X112528400Y-43731600D01*
X112528400Y-42628400D01*
X113531600Y-42628400D01*
X113531600Y-43731600D01*
X113531600Y-43731600D01*
G37*
G36*
X111631600Y-43731600D02*
G01*
X110628400Y-43731600D01*
X110628400Y-42628400D01*
X111631600Y-42628400D01*
X111631600Y-43731600D01*
X111631600Y-43731600D01*
G37*
G36*
X95883512Y-41667927D02*
G01*
X96032812Y-41697624D01*
X96196784Y-41765544D01*
X96344354Y-41864147D01*
X96469853Y-41989646D01*
X96568456Y-42137216D01*
X96636376Y-42301188D01*
X96671000Y-42475259D01*
X96671000Y-42652741D01*
X96636376Y-42826812D01*
X96568456Y-42990784D01*
X96469853Y-43138354D01*
X96344354Y-43263853D01*
X96196784Y-43362456D01*
X96032812Y-43430376D01*
X95883512Y-43460073D01*
X95858742Y-43465000D01*
X95681258Y-43465000D01*
X95656488Y-43460073D01*
X95507188Y-43430376D01*
X95343216Y-43362456D01*
X95195646Y-43263853D01*
X95070147Y-43138354D01*
X94971544Y-42990784D01*
X94903624Y-42826812D01*
X94869000Y-42652741D01*
X94869000Y-42475259D01*
X94903624Y-42301188D01*
X94971544Y-42137216D01*
X95070147Y-41989646D01*
X95195646Y-41864147D01*
X95343216Y-41765544D01*
X95507188Y-41697624D01*
X95656488Y-41667927D01*
X95681258Y-41663000D01*
X95858742Y-41663000D01*
X95883512Y-41667927D01*
X95883512Y-41667927D01*
G37*
G36*
X93521000Y-42615000D02*
G01*
X90619000Y-42615000D01*
X90619000Y-40313000D01*
X93521000Y-40313000D01*
X93521000Y-42615000D01*
X93521000Y-42615000D01*
G37*
G36*
X112581600Y-41631600D02*
G01*
X111578400Y-41631600D01*
X111578400Y-40528400D01*
X112581600Y-40528400D01*
X112581600Y-41631600D01*
X112581600Y-41631600D01*
G37*
G36*
X119751968Y-39893565D02*
G01*
X119790638Y-39905296D01*
X119826277Y-39924346D01*
X119857517Y-39949983D01*
X119883154Y-39981223D01*
X119902204Y-40016862D01*
X119913935Y-40055532D01*
X119918500Y-40101888D01*
X119918500Y-41178112D01*
X119913935Y-41224468D01*
X119902204Y-41263138D01*
X119883154Y-41298777D01*
X119857517Y-41330017D01*
X119826277Y-41355654D01*
X119790638Y-41374704D01*
X119751968Y-41386435D01*
X119705612Y-41391000D01*
X119054388Y-41391000D01*
X119008032Y-41386435D01*
X118969362Y-41374704D01*
X118933723Y-41355654D01*
X118902483Y-41330017D01*
X118876846Y-41298777D01*
X118857796Y-41263138D01*
X118846065Y-41224468D01*
X118841500Y-41178112D01*
X118841500Y-40101888D01*
X118846065Y-40055532D01*
X118857796Y-40016862D01*
X118876846Y-39981223D01*
X118902483Y-39949983D01*
X118933723Y-39924346D01*
X118969362Y-39905296D01*
X119008032Y-39893565D01*
X119054388Y-39889000D01*
X119705612Y-39889000D01*
X119751968Y-39893565D01*
X119751968Y-39893565D01*
G37*
G36*
X117816968Y-39893565D02*
G01*
X117855638Y-39905296D01*
X117891277Y-39924346D01*
X117922517Y-39949983D01*
X117948154Y-39981223D01*
X117967204Y-40016862D01*
X117978935Y-40055532D01*
X117983500Y-40101888D01*
X117983500Y-41178112D01*
X117978935Y-41224468D01*
X117967204Y-41263138D01*
X117948154Y-41298777D01*
X117922517Y-41330017D01*
X117891277Y-41355654D01*
X117855638Y-41374704D01*
X117816968Y-41386435D01*
X117770612Y-41391000D01*
X117119388Y-41391000D01*
X117073032Y-41386435D01*
X117034362Y-41374704D01*
X116998723Y-41355654D01*
X116967483Y-41330017D01*
X116941846Y-41298777D01*
X116922796Y-41263138D01*
X116911065Y-41224468D01*
X116906500Y-41178112D01*
X116906500Y-40101888D01*
X116911065Y-40055532D01*
X116922796Y-40016862D01*
X116941846Y-39981223D01*
X116967483Y-39949983D01*
X116998723Y-39924346D01*
X117034362Y-39905296D01*
X117073032Y-39893565D01*
X117119388Y-39889000D01*
X117770612Y-39889000D01*
X117816968Y-39893565D01*
X117816968Y-39893565D01*
G37*
G36*
X121626968Y-39893565D02*
G01*
X121665638Y-39905296D01*
X121701277Y-39924346D01*
X121732517Y-39949983D01*
X121758154Y-39981223D01*
X121777204Y-40016862D01*
X121788935Y-40055532D01*
X121793500Y-40101888D01*
X121793500Y-41178112D01*
X121788935Y-41224468D01*
X121777204Y-41263138D01*
X121758154Y-41298777D01*
X121732517Y-41330017D01*
X121701277Y-41355654D01*
X121665638Y-41374704D01*
X121626968Y-41386435D01*
X121580612Y-41391000D01*
X120929388Y-41391000D01*
X120883032Y-41386435D01*
X120844362Y-41374704D01*
X120808723Y-41355654D01*
X120777483Y-41330017D01*
X120751846Y-41298777D01*
X120732796Y-41263138D01*
X120721065Y-41224468D01*
X120716500Y-41178112D01*
X120716500Y-40101888D01*
X120721065Y-40055532D01*
X120732796Y-40016862D01*
X120751846Y-39981223D01*
X120777483Y-39949983D01*
X120808723Y-39924346D01*
X120844362Y-39905296D01*
X120883032Y-39893565D01*
X120929388Y-39889000D01*
X121580612Y-39889000D01*
X121626968Y-39893565D01*
X121626968Y-39893565D01*
G37*
G36*
X115941968Y-39893565D02*
G01*
X115980638Y-39905296D01*
X116016277Y-39924346D01*
X116047517Y-39949983D01*
X116073154Y-39981223D01*
X116092204Y-40016862D01*
X116103935Y-40055532D01*
X116108500Y-40101888D01*
X116108500Y-41178112D01*
X116103935Y-41224468D01*
X116092204Y-41263138D01*
X116073154Y-41298777D01*
X116047517Y-41330017D01*
X116016277Y-41355654D01*
X115980638Y-41374704D01*
X115941968Y-41386435D01*
X115895612Y-41391000D01*
X115244388Y-41391000D01*
X115198032Y-41386435D01*
X115159362Y-41374704D01*
X115123723Y-41355654D01*
X115092483Y-41330017D01*
X115066846Y-41298777D01*
X115047796Y-41263138D01*
X115036065Y-41224468D01*
X115031500Y-41178112D01*
X115031500Y-40101888D01*
X115036065Y-40055532D01*
X115047796Y-40016862D01*
X115066846Y-39981223D01*
X115092483Y-39949983D01*
X115123723Y-39924346D01*
X115159362Y-39905296D01*
X115198032Y-39893565D01*
X115244388Y-39889000D01*
X115895612Y-39889000D01*
X115941968Y-39893565D01*
X115941968Y-39893565D01*
G37*
M02*
