G04 #@! TF.GenerationSoftware,KiCad,Pcbnew,5.1.3-ffb9f22~84~ubuntu18.10.1*
G04 #@! TF.CreationDate,2019-09-01T17:36:10+10:00*
G04 #@! TF.ProjectId,openpod-1,6f70656e-706f-4642-9d31-2e6b69636164,1.0*
G04 #@! TF.SameCoordinates,Original*
G04 #@! TF.FileFunction,Legend,Bot*
G04 #@! TF.FilePolarity,Positive*
%FSLAX46Y46*%
G04 Gerber Fmt 4.6, Leading zero omitted, Abs format (unit mm)*
G04 Created by KiCad (PCBNEW 5.1.3-ffb9f22~84~ubuntu18.10.1) date 2019-09-01 17:36:10*
%MOMM*%
%LPD*%
G04 APERTURE LIST*
%ADD10C,0.150000*%
%ADD11C,0.120000*%
G04 APERTURE END LIST*
D10*
X57967619Y-79137380D02*
X57967619Y-79327857D01*
X58015238Y-79423095D01*
X58062857Y-79470714D01*
X58205714Y-79565952D01*
X58396190Y-79613571D01*
X58777142Y-79613571D01*
X58872380Y-79565952D01*
X58920000Y-79518333D01*
X58967619Y-79423095D01*
X58967619Y-79232619D01*
X58920000Y-79137380D01*
X58872380Y-79089761D01*
X58777142Y-79042142D01*
X58539047Y-79042142D01*
X58443809Y-79089761D01*
X58396190Y-79137380D01*
X58348571Y-79232619D01*
X58348571Y-79423095D01*
X58396190Y-79518333D01*
X58443809Y-79565952D01*
X58539047Y-79613571D01*
X58967619Y-80232619D02*
X58967619Y-80327857D01*
X58920000Y-80423095D01*
X58872380Y-80470714D01*
X58777142Y-80518333D01*
X58586666Y-80565952D01*
X58348571Y-80565952D01*
X58158095Y-80518333D01*
X58062857Y-80470714D01*
X58015238Y-80423095D01*
X57967619Y-80327857D01*
X57967619Y-80232619D01*
X58015238Y-80137380D01*
X58062857Y-80089761D01*
X58158095Y-80042142D01*
X58348571Y-79994523D01*
X58586666Y-79994523D01*
X58777142Y-80042142D01*
X58872380Y-80089761D01*
X58920000Y-80137380D01*
X58967619Y-80232619D01*
X58062857Y-80994523D02*
X58015238Y-81042142D01*
X57967619Y-80994523D01*
X58015238Y-80946904D01*
X58062857Y-80994523D01*
X57967619Y-80994523D01*
X57967619Y-81994523D02*
X57967619Y-81423095D01*
X57967619Y-81708809D02*
X58967619Y-81708809D01*
X58824761Y-81613571D01*
X58729523Y-81518333D01*
X58681904Y-81423095D01*
X58967619Y-82327857D02*
X58967619Y-82994523D01*
X57967619Y-82565952D01*
X58967619Y-83565952D02*
X58967619Y-83661190D01*
X58920000Y-83756428D01*
X58872380Y-83804047D01*
X58777142Y-83851666D01*
X58586666Y-83899285D01*
X58348571Y-83899285D01*
X58158095Y-83851666D01*
X58062857Y-83804047D01*
X58015238Y-83756428D01*
X57967619Y-83661190D01*
X57967619Y-83565952D01*
X58015238Y-83470714D01*
X58062857Y-83423095D01*
X58158095Y-83375476D01*
X58348571Y-83327857D01*
X58586666Y-83327857D01*
X58777142Y-83375476D01*
X58872380Y-83423095D01*
X58920000Y-83470714D01*
X58967619Y-83565952D01*
X57967619Y-85089761D02*
X58634285Y-85089761D01*
X58539047Y-85089761D02*
X58586666Y-85137380D01*
X58634285Y-85232619D01*
X58634285Y-85375476D01*
X58586666Y-85470714D01*
X58491428Y-85518333D01*
X57967619Y-85518333D01*
X58491428Y-85518333D02*
X58586666Y-85565952D01*
X58634285Y-85661190D01*
X58634285Y-85804047D01*
X58586666Y-85899285D01*
X58491428Y-85946904D01*
X57967619Y-85946904D01*
X57967619Y-86423095D02*
X58634285Y-86423095D01*
X58539047Y-86423095D02*
X58586666Y-86470714D01*
X58634285Y-86565952D01*
X58634285Y-86708809D01*
X58586666Y-86804047D01*
X58491428Y-86851666D01*
X57967619Y-86851666D01*
X58491428Y-86851666D02*
X58586666Y-86899285D01*
X58634285Y-86994523D01*
X58634285Y-87137380D01*
X58586666Y-87232619D01*
X58491428Y-87280238D01*
X57967619Y-87280238D01*
D11*
X59690000Y-38100000D02*
X59690000Y-128270000D01*
X72390000Y-38100000D02*
X59103579Y-38100000D01*
X72390000Y-128270000D02*
X59103579Y-128270000D01*
X59690000Y-128270000D02*
X59103579Y-127143496D01*
X59690000Y-128270000D02*
X60276421Y-127143496D01*
X59690000Y-38100000D02*
X59103579Y-39226504D01*
X59690000Y-38100000D02*
X60276421Y-39226504D01*
D10*
X110458095Y-96472380D02*
X110458095Y-95472380D01*
X110458095Y-95948571D02*
X109886666Y-95948571D01*
X109886666Y-96472380D02*
X109886666Y-95472380D01*
X109458095Y-96424761D02*
X109315238Y-96472380D01*
X109077142Y-96472380D01*
X108981904Y-96424761D01*
X108934285Y-96377142D01*
X108886666Y-96281904D01*
X108886666Y-96186666D01*
X108934285Y-96091428D01*
X108981904Y-96043809D01*
X109077142Y-95996190D01*
X109267619Y-95948571D01*
X109362857Y-95900952D01*
X109410476Y-95853333D01*
X109458095Y-95758095D01*
X109458095Y-95662857D01*
X109410476Y-95567619D01*
X109362857Y-95520000D01*
X109267619Y-95472380D01*
X109029523Y-95472380D01*
X108886666Y-95520000D01*
X108553333Y-95472380D02*
X107934285Y-95472380D01*
X108267619Y-95853333D01*
X108124761Y-95853333D01*
X108029523Y-95900952D01*
X107981904Y-95948571D01*
X107934285Y-96043809D01*
X107934285Y-96281904D01*
X107981904Y-96377142D01*
X108029523Y-96424761D01*
X108124761Y-96472380D01*
X108410476Y-96472380D01*
X108505714Y-96424761D01*
X108553333Y-96377142D01*
X90011095Y-101036380D02*
X90011095Y-100036380D01*
X90011095Y-100512571D02*
X89439666Y-100512571D01*
X89439666Y-101036380D02*
X89439666Y-100036380D01*
X89011095Y-100988761D02*
X88868238Y-101036380D01*
X88630142Y-101036380D01*
X88534904Y-100988761D01*
X88487285Y-100941142D01*
X88439666Y-100845904D01*
X88439666Y-100750666D01*
X88487285Y-100655428D01*
X88534904Y-100607809D01*
X88630142Y-100560190D01*
X88820619Y-100512571D01*
X88915857Y-100464952D01*
X88963476Y-100417333D01*
X89011095Y-100322095D01*
X89011095Y-100226857D01*
X88963476Y-100131619D01*
X88915857Y-100084000D01*
X88820619Y-100036380D01*
X88582523Y-100036380D01*
X88439666Y-100084000D01*
X87487285Y-101036380D02*
X88058714Y-101036380D01*
X87773000Y-101036380D02*
X87773000Y-100036380D01*
X87868238Y-100179238D01*
X87963476Y-100274476D01*
X88058714Y-100322095D01*
X85058095Y-106116380D02*
X85058095Y-105116380D01*
X85058095Y-105592571D02*
X84486666Y-105592571D01*
X84486666Y-106116380D02*
X84486666Y-105116380D01*
X84058095Y-106068761D02*
X83915238Y-106116380D01*
X83677142Y-106116380D01*
X83581904Y-106068761D01*
X83534285Y-106021142D01*
X83486666Y-105925904D01*
X83486666Y-105830666D01*
X83534285Y-105735428D01*
X83581904Y-105687809D01*
X83677142Y-105640190D01*
X83867619Y-105592571D01*
X83962857Y-105544952D01*
X84010476Y-105497333D01*
X84058095Y-105402095D01*
X84058095Y-105306857D01*
X84010476Y-105211619D01*
X83962857Y-105164000D01*
X83867619Y-105116380D01*
X83629523Y-105116380D01*
X83486666Y-105164000D01*
X83105714Y-105211619D02*
X83058095Y-105164000D01*
X82962857Y-105116380D01*
X82724761Y-105116380D01*
X82629523Y-105164000D01*
X82581904Y-105211619D01*
X82534285Y-105306857D01*
X82534285Y-105402095D01*
X82581904Y-105544952D01*
X83153333Y-106116380D01*
X82534285Y-106116380D01*
X131286095Y-84780380D02*
X131286095Y-83780380D01*
X131286095Y-84256571D02*
X130714666Y-84256571D01*
X130714666Y-84780380D02*
X130714666Y-83780380D01*
X130286095Y-84732761D02*
X130143238Y-84780380D01*
X129905142Y-84780380D01*
X129809904Y-84732761D01*
X129762285Y-84685142D01*
X129714666Y-84589904D01*
X129714666Y-84494666D01*
X129762285Y-84399428D01*
X129809904Y-84351809D01*
X129905142Y-84304190D01*
X130095619Y-84256571D01*
X130190857Y-84208952D01*
X130238476Y-84161333D01*
X130286095Y-84066095D01*
X130286095Y-83970857D01*
X130238476Y-83875619D01*
X130190857Y-83828000D01*
X130095619Y-83780380D01*
X129857523Y-83780380D01*
X129714666Y-83828000D01*
X128857523Y-84113714D02*
X128857523Y-84780380D01*
X129095619Y-83732761D02*
X129333714Y-84447047D01*
X128714666Y-84447047D01*
M02*
